{
.appVersion = "3151";
.formatVersion = 3;
axes = (
{
name = Weight;
tag = wght;
}
);
classes = (
{
automatic = 1;
code = "A Aacute Abreve Acaron Acircumflex Adieresis Adotbelow Agrave Amacron Aogonek Aring Aringacute Atilde AE AEacute B C Cacute Ccaron Ccedilla Ccircumflex Cdotaccent D Eth Dcaron Dcroat E Eacute Ebreve Ecaron Ecircumflex Edieresis Edotaccent Edotbelow Egrave Emacron Eogonek Etilde Schwa F G Gbreve Gcaron Gcircumflex Gcommaaccent Gdotaccent H Hbar Hcircumflex I IJ Iacute Ibreve Icircumflex Idieresis Idotaccent Idotbelow Igrave Imacron Iogonek Itilde J Jcircumflex K Kcommaaccent L Lacute Lcaron Lcommaaccent Ldot Lslash M N Nacute Ncaron Ncommaaccent Nhookleft Ntilde Eng O Oacute Obreve Ocircumflex Odieresis Odotbelow Ograve Ohungarumlaut Omacron Oogonek Oslash Oslashacute Otilde OE P Thorn Q R Racute Rcaron Rcommaaccent S Sacute Scaron Scedilla Scircumflex Scommaaccent Germandbls T Tbar Tcaron Tcedilla Tcommaaccent U Uacute Ubreve Ucircumflex Udieresis Udotbelow Ugrave Uhungarumlaut Umacron Uogonek Uring Utilde V W Wacute Wcircumflex Wdieresis Wgrave X Y Yacute Ycircumflex Ydieresis Ygrave Ymacron Ytilde Z Zacute Zcaron Zdotaccent Delta Pi Sigma Omega";
name = Uppercase;
}
);
customParameters = (
{
name = "Use Typo Metrics";
value = 1;
},
{
name = "Write DisplayStrings";
value = 0;
},
{
name = "Write lastChange";
value = 0;
},
{
name = fsType;
value = (
);
},
{
name = "Axis Mappings";
value = {
wght = {
400 = 400;
500 = 476;
600 = 572;
700 = 680;
800 = 793;
900 = 900;
};
};
},
{
name = "Variable Font Origin";
value = m01;
}
);
date = "2022-04-27 15:27:08 +0000";
familyName = "Schibsted Grotesk";
featurePrefixes = (
{
automatic = 1;
code = "languagesystem DFLT dflt;

languagesystem latn dflt;
languagesystem latn AZE;
languagesystem latn CRT;
languagesystem latn KAZ;
languagesystem latn TAT;
languagesystem latn TRK;
languagesystem latn ROM;
languagesystem latn MOL;
languagesystem latn CAT;
";
name = Languagesystems;
}
);
features = (
{
automatic = 1;

glyphs = (
{
glyphname = A;
kernLeft = A;
kernRight = A;
layers = (
{
anchors = (
{
name = bottom;
pos = (717,0);
},
{
name = ogonek;
pos = (1414,0);
},
{
name = top;
pos = (717,1440);
}
);
background = {
anchors = (
{
name = bottom;
pos = (717,0);
},
{
name = ogonek;
pos = (1414,0);
},
{
name = top;
pos = (717,1440);
}
);
shapes = (
{
closed = 1;
nodes = (
(212,0,l),
(718,1252,l),
(1222,0,l),
(1414,0,l),
(808,1440,l),
(628,1440,l),
(20,0,l)
);
},
{
closed = 1;
nodes = (
(1102,472,l),
(1102,620,l),
(332,620,l),
(332,472,l)
);
}
);
};
layerId = m01;
shapes = (
{
closed = 1;
nodes = (
(212,0,l),
(718,1252,l),
(1222,0,l),
(1414,0,l),
(808,1440,l),
(628,1440,l),
(20,0,l)
);
},
{
closed = 1;
nodes = (
(1102,472,l),
(1102,620,l),
(332,620,l),
(332,472,l)
);
}
);
width = 1434;
},
{
anchors = (
{
name = bottom;
pos = (787,0);
},
{
name = ogonek;
pos = (1574,0);
},
{
name = top;
pos = (787,1440);
}
);
background = {
anchors = (
{
name = bottom;
pos = (787,0);
},
{
name = ogonek;
pos = (1574,0);
},
{
name = top;
pos = (787,1440);
}
);
shapes = (
{
closed = 1;
nodes = (
(442,0,l),
(786,1187,l),
(1132,0,l),
(1574,0,l),
(1068,1440,l),
(508,1440,l),
(0,0,l)
);
},
{
closed = 1;
nodes = (
(1170,332,l),
(1170,658,l),
(400,658,l),
(400,332,l)
);
}
);
};
layerId = m002;
name = "800";
shapes = (
{
closed = 1;
nodes = (
(442,0,l),
(786,1187,l),
(1132,0,l),
(1574,0,l),
(1068,1440,l),
(508,1440,l),
(0,0,l)
);
},
{
closed = 1;
nodes = (
(1170,332,l),
(1170,658,l),
(400,658,l),
(400,332,l)
);
}
);
width = 1574;
}
);
unicode = 65;
userData = {
KernOnName = A;
};
},
{
glyphname = AE;
kernLeft = AE;
kernRight = E;
layers = (
{
anchors = (
{
name = bottom;
pos = (961,0);
},
{
name = top;
pos = (1189,1440);
}
);
background = {
anchors = (
{
name = bottom;
pos = (961,0);
},
{
name = top;
pos = (1189,1440);
}
);
shapes = (
{
closed = 1;
nodes = (
(243,0,l),
(467,472,l),
(1014,472,l),
(1100,0,l),
(1836,0,l),
(1836,148,l),
(1252,148,l),
(1144,692,l),
(1726,692,l),
(1726,840,l),
(1115,840,l),
(1025,1292,l),
(1822,1292,l),
(1822,1440,l),
(755,1440,l),
(46,0,l)
);
},
{
closed = 1;
nodes = (
(895,1374,l),
(849,1380,l),
(988,620,l),
(538,620,l)
);
}
);
};
layerId = m01;
shapes = (
{
closed = 1;
nodes = (
(243,0,l),
(467,472,l),
(1014,472,l),
(1100,0,l),
(1836,0,l),
(1836,148,l),
(1252,148,l),
(1144,692,l),
(1726,692,l),
(1726,840,l),
(1115,840,l),
(1025,1292,l),
(1822,1292,l),
(1822,1440,l),
(755,1440,l),
(46,0,l)
);
},
{
closed = 1;
nodes = (
(895,1374,l),
(849,1380,l),
(988,620,l),
(538,620,l)
);
}
);
width = 1908;
},
{
anchors = (
{
name = bottom;
pos = (1018,0);
},
{
name = top;
pos = (1241,1440);
}
);
background = {
anchors = (
{
name = bottom;
pos = (1018,0);
},
{
name = top;
pos = (1241,1440);
}
);
shapes = (
{
closed = 1;
nodes = (
(470,0,l),
(613,332,l),
(1040,332,l),
(1075,0,l),
(1983,0,l),
(1983,350,l),
(1438,350,l),
(1398,585,l),
(1853,585,l),
(1853,915,l),
(1343,915,l),
(1313,1090,l),
(1969,1090,l),
(1969,1440,l),
(723,1440,l),
(7,0,l)
);
},
{
closed = 1;
nodes = (
(1026,1292,l),
(936,1306,l),
(1005,658,l),
(753,658,l)
);
}
);
};
layerId = m002;
shapes = (
{
closed = 1;
nodes = (
(470,0,l),
(613,332,l),
(1040,332,l),
(1075,0,l),
(1983,0,l),
(1983,350,l),
(1438,350,l),
(1398,585,l),
(1853,585,l),
(1853,915,l),
(1343,915,l),
(1313,1090,l),
(1969,1090,l),
(1969,1440,l),
(723,1440,l),
(7,0,l)
);
},
{
closed = 1;
nodes = (
(1026,1292,l),
(936,1306,l),
(1005,658,l),
(753,658,l)
);
}
);
width = 2048;
}
);
unicode = 198;
userData = {
KernOnName = AE;
};
},
{
glyphname = B;
kernLeft = H;
kernRight = B;
layers = (
{
background = {
shapes = (
{
closed = 1;
nodes = (
(749,0,ls),
(1011,0,o),
(1233,101,o),
(1233,387,cs),
(1233,622,o),
(1083,750,o),
(872,785,c),
(869,781,l),
(1024,798,o),
(1178,896,o),
(1178,1100,cs),
(1178,1322,o),
(994,1440,o),
(713,1440,cs),
(164,1440,l),
(164,0,l)
);
},
{
closed = 1;
nodes = (
(344,708,l),
(685,708,ls),
(909,708,o),
(1051,617,o),
(1051,423,cs),
(1051,287,o),
(983,148,o),
(749,148,cs),
(344,148,l)
);
},
{
closed = 1;
nodes = (
(344,1292,l),
(714,1292,ls),
(910,1292,o),
(990,1203,o),
(990,1076,cs),
(990,917,o),
(861,856,o),
(704,856,cs),
(344,856,l)
);
}
);
};
layerId = m01;
shapes = (
{
closed = 1;
nodes = (
(749,0,ls),
(1011,0,o),
(1233,101,o),
(1233,387,cs),
(1233,622,o),
(1083,750,o),
(872,785,c),
(869,781,l),
(1024,798,o),
(1178,896,o),
(1178,1100,cs),
(1178,1322,o),
(994,1440,o),
(713,1440,cs),
(164,1440,l),
(164,0,l)
);
},
{
closed = 1;
nodes = (
(344,708,l),
(685,708,ls),
(909,708,o),
(1051,617,o),
(1051,423,cs),
(1051,287,o),
(983,148,o),
(749,148,cs),
(344,148,l)
);
},
{
closed = 1;
nodes = (
(344,1292,l),
(714,1292,ls),
(910,1292,o),
(990,1203,o),
(990,1076,cs),
(990,917,o),
(861,856,o),
(704,856,cs),
(344,856,l)
);
}
);
width = 1320;
},
{
background = {
shapes = (
{
closed = 1;
nodes = (
(864,0,ls),
(1145,0,o),
(1393,95,o),
(1393,403,cs),
(1393,612,o),
(1278,731,o),
(1072,763,c),
(1069,759,l),
(1193,780,o),
(1353,848,o),
(1353,1082,cs),
(1353,1314,o),
(1198,1440,o),
(832,1440,cs),
(125,1440,l),
(125,0,l)
);
},
{
closed = 1;
nodes = (
(535,611,l),
(765,611,ls),
(950,611,o),
(979,538,o),
(979,462,cs),
(979,374,o),
(940,312,o),
(766,312,cs),
(535,312,l)
);
},
{
closed = 1;
nodes = (
(535,1128,l),
(799,1128,ls),
(916,1128,o),
(948,1083,o),
(948,1014,cs),
(948,936,o),
(905,901,o),
(799,901,cs),
(535,901,l)
);
}
);
};
layerId = m002;
shapes = (
{
closed = 1;
nodes = (
(864,0,ls),
(1145,0,o),
(1393,95,o),
(1393,403,cs),
(1393,612,o),
(1278,731,o),
(1072,763,c),
(1069,759,l),
(1193,780,o),
(1353,848,o),
(1353,1082,cs),
(1353,1314,o),
(1198,1440,o),
(832,1440,cs),
(125,1440,l),
(125,0,l)
);
},
{
closed = 1;
nodes = (
(535,611,l),
(765,611,ls),
(950,611,o),
(979,538,o),
(979,462,cs),
(979,374,o),
(940,312,o),
(766,312,cs),
(535,312,l)
);
},
{
closed = 1;
nodes = (
(535,1128,l),
(799,1128,ls),
(916,1128,o),
(948,1083,o),
(948,1014,cs),
(948,936,o),
(905,901,o),
(799,901,cs),
(535,901,l)
);
}
);
width = 1447;
}
);
unicode = 66;
userData = {
KernOnName = B;
};
},
{
glyphname = C;
kernLeft = O;
kernRight = C;
layers = (
{
anchors = (
{
name = bottom;
pos = (740,0);
},
{
name = top;
pos = (759,1440);
}
);
background = {
anchors = (
{
name = bottom;
pos = (740,0);
},
{
name = top;
pos = (759,1440);
}
);
shapes = (
{
closed = 1;
nodes = (
(1060,-24,o),
(1292,133,o),
(1371,429,c),
(1174,483,l),
(1132,257,o),
(967,124,o),
(758,124,cs),
(470,124,o),
(285,368,o),
(285,721,cs),
(285,1066,o),
(462,1316,o),
(766,1316,cs),
(961,1316,o),
(1111,1207,o),
(1168,970,c),
(1359,1015,l),
(1288,1317,o),
(1055,1464,o),
(769,1464,cs),
(345,1464,o),
(90,1154,o),
(90,727,cs),
(90,286,o),
(362,-24,o),
(771,-24,cs)
);
}
);
};
layerId = m01;
shapes = (
{
closed = 1;
nodes = (
(1060,-24,o),
(1292,133,o),
(1371,429,c),
(1174,483,l),
(1132,257,o),
(967,124,o),
(758,124,cs),
(470,124,o),
(285,368,o),
(285,721,cs),
(285,1066,o),
(462,1316,o),
(766,1316,cs),
(961,1316,o),
(1111,1207,o),
(1168,970,c),
(1359,1015,l),
(1288,1317,o),
(1055,1464,o),
(769,1464,cs),
(345,1464,o),
(90,1154,o),
(90,727,cs),
(90,286,o),
(362,-24,o),
(771,-24,cs)
);
}
);
width = 1440;
},
{
anchors = (
{
name = bottom;
pos = (756,0);
},
{
name = top;
pos = (782,1440);
}
);
background = {
anchors = (
{
name = bottom;
pos = (756,0);
},
{
name = top;
pos = (782,1440);
}
);
shapes = (
{
closed = 1;
nodes = (
(1130,-28,o),
(1377,151,o),
(1455,455,c),
(1037,530,l),
(994,394,o),
(911,321,o),
(776,321,cs),
(584,321,o),
(478,465,o),
(478,720,cs),
(478,974,o),
(584,1118,o),
(776,1118,cs),
(924,1118,o),
(1022,1032,o),
(1048,873,c),
(1459,968,l),
(1386,1282,o),
(1135,1468,o),
(776,1468,cs),
(329,1468,o),
(52,1180,o),
(52,720,cs),
(52,259,o),
(329,-28,o),
(776,-28,cs)
);
}
);
};
layerId = m002;
shapes = (
{
closed = 1;
nodes = (
(1130,-28,o),
(1377,151,o),
(1455,455,c),
(1037,530,l),
(994,394,o),
(911,321,o),
(776,321,cs),
(584,321,o),
(478,465,o),
(478,720,cs),
(478,974,o),
(584,1118,o),
(776,1118,cs),
(924,1118,o),
(1022,1032,o),
(1048,873,c),
(1459,968,l),
(1386,1282,o),
(1135,1468,o),
(776,1468,cs),
(329,1468,o),
(52,1180,o),
(52,720,cs),
(52,259,o),
(329,-28,o),
(776,-28,cs)
);
}
);
width = 1491;
}
);
tags = (
overshot
);
unicode = 67;
userData = {
KernOnName = C;
};
},
{
glyphname = D;
kernLeft = H;
kernRight = O;
layers = (
{
anchors = (
{
name = bottom;
pos = (640,0);
},
{
name = center;
pos = (344,720);
},
{
name = top;
pos = (690,1440);
}
);
background = {
anchors = (
{
name = bottom;
pos = (640,0);
},
{
name = center;
pos = (344,720);
},
{
name = top;
pos = (690,1440);
}
);
shapes = (
{
closed = 1;
nodes = (
(586,0,ls),
(1042,0,o),
(1334,234,o),
(1334,730,cs),
(1334,1168,o),
(1107,1440,o),
(599,1440,cs),
(164,1440,l),
(164,0,l)
);
},
{
closed = 1;
nodes = (
(344,1292,l),
(581,1292,ls),
(980,1292,o),
(1139,1070,o),
(1139,720,cs),
(1139,341,o),
(950,148,o),
(568,148,cs),
(344,148,l)
);
}
);
};
layerId = m01;
shapes = (
{
closed = 1;
nodes = (
(586,0,ls),
(1042,0,o),
(1334,234,o),
(1334,730,cs),
(1334,1168,o),
(1107,1440,o),
(599,1440,cs),
(164,1440,l),
(164,0,l)
);
},
{
closed = 1;
nodes = (
(344,1292,l),
(581,1292,ls),
(980,1292,o),
(1139,1070,o),
(1139,720,cs),
(1139,341,o),
(950,148,o),
(568,148,cs),
(344,148,l)
);
}
);
width = 1427;
},
{
anchors = (
{
name = bottom;
pos = (806,0);
},
{
name = center;
pos = (391,720);
},
{
name = top;
pos = (714,1440);
}
);
background = {
anchors = (
{
name = bottom;
pos = (806,0);
},
{
name = center;
pos = (391,720);
},
{
name = top;
pos = (714,1440);
}
);
shapes = (
{
closed = 1;
nodes = (
(764,0,ls),
(1290,0,o),
(1516,257,o),
(1516,720,cs),
(1516,1183,o),
(1290,1440,o),
(764,1440,cs),
(125,1440,l),
(125,0,l)
);
},
{
closed = 1;
nodes = (
(535,1090,l),
(720,1090,ls),
(963,1090,o),
(1090,963,o),
(1090,720,cs),
(1090,477,o),
(963,350,o),
(720,350,cs),
(535,350,l)
);
}
);
};
layerId = m002;
shapes = (
{
closed = 1;
nodes = (
(764,0,ls),
(1290,0,o),
(1516,257,o),
(1516,720,cs),
(1516,1183,o),
(1290,1440,o),
(764,1440,cs),
(125,1440,l),
(125,0,l)
);
},
{
closed = 1;
nodes = (
(535,1090,l),
(720,1090,ls),
(963,1090,o),
(1090,963,o),
(1090,720,cs),
(1090,477,o),
(963,350,o),
(720,350,cs),
(535,350,l)
);
}
);
width = 1572;
}
);
unicode = 68;
userData = {
KernOnName = D;
};
},
{
glyphname = E;
kernLeft = H;
kernRight = E;
layers = (
{
anchors = (
{
name = bottom;
pos = (652,0);
},
{
name = ogonek;
pos = (1127,0);
},
{
name = top;
pos = (667,1440);
},
{
name = topleft;
pos = (4,1440);
}
);
background = {
anchors = (
{
name = bottom;
pos = (652,0);
},
{
name = ogonek;
pos = (1127,0);
},
{
name = top;
pos = (667,1440);
},
{
name = topleft;
pos = (4,1440);
}
);
shapes = (
{
closed = 1;
nodes = (
(1127,0,l),
(1127,148,l),
(344,148,l),
(344,692,l),
(1017,692,l),
(1017,840,l),
(344,840,l),
(344,1292,l),
(1113,1292,l),
(1113,1440,l),
(164,1440,l),
(164,0,l)
);
}
);
};
layerId = m01;
shapes = (
{
closed = 1;
nodes = (
(1127,0,l),
(1127,148,l),
(344,148,l),
(344,692,l),
(1017,692,l),
(1017,840,l),
(344,840,l),
(344,1292,l),
(1113,1292,l),
(1113,1440,l),
(164,1440,l),
(164,0,l)
);
}
);
width = 1199;
},
{
anchors = (
{
name = bottom;
pos = (652,0);
},
{
name = ogonek;
pos = (1208,0);
},
{
name = top;
pos = (663,1440);
},
{
name = topleft;
pos = (70,1440);
}
);
background = {
anchors = (
{
name = bottom;
pos = (652,0);
},
{
name = ogonek;
pos = (1208,0);
},
{
name = top;
pos = (663,1440);
},
{
name = topleft;
pos = (70,1440);
}
);
shapes = (
{
closed = 1;
nodes = (
(1208,0,l),
(1208,350,l),
(535,350,l),
(535,585,l),
(1078,585,l),
(1078,915,l),
(535,915,l),
(535,1090,l),
(1194,1090,l),
(1194,1440,l),
(125,1440,l),
(125,0,l)
);
}
);
};
layerId = m002;
shapes = (
{
closed = 1;
nodes = (
(1208,0,l),
(1208,350,l),
(535,350,l),
(535,585,l),
(1078,585,l),
(1078,915,l),
(535,915,l),
(535,1090,l),
(1194,1090,l),
(1194,1440,l),
(125,1440,l),
(125,0,l)
);
}
);
width = 1273;
}
);
unicode = 69;
userData = {
KernOnName = E;
KernOnSpecialSpacing = {
};
};
},
{
glyphname = Schwa;
layers = (
{
background = {
shapes = (
{
closed = 1;
nodes = (
(1111,-23,o),
(1341,267,o),
(1341,723,cs),
(1341,1176,o),
(1114,1463,o),
(713,1463,cs),
(417,1463,o),
(232,1311,o),
(130,1083,c),
(289,1016,l),
(356,1220,o),
(506,1324,o),
(711,1324,cs),
(1000,1324,o),
(1170,1110,o),
(1170,724,cs),
(1170,330,o),
(996,123,o),
(726,123,cs),
(495,123,o),
(296,279,o),
(296,690,c),
(222,683,l),
(222,614,l),
(1246,614,l),
(1246,762,l),
(97,762,l),
(97,147,o),
(427,-23,o),
(725,-23,cs)
);
}
);
};
layerId = m01;
shapes = (
{
closed = 1;
nodes = (
(1111,-23,o),
(1341,267,o),
(1341,723,cs),
(1341,1176,o),
(1114,1463,o),
(713,1463,cs),
(417,1463,o),
(232,1311,o),
(130,1083,c),
(289,1016,l),
(356,1220,o),
(506,1324,o),
(711,1324,cs),
(1000,1324,o),
(1170,1110,o),
(1170,724,cs),
(1170,330,o),
(996,123,o),
(726,123,cs),
(495,123,o),
(296,279,o),
(296,690,c),
(222,683,l),
(222,614,l),
(1246,614,l),
(1246,762,l),
(97,762,l),
(97,147,o),
(427,-23,o),
(725,-23,cs)
);
}
);
userData = {
RMXScaler = {
height = 132;
width = 132;
};
};
width = 1432;
},
{
background = {
shapes = (
{
closed = 1;
nodes = (
(1178,-28,o),
(1501,262,o),
(1501,718,cs),
(1501,1180,o),
(1168,1468,o),
(748,1468,cs),
(474,1468,o),
(183,1345,o),
(81,1039,c),
(464,944,l),
(518,1089,o),
(617,1157,o),
(751,1157,cs),
(961,1157,o),
(1057,987,o),
(1057,720,cs),
(1057,455,o),
(962,266,o),
(761,266,cs),
(610,266,o),
(495,372,o),
(474,639,c),
(430,619,l),
(436,531,l),
(1227,531,l),
(1227,824,l),
(55,824,l),
(55,134,o),
(433,-28,o),
(749,-28,cs)
);
}
);
};
layerId = m002;
shapes = (
{
closed = 1;
nodes = (
(1178,-28,o),
(1501,262,o),
(1501,718,cs),
(1501,1180,o),
(1168,1468,o),
(748,1468,cs),
(474,1468,o),
(183,1345,o),
(81,1039,c),
(464,944,l),
(518,1089,o),
(617,1157,o),
(751,1157,cs),
(961,1157,o),
(1057,987,o),
(1057,720,cs),
(1057,455,o),
(962,266,o),
(761,266,cs),
(610,266,o),
(495,372,o),
(474,639,c),
(430,619,l),
(436,531,l),
(1227,531,l),
(1227,824,l),
(55,824,l),
(55,134,o),
(433,-28,o),
(749,-28,cs)
);
}
);
userData = {
RMXScaler = {
height = 132;
width = 132;
};
};
width = 1552;
}
);
unicode = 399;
userData = {
RMXScaler = {
source = e;
};
};
},
{
glyphname = F;
kernLeft = H;
kernRight = F;
layers = (
{
background = {
shapes = (
{
closed = 1;
nodes = (
(344,0,l),
(344,700,l),
(1013,700,l),
(1013,848,l),
(344,848,l),
(344,1292,l),
(1087,1292,l),
(1087,1440,l),
(164,1440,l),
(164,0,l)
);
}
);
};
layerId = m01;
shapes = (
{
closed = 1;
nodes = (
(344,0,l),
(344,700,l),
(1013,700,l),
(1013,848,l),
(344,848,l),
(344,1292,l),
(1087,1292,l),
(1087,1440,l),
(164,1440,l),
(164,0,l)
);
}
);
width = 1148;
},
{
background = {
shapes = (
{
closed = 1;
nodes = (
(535,0,l),
(535,535,l),
(1098,535,l),
(1098,885,l),
(535,885,l),
(535,1090,l),
(1194,1090,l),
(1194,1440,l),
(125,1440,l),
(125,0,l)
);
}
);
};
layerId = m002;
shapes = (
{
closed = 1;
nodes = (
(535,0,l),
(535,535,l),
(1098,535,l),
(1098,885,l),
(535,885,l),
(535,1090,l),
(1194,1090,l),
(1194,1440,l),
(125,1440,l),
(125,0,l)
);
}
);
width = 1235;
}
);
unicode = 70;
userData = {
KernOnName = F;
};
},
{
glyphname = G;
kernLeft = O;
kernRight = G;
layers = (
{
anchors = (
{
name = bottom;
pos = (781,0);
},
{
name = top;
pos = (761,1440);
}
);
background = {
anchors = (
{
name = bottom;
pos = (781,0);
},
{
name = top;
pos = (761,1440);
}
);
shapes = (
{
closed = 1;
nodes = (
(967,-24,o),
(1204,11,o),
(1359,232,c),
(1359,736,l),
(707,736,l),
(707,584,l),
(1242,584,l),
(1191,636,l),
(1191,289,l),
(1088,161,o),
(938,124,o),
(790,124,cs),
(428,124,o),
(286,386,o),
(286,709,cs),
(286,1072,o),
(466,1316,o),
(768,1316,cs),
(967,1316,o),
(1120,1211,o),
(1165,977,c),
(1361,1022,l),
(1292,1320,o),
(1059,1464,o),
(769,1464,cs),
(343,1464,o),
(91,1158,o),
(91,718,cs),
(91,287,o),
(331,-24,o),
(805,-24,cs)
);
}
);
};
layerId = m01;
shapes = (
{
closed = 1;
nodes = (
(967,-24,o),
(1204,11,o),
(1359,232,c),
(1359,736,l),
(707,736,l),
(707,584,l),
(1242,584,l),
(1191,636,l),
(1191,289,l),
(1088,161,o),
(938,124,o),
(790,124,cs),
(428,124,o),
(286,386,o),
(286,709,cs),
(286,1072,o),
(466,1316,o),
(768,1316,cs),
(967,1316,o),
(1120,1211,o),
(1165,977,c),
(1361,1022,l),
(1292,1320,o),
(1059,1464,o),
(769,1464,cs),
(343,1464,o),
(91,1158,o),
(91,718,cs),
(91,287,o),
(331,-24,o),
(805,-24,cs)
);
}
);
width = 1470;
},
{
anchors = (
{
name = bottom;
pos = (779,0);
},
{
name = top;
pos = (783,1440);
}
);
background = {
anchors = (
{
name = bottom;
pos = (779,0);
},
{
name = top;
pos = (783,1440);
}
);
shapes = (
{
closed = 1;
nodes = (
(961,-28,o),
(1242,7,o),
(1440,210,c),
(1440,825,l),
(686,825,l),
(686,498,l),
(1210,498,l),
(1046,595,l),
(1046,398,l),
(976,336,o),
(872,323,o),
(801,323,cs),
(553,323,o),
(478,480,o),
(478,707,cs),
(478,970,o),
(579,1118,o),
(780,1118,cs),
(907,1118,o),
(993,1059,o),
(1031,931,c),
(1440,1031,l),
(1343,1330,o),
(1085,1468,o),
(775,1468,cs),
(313,1468,o),
(52,1160,o),
(52,710,cs),
(52,260,o),
(313,-28,o),
(794,-28,cs)
);
}
);
};
layerId = m002;
name = "800";
shapes = (
{
closed = 1;
nodes = (
(961,-28,o),
(1242,7,o),
(1440,210,c),
(1440,825,l),
(686,825,l),
(686,498,l),
(1210,498,l),
(1046,595,l),
(1046,398,l),
(976,336,o),
(872,323,o),
(801,323,cs),
(553,323,o),
(478,480,o),
(478,707,cs),
(478,970,o),
(579,1118,o),
(780,1118,cs),
(907,1118,o),
(993,1059,o),
(1031,931,c),
(1440,1031,l),
(1343,1330,o),
(1085,1468,o),
(775,1468,cs),
(313,1468,o),
(52,1160,o),
(52,710,cs),
(52,260,o),
(313,-28,o),
(794,-28,cs)
);
}
);
width = 1516;
}
);
tags = (
overshot
);
unicode = 71;
userData = {
KernOnName = G;
};
},
{
glyphname = H;
kernLeft = H;
kernRight = H;
layers = (
{
anchors = (
{
name = bottom;
pos = (737,0);
},
{
name = center;
pos = (737,720);
},
{
name = top;
pos = (737,1440);
},
{
name = topleft;
pos = (4,1440);
}
);
background = {
anchors = (
{
name = bottom;
pos = (737,0);
},
{
name = center;
pos = (737,720);
},
{
name = top;
pos = (737,1440);
},
{
name = topleft;
pos = (4,1440);
}
);
shapes = (
{
closed = 1;
nodes = (
(344,0,l),
(344,670,l),
(1130,670,l),
(1130,0,l),
(1310,0,l),
(1310,1440,l),
(1130,1440,l),
(1130,818,l),
(344,818,l),
(344,1440,l),
(164,1440,l),
(164,0,l)
);
}
);
};
layerId = m01;
shapes = (
{
closed = 1;
nodes = (
(344,0,l),
(344,670,l),
(1130,670,l),
(1130,0,l),
(1310,0,l),
(1310,1440,l),
(1130,1440,l),
(1130,818,l),
(344,818,l),
(344,1440,l),
(164,1440,l),
(164,0,l)
);
}
);
width = 1474;
},
{
anchors = (
{
name = bottom;
pos = (798,0);
},
{
name = center;
pos = (798,720);
},
{
name = top;
pos = (798,1440);
},
{
name = topleft;
pos = (70,1440);
}
);
background = {
anchors = (
{
name = bottom;
pos = (798,0);
},
{
name = center;
pos = (798,720);
},
{
name = top;
pos = (798,1440);
},
{
name = topleft;
pos = (70,1440);
}
);
shapes = (
{
closed = 1;
nodes = (
(535,0,l),
(535,530,l),
(1061,530,l),
(1061,0,l),
(1471,0,l),
(1471,1440,l),
(1061,1440,l),
(1061,880,l),
(535,880,l),
(535,1440,l),
(125,1440,l),
(125,0,l)
);
}
);
};
layerId = m002;
shapes = (
{
closed = 1;
nodes = (
(535,0,l),
(535,530,l),
(1061,530,l),
(1061,0,l),
(1471,0,l),
(1471,1440,l),
(1061,1440,l),
(1061,880,l),
(535,880,l),
(535,1440,l),
(125,1440,l),
(125,0,l)
);
}
);
width = 1596;
}
);
unicode = 72;
userData = {
KernOnName = H;
};
},
{
glyphname = I;
kernLeft = I;
kernRight = I;
layers = (
{
anchors = (
{
name = bottom;
pos = (362,0);
},
{
name = ogonek;
pos = (643,0);
},
{
name = top;
pos = (362,1440);
},
{
name = topleft;
pos = (21,1440);
}
);
background = {
anchors = (
{
name = bottom;
pos = (362,0);
},
{
name = ogonek;
pos = (643,0);
},
{
name = top;
pos = (362,1440);
},
{
name = topleft;
pos = (21,1440);
}
);
shapes = (
{
closed = 1;
nodes = (
(643,0,l),
(643,140,l),
(452,140,l),
(452,1300,l),
(643,1300,l),
(643,1440,l),
(81,1440,l),
(81,1300,l),
(272,1300,l),
(272,140,l),
(81,140,l),
(81,0,l)
);
}
);
};
layerId = m01;
shapes = (
{
closed = 1;
nodes = (
(643,0,l),
(643,140,l),
(452,140,l),
(452,1300,l),
(643,1300,l),
(643,1440,l),
(81,1440,l),
(81,1300,l),
(272,1300,l),
(272,140,l),
(81,140,l),
(81,0,l)
);
}
);
width = 724;
},
{
anchors = (
{
name = bottom;
pos = (495,0);
},
{
name = ogonek;
pos = (906,0);
},
{
name = top;
pos = (495,1440);
},
{
name = topleft;
pos = (39,1440);
}
);
background = {
anchors = (
{
name = bottom;
pos = (495,0);
},
{
name = ogonek;
pos = (906,0);
},
{
name = top;
pos = (495,1440);
},
{
name = topleft;
pos = (39,1440);
}
);
shapes = (
{
closed = 1;
nodes = (
(906,0,l),
(906,345,l),
(700,345,l),
(700,1095,l),
(906,1095,l),
(906,1440,l),
(84,1440,l),
(84,1095,l),
(290,1095,l),
(290,345,l),
(84,345,l),
(84,0,l)
);
}
);
};
layerId = m002;
shapes = (
{
closed = 1;
nodes = (
(906,0,l),
(906,345,l),
(700,345,l),
(700,1095,l),
(906,1095,l),
(906,1440,l),
(84,1440,l),
(84,1095,l),
(290,1095,l),
(290,345,l),
(84,345,l),
(84,0,l)
);
}
);
width = 990;
}
);
unicode = 73;
userData = {
KernOnName = I;
};
},
{
glyphname = J;
kernLeft = J;
kernRight = J;
layers = (
{
anchors = (
{
name = bottom;
pos = (624,0);
},
{
name = top;
pos = (691,1440);
}
);
background = {
anchors = (
{
name = bottom;
pos = (624,0);
},
{
name = top;
pos = (691,1440);
}
);
shapes = (
{
closed = 1;
nodes = (
(859,-28,o),
(1187,30,o),
(1187,487,cs),
(1187,1440,l),
(171,1440,l),
(171,1090,l),
(777,1090,l),
(777,487,ls),
(777,380,o),
(733,307,o),
(612,307,cs),
(492,307,o),
(452,379,o),
(419,530,c),
(16,456,l),
(111,102,o),
(290,-28,o),
(631,-28,cs)
);
}
);
};
layerId = m002;
shapes = (
{
closed = 1;
nodes = (
(859,-28,o),
(1187,30,o),
(1187,487,cs),
(1187,1440,l),
(171,1440,l),
(171,1090,l),
(777,1090,l),
(777,487,ls),
(777,380,o),
(733,307,o),
(612,307,cs),
(492,307,o),
(452,379,o),
(419,530,c),
(16,456,l),
(111,102,o),
(290,-28,o),
(631,-28,cs)
);
}
);
width = 1290;
},
{
anchors = (
{
name = bottom;
pos = (540,0);
},
{
name = top;
pos = (606,1440);
}
);
background = {
anchors = (
{
name = bottom;
pos = (540,0);
},
{
name = top;
pos = (606,1440);
}
);
shapes = (
{
closed = 1;
nodes = (
(796,-24,o),
(951,126,o),
(951,407,cs),
(951,1440,l),
(246,1440,l),
(246,1292,l),
(771,1292,l),
(771,407,ls),
(771,204,o),
(687,124,o),
(523,124,cs),
(342,124,o),
(266,221,o),
(245,406,c),
(54,350,l),
(92,115,o),
(254,-24,o),
(520,-24,cs)
);
}
);
};
layerId = m01;
name = "400";
shapes = (
{
closed = 1;
nodes = (
(796,-24,o),
(951,126,o),
(951,407,cs),
(951,1440,l),
(246,1440,l),
(246,1292,l),
(771,1292,l),
(771,407,ls),
(771,204,o),
(687,124,o),
(523,124,cs),
(342,124,o),
(266,221,o),
(245,406,c),
(54,350,l),
(92,115,o),
(254,-24,o),
(520,-24,cs)
);
}
);
width = 1098;
}
);
tags = (
overshot
);
unicode = 74;
userData = {
KernOnName = J;
};
},
{
glyphname = K;
kernLeft = H;
kernRight = K;
layers = (
{
anchors = (
{
name = bottom;
pos = (666,0);
},
{
name = top;
pos = (666,1440);
}
);
background = {
anchors = (
{
name = bottom;
pos = (666,0);
},
{
name = top;
pos = (666,1440);
}
);
shapes = (
{
closed = 1;
nodes = (
(344,0,l),
(344,537,l),
(600,781,l),
(1084,0,l),
(1302,0,l),
(738,913,l),
(1290,1440,l),
(1045,1440,l),
(344,772,l),
(344,1440,l),
(164,1440,l),
(164,0,l)
);
}
);
};
layerId = m01;
shapes = (
{
closed = 1;
nodes = (
(344,0,l),
(344,537,l),
(600,781,l),
(1084,0,l),
(1302,0,l),
(738,913,l),
(1290,1440,l),
(1045,1440,l),
(344,772,l),
(344,1440,l),
(164,1440,l),
(164,0,l)
);
}
);
width = 1351;
},
{
anchors = (
{
name = bottom;
pos = (822,0);
},
{
name = top;
pos = (822,1440);
}
);
background = {
anchors = (
{
name = bottom;
pos = (822,0);
},
{
name = top;
pos = (822,1440);
}
);
shapes = (
{
closed = 1;
nodes = (
(535,0,l),
(535,425,l),
(739,637,l),
(1123,0,l),
(1587,0,l),
(1012,909,l),
(1529,1440,l),
(1041,1440,l),
(535,913,l),
(535,1440,l),
(125,1440,l),
(125,0,l)
);
}
);
};
layerId = m002;
shapes = (
{
closed = 1;
nodes = (
(535,0,l),
(535,425,l),
(739,637,l),
(1123,0,l),
(1587,0,l),
(1012,909,l),
(1529,1440,l),
(1041,1440,l),
(535,913,l),
(535,1440,l),
(125,1440,l),
(125,0,l)
);
}
);
width = 1594;
}
);
unicode = 75;
userData = {
KernOnName = K;
};
},
{
glyphname = L;
kernLeft = H;
kernRight = L;
layers = (
{
anchors = (
{
name = bottom;
pos = (614,0);
},
{
name = center;
pos = (260,720);
},
{
name = centerExt;
pos = (791,720);
},
{
name = top;
pos = (254,1440);
},
{
name = topright;
pos = (1104,1440);
}
);
background = {
anchors = (
{
name = bottom;
pos = (614,0);
},
{
name = center;
pos = (260,720);
},
{
name = centerExt;
pos = (791,720);
},
{
name = top;
pos = (254,1440);
},
{
name = topright;
pos = (1104,1440);
}
);
shapes = (
{
closed = 1;
nodes = (
(1064,0,l),
(1064,148,l),
(344,148,l),
(344,1440,l),
(164,1440,l),
(164,0,l)
);
}
);
};
guides = (
{
angle = 90;
pos = (254,1362);
}
);
layerId = m01;
shapes = (
{
closed = 1;
nodes = (
(1064,0,l),
(1064,148,l),
(344,148,l),
(344,1440,l),
(164,1440,l),
(164,0,l)
);
}
);
width = 1117;
},
{
anchors = (
{
name = bottom;
pos = (654,0);
},
{
name = center;
pos = (344,721);
},
{
name = centerExt;
pos = (929,720);
},
{
name = top;
pos = (330,1440);
},
{
name = topright;
pos = (1222,1440);
}
);
background = {
anchors = (
{
name = bottom;
pos = (654,0);
},
{
name = center;
pos = (344,721);
},
{
name = centerExt;
pos = (929,720);
},
{
name = top;
pos = (330,1440);
},
{
name = topright;
pos = (1222,1440);
}
);
shapes = (
{
closed = 1;
nodes = (
(1208,0,l),
(1208,350,l),
(535,350,l),
(535,1440,l),
(125,1440,l),
(125,0,l)
);
}
);
};
guides = (
{
angle = 90;
pos = (330,1362);
}
);
layerId = m002;
shapes = (
{
closed = 1;
nodes = (
(1208,0,l),
(1208,350,l),
(535,350,l),
(535,1440,l),
(125,1440,l),
(125,0,l)
);
}
);
width = 1240;
}
);
unicode = 76;
userData = {
KernOnName = L;
};
},
{
glyphname = M;
kernLeft = M;
kernRight = M;
layers = (
{
background = {
shapes = (
{
closed = 1;
nodes = (
(298,0,l),
(368,1304,l),
(365,1304,l),
(790,0,l),
(990,0,l),
(1413,1304,l),
(1410,1304,l),
(1480,0,l),
(1654,0,l),
(1574,1440,l),
(1278,1440,l),
(868,130,l),
(908,130,l),
(500,1440,l),
(204,1440,l),
(124,0,l)
);
}
);
};
layerId = m01;
shapes = (
{
closed = 1;
nodes = (
(298,0,l),
(368,1304,l),
(365,1304,l),
(790,0,l),
(990,0,l),
(1413,1304,l),
(1410,1304,l),
(1480,0,l),
(1654,0,l),
(1574,1440,l),
(1278,1440,l),
(868,130,l),
(908,130,l),
(500,1440,l),
(204,1440,l),
(124,0,l)
);
}
);
width = 1778;
},
{
background = {
shapes = (
{
closed = 1;
nodes = (
(485,0,l),
(545,1154,l),
(542,1154,l),
(753,0,l),
(1270,0,l),
(1482,1154,l),
(1479,1154,l),
(1539,0,l),
(1939,0,l),
(1859,1440,l),
(1195,1440,l),
(995,270,l),
(1028,270,l),
(828,1440,l),
(165,1440,l),
(85,0,l)
);
}
);
};
layerId = m002;
shapes = (
{
closed = 1;
nodes = (
(485,0,l),
(545,1154,l),
(542,1154,l),
(753,0,l),
(1270,0,l),
(1482,1154,l),
(1479,1154,l),
(1539,0,l),
(1939,0,l),
(1859,1440,l),
(1195,1440,l),
(995,270,l),
(1028,270,l),
(828,1440,l),
(165,1440,l),
(85,0,l)
);
}
);
width = 2024;
}
);
unicode = 77;
userData = {
KernOnName = M;
};
},
{
glyphname = N;
kernLeft = H;
kernRight = H;
layers = (
{
anchors = (
{
name = bottom;
pos = (746,0);
},
{
name = bottomLeft;
pos = (164,0);
},
{
name = bottomRight;
pos = (1328,0);
},
{
name = top;
pos = (746,1440);
}
);
background = {
anchors = (
{
name = bottom;
pos = (746,0);
},
{
name = bottomLeft;
pos = (164,0);
},
{
name = bottomRight;
pos = (1328,0);
},
{
name = top;
pos = (746,1440);
}
);
shapes = (
{
closed = 1;
nodes = (
(338,0,l),
(338,1301,l),
(307,1294,l),
(1098,0,l),
(1328,0,l),
(1328,1440,l),
(1154,1440,l),
(1154,147,l),
(1185,153,l),
(414,1440,l),
(164,1440,l),
(164,0,l)
);
}
);
};
layerId = m01;
shapes = (
{
closed = 1;
nodes = (
(338,0,l),
(338,1301,l),
(307,1294,l),
(1098,0,l),
(1328,0,l),
(1328,1440,l),
(1154,1440,l),
(1154,147,l),
(1185,153,l),
(414,1440,l),
(164,1440,l),
(164,0,l)
);
}
);
width = 1492;
},
{
anchors = (
{
name = bottom;
pos = (817,0);
},
{
name = bottomLeft;
pos = (125,0);
},
{
name = bottomRight;
pos = (1509,0);
},
{
name = top;
pos = (817,1440);
}
);
background = {
anchors = (
{
name = bottom;
pos = (817,0);
},
{
name = bottomLeft;
pos = (125,0);
},
{
name = bottomRight;
pos = (1509,0);
},
{
name = top;
pos = (817,1440);
}
);
shapes = (
{
closed = 1;
nodes = (
(515,0,l),
(515,1301,l),
(358,1294,l),
(918,0,l),
(1509,0,l),
(1509,1440,l),
(1119,1440,l),
(1119,147,l),
(1266,153,l),
(719,1440,l),
(125,1440,l),
(125,0,l)
);
}
);
};
layerId = m002;
shapes = (
{
closed = 1;
nodes = (
(515,0,l),
(515,1301,l),
(358,1294,l),
(918,0,l),
(1509,0,l),
(1509,1440,l),
(1119,1440,l),
(1119,147,l),
(1266,153,l),
(719,1440,l),
(125,1440,l),
(125,0,l)
);
}
);
width = 1634;
}
);
unicode = 78;
userData = {
KernOnName = N;
};
},
{
glyphname = O;
kernLeft = O;
kernRight = O;
layers = (
{
anchors = (
{
name = bottom;
pos = (788,0);
},
{
name = center;
pos = (788,720);
},
{
name = ogonek;
pos = (988,0);
},
{
name = top;
pos = (788,1440);
},
{
name = topleft;
pos = (-4,1440);
},
{
name = topright;
pos = (1580,1440);
}
);
background = {
anchors = (
{
name = bottom;
pos = (788,0);
},
{
name = center;
pos = (788,720);
},
{
name = ogonek;
pos = (988,0);
},
{
name = top;
pos = (788,1440);
},
{
name = topleft;
pos = (-4,1440);
},
{
name = topright;
pos = (1580,1440);
}
);
shapes = (
{
closed = 1;
nodes = (
(1218,-24,o),
(1485,261,o),
(1485,720,cs),
(1485,1179,o),
(1218,1464,o),
(788,1464,cs),
(358,1464,o),
(91,1179,o),
(91,720,cs),
(91,261,o),
(358,-24,o),
(788,-24,cs)
);
},
{
closed = 1;
nodes = (
(479,124,o),
(286,353,o),
(286,720,cs),
(286,1087,o),
(479,1316,o),
(788,1316,cs),
(1097,1316,o),
(1290,1087,o),
(1290,720,cs),
(1290,353,o),
(1097,124,o),
(788,124,cs)
);
}
);
};
layerId = m01;
shapes = (
{
closed = 1;
nodes = (
(1218,-24,o),
(1485,261,o),
(1485,720,cs),
(1485,1179,o),
(1218,1464,o),
(788,1464,cs),
(358,1464,o),
(91,1179,o),
(91,720,cs),
(91,261,o),
(358,-24,o),
(788,-24,cs)
);
},
{
closed = 1;
nodes = (
(479,124,o),
(286,353,o),
(286,720,cs),
(286,1087,o),
(479,1316,o),
(788,1316,cs),
(1097,1316,o),
(1290,1087,o),
(1290,720,cs),
(1290,353,o),
(1097,124,o),
(788,124,cs)
);
}
);
width = 1576;
},
{
anchors = (
{
name = bottom;
pos = (785,-12);
},
{
name = center;
pos = (785,720);
},
{
name = ogonek;
pos = (1010,0);
},
{
name = top;
pos = (785,1440);
},
{
name = topleft;
pos = (26,1440);
},
{
name = topright;
pos = (1544,1440);
}
);
background = {
anchors = (
{
name = bottom;
pos = (785,-12);
},
{
name = center;
pos = (785,720);
},
{
name = ogonek;
pos = (1010,0);
},
{
name = top;
pos = (785,1440);
},
{
name = topleft;
pos = (26,1440);
},
{
name = topright;
pos = (1544,1440);
}
);
shapes = (
{
closed = 1;
nodes = (
(1238,-28,o),
(1519,258,o),
(1519,720,cs),
(1519,1181,o),
(1238,1468,o),
(785,1468,cs),
(332,1468,o),
(51,1181,o),
(51,720,cs),
(51,258,o),
(332,-28,o),
(785,-28,cs)
);
},
{
closed = 1;
nodes = (
(587,322,o),
(477,465,o),
(477,720,cs),
(477,975,o),
(587,1118,o),
(785,1118,cs),
(983,1118,o),
(1093,975,o),
(1093,720,cs),
(1093,465,o),
(983,322,o),
(785,322,cs)
);
}
);
};
layerId = m002;
shapes = (
{
closed = 1;
nodes = (
(1238,-28,o),
(1519,258,o),
(1519,720,cs),
(1519,1181,o),
(1238,1468,o),
(785,1468,cs),
(332,1468,o),
(51,1181,o),
(51,720,cs),
(51,258,o),
(332,-28,o),
(785,-28,cs)
);
},
{
closed = 1;
nodes = (
(587,322,o),
(477,465,o),
(477,720,cs),
(477,975,o),
(587,1118,o),
(785,1118,cs),
(983,1118,o),
(1093,975,o),
(1093,720,cs),
(1093,465,o),
(983,322,o),
(785,322,cs)
);
}
);
width = 1570;
}
);
tags = (
overshot
);
unicode = 79;
userData = {
KernOnName = O;
};
},
{
glyphname = OE;
kernLeft = O;
kernRight = E;
layers = (
{
background = {
shapes = (
{
closed = 1;
nodes = (
(1036,-24,o),
(1217,85,o),
(1314,270,c),
(1290,304,l),
(1290,0,l),
(2253,0,l),
(2253,148,l),
(1470,148,l),
(1470,692,l),
(2143,692,l),
(2143,840,l),
(1470,840,l),
(1470,1292,l),
(2239,1292,l),
(2239,1440,l),
(1290,1440,l),
(1290,1136,l),
(1314,1172,l),
(1219,1349,o),
(1028,1464,o),
(771,1464,cs),
(366,1464,o),
(91,1179,o),
(91,719,cs),
(91,261,o),
(363,-24,o),
(779,-24,cs)
);
},
{
closed = 1;
nodes = (
(479,124,o),
(286,353,o),
(286,720,cs),
(286,1087,o),
(479,1316,o),
(788,1316,cs),
(1097,1316,o),
(1290,1087,o),
(1290,720,cs),
(1290,353,o),
(1097,124,o),
(788,124,cs)
);
}
);
};
layerId = m01;
shapes = (
{
closed = 1;
nodes = (
(1036,-24,o),
(1217,85,o),
(1314,270,c),
(1290,304,l),
(1290,0,l),
(2253,0,l),
(2253,148,l),
(1470,148,l),
(1470,692,l),
(2143,692,l),
(2143,840,l),
(1470,840,l),
(1470,1292,l),
(2239,1292,l),
(2239,1440,l),
(1290,1440,l),
(1290,1136,l),
(1314,1172,l),
(1219,1349,o),
(1028,1464,o),
(771,1464,cs),
(366,1464,o),
(91,1179,o),
(91,719,cs),
(91,261,o),
(363,-24,o),
(779,-24,cs)
);
},
{
closed = 1;
nodes = (
(479,124,o),
(286,353,o),
(286,720,cs),
(286,1087,o),
(479,1316,o),
(788,1316,cs),
(1097,1316,o),
(1290,1087,o),
(1290,720,cs),
(1290,353,o),
(1097,124,o),
(788,124,cs)
);
}
);
width = 2327;
},
{
background = {
shapes = (
{
closed = 1;
nodes = (
(951,-28,o),
(1172,124,o),
(1172,324,c),
(1124,327,l),
(1124,0,l),
(2197,0,l),
(2197,350,l),
(1534,350,l),
(1534,585,l),
(2067,585,l),
(2067,915,l),
(1534,915,l),
(1534,1090,l),
(2183,1090,l),
(2183,1440,l),
(1124,1440,l),
(1124,1103,l),
(1173,1103,l),
(1173,1347,o),
(943,1468,o),
(705,1468,cs),
(338,1468,o),
(52,1181,o),
(52,717,cs),
(52,257,o),
(334,-28,o),
(691,-28,cs)
);
},
{
closed = 1;
nodes = (
(594,322,o),
(478,465,o),
(478,720,cs),
(478,975,o),
(594,1118,o),
(792,1118,cs),
(990,1118,o),
(1094,975,o),
(1094,720,cs),
(1094,465,o),
(990,322,o),
(792,322,cs)
);
}
);
};
layerId = m002;
shapes = (
{
closed = 1;
nodes = (
(951,-28,o),
(1172,124,o),
(1172,324,c),
(1124,327,l),
(1124,0,l),
(2197,0,l),
(2197,350,l),
(1534,350,l),
(1534,585,l),
(2067,585,l),
(2067,915,l),
(1534,915,l),
(1534,1090,l),
(2183,1090,l),
(2183,1440,l),
(1124,1440,l),
(1124,1103,l),
(1173,1103,l),
(1173,1347,o),
(943,1468,o),
(705,1468,cs),
(338,1468,o),
(52,1181,o),
(52,717,cs),
(52,257,o),
(334,-28,o),
(691,-28,cs)
);
},
{
closed = 1;
nodes = (
(594,322,o),
(478,465,o),
(478,720,cs),
(478,975,o),
(594,1118,o),
(792,1118,cs),
(990,1118,o),
(1094,975,o),
(1094,720,cs),
(1094,465,o),
(990,322,o),
(792,322,cs)
);
}
);
width = 2263;
}
);
unicode = 338;
userData = {
KernOnName = OE;
};
},
{
glyphname = P;
kernLeft = H;
kernRight = P;
layers = (
{
background = {
shapes = (
{
closed = 1;
nodes = (
(535,0,l),
(535,539,l),
(843,539,ls),
(1236,539,o),
(1431,688,o),
(1431,989,cs),
(1431,1291,o),
(1257,1440,o),
(906,1440,cs),
(125,1440,l),
(125,0,l)
);
},
{
closed = 1;
nodes = (
(535,1128,l),
(863,1128,ls),
(968,1128,o),
(1026,1078,o),
(1026,989,cs),
(1026,900,o),
(971,851,o),
(872,851,cs),
(535,851,l)
);
}
);
};
layerId = m002;
name = "800";
shapes = (
{
closed = 1;
nodes = (
(535,0,l),
(535,539,l),
(843,539,ls),
(1236,539,o),
(1431,688,o),
(1431,989,cs),
(1431,1291,o),
(1257,1440,o),
(906,1440,cs),
(125,1440,l),
(125,0,l)
);
},
{
closed = 1;
nodes = (
(535,1128,l),
(863,1128,ls),
(968,1128,o),
(1026,1078,o),
(1026,989,cs),
(1026,900,o),
(971,851,o),
(872,851,cs),
(535,851,l)
);
}
);
width = 1469;
},
{
background = {
shapes = (
{
closed = 1;
nodes = (
(344,0,l),
(344,638,l),
(680,638,ls),
(1020,638,o),
(1186,784,o),
(1186,1039,cs),
(1186,1299,o),
(1018,1440,o),
(683,1440,cs),
(164,1440,l),
(164,0,l)
);
},
{
closed = 1;
nodes = (
(344,1292,l),
(683,1292,ls),
(913,1292,o),
(1002,1175,o),
(1002,1036,cs),
(1002,881,o),
(891,786,o),
(683,786,cs),
(344,786,l)
);
}
);
};
layerId = m01;
name = "400";
shapes = (
{
closed = 1;
nodes = (
(344,0,l),
(344,638,l),
(680,638,ls),
(1020,638,o),
(1186,784,o),
(1186,1039,cs),
(1186,1299,o),
(1018,1440,o),
(683,1440,cs),
(164,1440,l),
(164,0,l)
);
},
{
closed = 1;
nodes = (
(344,1292,l),
(683,1292,ls),
(913,1292,o),
(1002,1175,o),
(1002,1036,cs),
(1002,881,o),
(891,786,o),
(683,786,cs),
(344,786,l)
);
}
);
width = 1259;
}
);
unicode = 80;
userData = {
KernOnName = P;
};
},
{
glyphname = Thorn;
kernLeft = H;
layers = (
{
background = {
shapes = (
{
closed = 1;
nodes = (
(344,0,l),
(344,320,l),
(680,320,ls),
(1020,320,o),
(1186,466,o),
(1186,721,cs),
(1186,981,o),
(1018,1122,o),
(683,1122,cs),
(344,1122,l),
(344,1440,l),
(164,1440,l),
(164,0,l)
);
},
{
closed = 1;
nodes = (
(344,974,l),
(683,974,ls),
(913,974,o),
(1002,857,o),
(1002,718,cs),
(1002,563,o),
(891,468,o),
(683,468,cs),
(344,468,l)
);
}
);
};
layerId = m01;
shapes = (
{
closed = 1;
nodes = (
(344,0,l),
(344,320,l),
(680,320,ls),
(1020,320,o),
(1186,466,o),
(1186,721,cs),
(1186,981,o),
(1018,1122,o),
(683,1122,cs),
(344,1122,l),
(344,1440,l),
(164,1440,l),
(164,0,l)
);
},
{
closed = 1;
nodes = (
(344,974,l),
(683,974,ls),
(913,974,o),
(1002,857,o),
(1002,718,cs),
(1002,563,o),
(891,468,o),
(683,468,cs),
(344,468,l)
);
}
);
width = 1259;
},
{
background = {
shapes = (
{
closed = 1;
nodes = (
(535,0,l),
(535,270,l),
(843,270,ls),
(1236,270,o),
(1431,419,o),
(1431,720,cs),
(1431,1022,o),
(1257,1171,o),
(906,1171,cs),
(535,1171,l),
(535,1440,l),
(125,1440,l),
(125,0,l)
);
},
{
closed = 1;
nodes = (
(535,859,l),
(863,859,ls),
(968,859,o),
(1026,809,o),
(1026,720,cs),
(1026,631,o),
(971,582,o),
(872,582,cs),
(535,582,l)
);
}
);
};
layerId = m002;
shapes = (
{
closed = 1;
nodes = (
(535,0,l),
(535,270,l),
(843,270,ls),
(1236,270,o),
(1431,419,o),
(1431,720,cs),
(1431,1022,o),
(1257,1171,o),
(906,1171,cs),
(535,1171,l),
(535,1440,l),
(125,1440,l),
(125,0,l)
);
},
{
closed = 1;
nodes = (
(535,859,l),
(863,859,ls),
(968,859,o),
(1026,809,o),
(1026,720,cs),
(1026,631,o),
(971,582,o),
(872,582,cs),
(535,582,l)
);
}
);
width = 1469;
}
);
unicode = 222;
},
{
glyphname = R;
kernLeft = H;
kernRight = R;
layers = (
{
anchors = (
{
name = bottom;
pos = (636,0);
},
{
name = top;
pos = (636,1440);
}
);
background = {
anchors = (
{
name = bottom;
pos = (636,0);
},
{
name = top;
pos = (636,1440);
}
);
shapes = (
{
closed = 1;
nodes = (
(344,0,l),
(344,679,l),
(710,679,ls),
(1046,679,o),
(1213,806,o),
(1213,1061,cs),
(1213,1314,o),
(1047,1440,o),
(713,1440,cs),
(164,1440,l),
(164,0,l)
);
},
{
closed = 1;
nodes = (
(1213,0,l),
(831,729,l),
(627,729,l),
(1009,0,l)
);
},
{
closed = 1;
nodes = (
(344,1292,l),
(713,1292,ls),
(916,1292,o),
(1029,1208,o),
(1029,1058,cs),
(1029,909,o),
(916,827,o),
(713,827,cs),
(344,827,l)
);
}
);
};
layerId = m01;
shapes = (
{
closed = 1;
nodes = (
(344,0,l),
(344,679,l),
(710,679,ls),
(1046,679,o),
(1213,806,o),
(1213,1061,cs),
(1213,1314,o),
(1047,1440,o),
(713,1440,cs),
(164,1440,l),
(164,0,l)
);
},
{
closed = 1;
nodes = (
(1213,0,l),
(831,729,l),
(627,729,l),
(1009,0,l)
);
},
{
closed = 1;
nodes = (
(344,1292,l),
(713,1292,ls),
(916,1292,o),
(1029,1208,o),
(1029,1058,cs),
(1029,909,o),
(916,827,o),
(713,827,cs),
(344,827,l)
);
}
);
width = 1296;
},
{
anchors = (
{
name = bottom;
pos = (776,0);
},
{
name = top;
pos = (701,1440);
}
);
background = {
anchors = (
{
name = bottom;
pos = (776,0);
},
{
name = top;
pos = (701,1440);
}
);
shapes = (
{
closed = 1;
nodes = (
(535,0,l),
(535,549,l),
(843,549,ls),
(1236,549,o),
(1431,696,o),
(1431,994,cs),
(1431,1293,o),
(1257,1440,o),
(906,1440,cs),
(125,1440,l),
(125,0,l)
);
},
{
closed = 1;
nodes = (
(1471,0,l),
(1023,659,l),
(573,659,l),
(1012,0,l)
);
},
{
closed = 1;
nodes = (
(535,1128,l),
(863,1128,ls),
(968,1128,o),
(1026,1080,o),
(1026,994,cs),
(1026,908,o),
(971,861,o),
(872,861,cs),
(535,861,l)
);
}
);
};
layerId = m002;
shapes = (
{
closed = 1;
nodes = (
(535,0,l),
(535,549,l),
(843,549,ls),
(1236,549,o),
(1431,696,o),
(1431,994,cs),
(1431,1293,o),
(1257,1440,o),
(906,1440,cs),
(125,1440,l),
(125,0,l)
);
},
{
closed = 1;
nodes = (
(1471,0,l),
(1023,659,l),
(573,659,l),
(1012,0,l)
);
},
{
closed = 1;
nodes = (
(535,1128,l),
(863,1128,ls),
(968,1128,o),
(1026,1080,o),
(1026,994,cs),
(1026,908,o),
(971,861,o),
(872,861,cs),
(535,861,l)
);
}
);
width = 1502;
}
);
unicode = 82;
userData = {
KernOnName = R;
};
},
{
glyphname = S;
kernLeft = S;
kernRight = S;
layers = (
{
anchors = (
{
name = bottom;
pos = (635,0);
},
{
name = top;
pos = (666,1440);
}
);
background = {
anchors = (
{
name = bottom;
pos = (635,0);
},
{
name = top;
pos = (666,1440);
}
);
shapes = (
{
closed = 1;
nodes = (
(972,-24,o),
(1165,133,o),
(1165,404,cs),
(1165,674,o),
(974,772,o),
(772,819,cs),
(582,863,ls),
(397,906,o),
(324,969,o),
(324,1084,cs),
(324,1248,o),
(472,1316,o),
(634,1316,cs),
(833,1316,o),
(933,1213,o),
(950,1030,c),
(1161,1074,l),
(1114,1315,o),
(942,1464,o),
(645,1464,cs),
(386,1464,o),
(144,1351,o),
(144,1073,cs),
(144,783,o),
(407,719,o),
(546,688,cs),
(734,646,ls),
(883,613,o),
(975,549,o),
(975,400,cs),
(975,231,o),
(856,124,o),
(649,124,cs),
(420,124,o),
(287,255,o),
(278,491,c),
(64,447,l),
(113,148,o),
(321,-24,o),
(654,-24,cs)
);
}
);
};
layerId = m01;
shapes = (
{
closed = 1;
nodes = (
(972,-24,o),
(1165,133,o),
(1165,404,cs),
(1165,674,o),
(974,772,o),
(772,819,cs),
(582,863,ls),
(397,906,o),
(324,969,o),
(324,1084,cs),
(324,1248,o),
(472,1316,o),
(634,1316,cs),
(833,1316,o),
(933,1213,o),
(950,1030,c),
(1161,1074,l),
(1114,1315,o),
(942,1464,o),
(645,1464,cs),
(386,1464,o),
(144,1351,o),
(144,1073,cs),
(144,783,o),
(407,719,o),
(546,688,cs),
(734,646,ls),
(883,613,o),
(975,549,o),
(975,400,cs),
(975,231,o),
(856,124,o),
(649,124,cs),
(420,124,o),
(287,255,o),
(278,491,c),
(64,447,l),
(113,148,o),
(321,-24,o),
(654,-24,cs)
);
}
);
width = 1255;
},
{
anchors = (
{
name = bottom;
pos = (694,0);
},
{
name = top;
pos = (694,1440);
}
);
background = {
anchors = (
{
name = bottom;
pos = (694,0);
},
{
name = top;
pos = (694,1440);
}
);
shapes = (
{
closed = 1;
nodes = (
(1064,-28,o),
(1338,132,o),
(1338,444,cs),
(1338,727,o),
(1113,840,o),
(901,874,cs),
(784,893,ls),
(643,916,o),
(528,945,o),
(528,1025,cs),
(528,1070,o),
(561,1136,o),
(713,1136,cs),
(868,1136,o),
(904,1068,o),
(925,974,c),
(1323,1057,l),
(1268,1327,o),
(999,1468,o),
(684,1468,cs),
(324,1468,o),
(92,1286,o),
(92,999,cs),
(92,700,o),
(345,607,o),
(592,567,cs),
(704,549,ls),
(815,531,o),
(899,487,o),
(899,414,cs),
(899,368,o),
(870,304,o),
(693,304,cs),
(532,304,o),
(449,358,o),
(437,496,c),
(30,414,l),
(79,98,o),
(386,-28,o),
(703,-28,cs)
);
}
);
};
layerId = m002;
shapes = (
{
closed = 1;
nodes = (
(1064,-28,o),
(1338,132,o),
(1338,444,cs),
(1338,727,o),
(1113,840,o),
(901,874,cs),
(784,893,ls),
(643,916,o),
(528,945,o),
(528,1025,cs),
(528,1070,o),
(561,1136,o),
(713,1136,cs),
(868,1136,o),
(904,1068,o),
(925,974,c),
(1323,1057,l),
(1268,1327,o),
(999,1468,o),
(684,1468,cs),
(324,1468,o),
(92,1286,o),
(92,999,cs),
(92,700,o),
(345,607,o),
(592,567,cs),
(704,549,ls),
(815,531,o),
(899,487,o),
(899,414,cs),
(899,368,o),
(870,304,o),
(693,304,cs),
(532,304,o),
(449,358,o),
(437,496,c),
(30,414,l),
(79,98,o),
(386,-28,o),
(703,-28,cs)
);
}
);
width = 1385;
}
);
tags = (
overshot
);
unicode = 83;
userData = {
KernOnName = S;
};
},
{
glyphname = Germandbls;
layers = (
{
background = {
shapes = (
{
closed = 1;
nodes = (
(1176,-34,o),
(1346,129,o),
(1346,392,cs),
(1346,600,o),
(1213,719,o),
(903,785,c),
(1257,1168,l),
(1257,1302,l),
(1074,1406,o),
(885,1464,o),
(727,1464,cs),
(358,1464,o),
(139,1261,o),
(139,934,cs),
(139,0,l),
(319,0,l),
(319,915,ls),
(319,1157,o),
(463,1298,o),
(722,1298,cs),
(834,1298,o),
(944,1267,o),
(1062,1201,c),
(708,811,l),
(708,668,l),
(829,646,ls),
(1056,605,o),
(1162,527,o),
(1162,391,cs),
(1162,231,o),
(1059,132,o),
(897,132,cs),
(790,132,o),
(688,157,o),
(578,212,c),
(578,32,l),
(680,-11,o),
(795,-34,o),
(903,-34,cs)
);
}
);
};
layerId = m01;
shapes = (
{
closed = 1;
nodes = (
(1176,-34,o),
(1346,129,o),
(1346,392,cs),
(1346,600,o),
(1213,719,o),
(903,785,c),
(1257,1168,l),
(1257,1302,l),
(1074,1406,o),
(885,1464,o),
(727,1464,cs),
(358,1464,o),
(139,1261,o),
(139,934,cs),
(139,0,l),
(319,0,l),
(319,915,ls),
(319,1157,o),
(463,1298,o),
(722,1298,cs),
(834,1298,o),
(944,1267,o),
(1062,1201,c),
(708,811,l),
(708,668,l),
(829,646,ls),
(1056,605,o),
(1162,527,o),
(1162,391,cs),
(1162,231,o),
(1059,132,o),
(897,132,cs),
(790,132,o),
(688,157,o),
(578,212,c),
(578,32,l),
(680,-11,o),
(795,-34,o),
(903,-34,cs)
);
}
);
width = 1421;
},
{
background = {
shapes = (
{
closed = 1;
nodes = (
(1226,-25,o),
(1424,157,o),
(1424,415,cs),
(1424,599,o),
(1328,721,o),
(1131,785,c),
(1355,1099,l),
(1355,1357,l),
(1171,1424,o),
(940,1468,o),
(773,1468,cs),
(340,1468,o),
(97,1248,o),
(97,865,cs),
(97,0,l),
(507,0,l),
(507,816,ls),
(507,1011,o),
(618,1125,o),
(810,1125,cs),
(853,1125,o),
(895,1120,o),
(938,1109,c),
(732,821,l),
(732,574,l),
(853,549,ls),
(950,528,o),
(997,487,o),
(997,418,cs),
(997,343,o),
(948,297,o),
(866,297,cs),
(790,297,o),
(718,317,o),
(613,368,c),
(613,31,l),
(707,-7,o),
(814,-25,o),
(946,-25,cs)
);
}
);
};
layerId = m002;
shapes = (
{
closed = 1;
nodes = (
(1226,-25,o),
(1424,157,o),
(1424,415,cs),
(1424,599,o),
(1328,721,o),
(1131,785,c),
(1355,1099,l),
(1355,1357,l),
(1171,1424,o),
(940,1468,o),
(773,1468,cs),
(340,1468,o),
(97,1248,o),
(97,865,cs),
(97,0,l),
(507,0,l),
(507,816,ls),
(507,1011,o),
(618,1125,o),
(810,1125,cs),
(853,1125,o),
(895,1120,o),
(938,1109,c),
(732,821,l),
(732,574,l),
(853,549,ls),
(950,528,o),
(997,487,o),
(997,418,cs),
(997,343,o),
(948,297,o),
(866,297,cs),
(790,297,o),
(718,317,o),
(613,368,c),
(613,31,l),
(707,-7,o),
(814,-25,o),
(946,-25,cs)
);
}
);
width = 1469;
}
);
unicode = 7838;
},
{
glyphname = T;
kernLeft = T;
kernRight = T;
layers = (
{
anchors = (
{
name = bottom;
pos = (659,0);
},
{
name = center;
pos = (659,720);
},
{
name = top;
pos = (659,1440);
}
);
background = {
anchors = (
{
name = bottom;
pos = (659,0);
},
{
name = center;
pos = (659,720);
},
{
name = top;
pos = (659,1440);
}
);
shapes = (
{
closed = 1;
nodes = (
(748,0,l),
(748,1292,l),
(1265,1292,l),
(1265,1440,l),
(53,1440,l),
(53,1292,l),
(568,1292,l),
(568,0,l)
);
}
);
};
layerId = m01;
shapes = (
{
closed = 1;
nodes = (
(748,0,l),
(748,1292,l),
(1265,1292,l),
(1265,1440,l),
(53,1440,l),
(53,1292,l),
(568,1292,l),
(568,0,l)
);
}
);
width = 1318;
},
{
anchors = (
{
name = bottom;
pos = (742,0);
},
{
name = center;
pos = (732,720);
},
{
name = top;
pos = (742,1440);
}
);
background = {
anchors = (
{
name = bottom;
pos = (742,0);
},
{
name = center;
pos = (732,720);
},
{
name = top;
pos = (742,1440);
}
);
shapes = (
{
closed = 1;
nodes = (
(946,0,l),
(946,1090,l),
(1452,1090,l),
(1452,1440,l),
(32,1440,l),
(32,1090,l),
(536,1090,l),
(536,0,l)
);
}
);
};
layerId = m002;
shapes = (
{
closed = 1;
nodes = (
(946,0,l),
(946,1090,l),
(1452,1090,l),
(1452,1440,l),
(32,1440,l),
(32,1090,l),
(536,1090,l),
(536,0,l)
);
}
);
width = 1484;
}
);
unicode = 84;
userData = {
KernOnName = T;
};
},
{
glyphname = U;
kernLeft = U;
kernRight = U;
layers = (
{
anchors = (
{
name = bottom;
pos = (689,0);
},
{
name = ogonek;
pos = (875,0);
},
{
name = top;
pos = (689,1440);
},
{
name = topright;
pos = (1380,1440);
}
);
background = {
anchors = (
{
name = bottom;
pos = (689,0);
},
{
name = ogonek;
pos = (875,0);
},
{
name = top;
pos = (689,1440);
},
{
name = topright;
pos = (1380,1440);
}
);
shapes = (
{
closed = 1;
nodes = (
(1025,-24,o),
(1238,177,o),
(1238,494,cs),
(1238,1440,l),
(1058,1440,l),
(1058,510,ls),
(1058,273,o),
(915,124,o),
(689,124,cs),
(462,124,o),
(320,273,o),
(320,510,cs),
(320,1440,l),
(140,1440,l),
(140,494,ls),
(140,177,o),
(353,-24,o),
(689,-24,cs)
);
}
);
};
layerId = m01;
shapes = (
{
closed = 1;
nodes = (
(1025,-24,o),
(1238,177,o),
(1238,494,cs),
(1238,1440,l),
(1058,1440,l),
(1058,510,ls),
(1058,273,o),
(915,124,o),
(689,124,cs),
(462,124,o),
(320,273,o),
(320,510,cs),
(320,1440,l),
(140,1440,l),
(140,494,ls),
(140,177,o),
(353,-24,o),
(689,-24,cs)
);
}
);
width = 1378;
},
{
anchors = (
{
name = bottom;
pos = (771,0);
},
{
name = ogonek;
pos = (1014,0);
},
{
name = top;
pos = (771,1440);
},
{
name = topright;
pos = (1492,1440);
}
);
background = {
anchors = (
{
name = bottom;
pos = (771,0);
},
{
name = ogonek;
pos = (1014,0);
},
{
name = top;
pos = (771,1440);
},
{
name = topright;
pos = (1492,1440);
}
);
shapes = (
{
closed = 1;
nodes = (
(1204,-28,o),
(1445,186,o),
(1445,570,cs),
(1445,1440,l),
(1035,1440,l),
(1035,604,ls),
(1035,406,o),
(948,322,o),
(771,322,cs),
(594,322,o),
(507,406,o),
(507,576,cs),
(507,1440,l),
(97,1440,l),
(97,570,ls),
(97,186,o),
(338,-28,o),
(771,-28,cs)
);
}
);
};
layerId = m002;
shapes = (
{
closed = 1;
nodes = (
(1204,-28,o),
(1445,186,o),
(1445,570,cs),
(1445,1440,l),
(1035,1440,l),
(1035,604,ls),
(1035,406,o),
(948,322,o),
(771,322,cs),
(594,322,o),
(507,406,o),
(507,576,cs),
(507,1440,l),
(97,1440,l),
(97,570,ls),
(97,186,o),
(338,-28,o),
(771,-28,cs)
);
}
);
width = 1542;
}
);
tags = (
overshot
);
unicode = 85;
userData = {
KernOnName = U;
};
},
{
glyphname = V;
kernLeft = V;
kernRight = V;
layers = (
{
background = {
shapes = (
{
closed = 1;
nodes = (
(792,0,l),
(1340,1440,l),
(1148,1440,l),
(678,124,l),
(716,124,l),
(242,1440,l),
(50,1440,l),
(598,0,l)
);
}
);
};
layerId = m01;
shapes = (
{
closed = 1;
nodes = (
(792,0,l),
(1340,1440,l),
(1148,1440,l),
(678,124,l),
(716,124,l),
(242,1440,l),
(50,1440,l),
(598,0,l)
);
}
);
width = 1389;
},
{
background = {
shapes = (
{
closed = 1;
nodes = (
(1041,0,l),
(1507,1440,l),
(1065,1440,l),
(748,249,l),
(770,249,l),
(455,1440,l),
(13,1440,l),
(481,0,l)
);
}
);
};
guides = (
{
pos = (874,291);
}
);
layerId = m002;
shapes = (
{
closed = 1;
nodes = (
(1041,0,l),
(1507,1440,l),
(1065,1440,l),
(748,249,l),
(770,249,l),
(455,1440,l),
(13,1440,l),
(481,0,l)
);
}
);
width = 1520;
}
);
unicode = 86;
userData = {
KernOnName = V;
};
},
{
glyphname = W;
kernLeft = W;
kernRight = W;
layers = (
{
anchors = (
{
name = bottom;
pos = (957,0);
},
{
name = top;
pos = (957,1440);
}
);
background = {
anchors = (
{
name = bottom;
pos = (957,0);
},
{
name = top;
pos = (957,1440);
}
);
shapes = (
{
closed = 1;
nodes = (
(628,0,l),
(976,1310,l),
(936,1310,l),
(1286,0,l),
(1552,0,l),
(1852,1440,l),
(1678,1440,l),
(1418,136,l),
(1421,136,l),
(1058,1440,l),
(858,1440,l),
(493,136,l),
(496,136,l),
(236,1440,l),
(62,1440,l),
(362,0,l)
);
}
);
};
layerId = m01;
shapes = (
{
closed = 1;
nodes = (
(628,0,l),
(976,1310,l),
(936,1310,l),
(1286,0,l),
(1552,0,l),
(1852,1440,l),
(1678,1440,l),
(1418,136,l),
(1421,136,l),
(1058,1440,l),
(858,1440,l),
(493,136,l),
(496,136,l),
(236,1440,l),
(62,1440,l),
(362,0,l)
);
}
);
width = 1914;
},
{
anchors = (
{
name = bottom;
pos = (1093,0);
},
{
name = top;
pos = (1093,1440);
}
);
background = {
anchors = (
{
name = bottom;
pos = (1093,0);
},
{
name = top;
pos = (1093,1440);
}
);
shapes = (
{
closed = 1;
nodes = (
(919,0,l),
(1103,1096,l),
(1083,1096,l),
(1266,0,l),
(1817,0,l),
(2165,1440,l),
(1713,1440,l),
(1510,209,l),
(1567,209,l),
(1352,1440,l),
(833,1440,l),
(618,209,l),
(675,209,l),
(472,1440,l),
(20,1440,l),
(368,0,l)
);
}
);
};
guides = (
{
pos = (819,291);
}
);
layerId = m002;
shapes = (
{
closed = 1;
nodes = (
(919,0,l),
(1103,1096,l),
(1083,1096,l),
(1266,0,l),
(1817,0,l),
(2165,1440,l),
(1713,1440,l),
(1510,209,l),
(1567,209,l),
(1352,1440,l),
(833,1440,l),
(618,209,l),
(675,209,l),
(472,1440,l),
(20,1440,l),
(368,0,l)
);
}
);
width = 2184;
}
);
unicode = 87;
userData = {
KernOnName = W;
};
},
{
glyphname = X;
kernLeft = X;
kernRight = X;
layers = (
{
background = {
shapes = (
{
closed = 1;
nodes = (
(254,0,l),
(662,605,l),
(1066,0,l),
(1288,0,l),
(770,742,l),
(1256,1440,l),
(1056,1440,l),
(669,861,l),
(284,1440,l),
(74,1440,l),
(560,746,l),
(48,0,l)
);
}
);
};
layerId = m01;
shapes = (
{
closed = 1;
nodes = (
(254,0,l),
(662,605,l),
(1066,0,l),
(1288,0,l),
(770,742,l),
(1256,1440,l),
(1056,1440,l),
(669,861,l),
(284,1440,l),
(74,1440,l),
(560,746,l),
(48,0,l)
);
}
);
width = 1336;
},
{
background = {
shapes = (
{
closed = 1;
nodes = (
(534,0,l),
(803,449,l),
(1113,0,l),
(1635,0,l),
(1073,735,l),
(1563,1440,l),
(1049,1440,l),
(811,1039,l),
(532,1440,l),
(11,1440,l),
(540,750,l),
(17,0,l)
);
}
);
};
layerId = m002;
shapes = (
{
closed = 1;
nodes = (
(534,0,l),
(803,449,l),
(1113,0,l),
(1635,0,l),
(1073,735,l),
(1563,1440,l),
(1049,1440,l),
(811,1039,l),
(532,1440,l),
(11,1440,l),
(540,750,l),
(17,0,l)
);
}
);
width = 1640;
}
);
unicode = 88;
userData = {
KernOnName = X;
};
},
{
glyphname = Y;
kernLeft = Y;
kernRight = Y;
layers = (
{
anchors = (
{
name = bottom;
pos = (638,0);
},
{
name = top;
pos = (638,1440);
},
{
name = topleft;
pos = (64,1440);
}
);
background = {
anchors = (
{
name = bottom;
pos = (638,0);
},
{
name = top;
pos = (638,1440);
},
{
name = topleft;
pos = (64,1440);
}
);
shapes = (
{
closed = 1;
nodes = (
(727,0,l),
(727,596,l),
(1232,1440,l),
(1042,1440,l),
(612,708,l),
(666,708,l),
(234,1440,l),
(44,1440,l),
(547,596,l),
(547,0,l)
);
}
);
};
layerId = m01;
shapes = (
{
closed = 1;
nodes = (
(727,0,l),
(727,596,l),
(1232,1440,l),
(1042,1440,l),
(612,708,l),
(666,708,l),
(234,1440,l),
(44,1440,l),
(547,596,l),
(547,0,l)
);
}
);
width = 1276;
},
{
anchors = (
{
name = bottom;
pos = (704,0);
},
{
name = top;
pos = (704,1440);
},
{
name = topleft;
pos = (30,1440);
}
);
background = {
anchors = (
{
name = bottom;
pos = (704,0);
},
{
name = top;
pos = (704,1440);
},
{
name = topleft;
pos = (30,1440);
}
);
shapes = (
{
closed = 1;
nodes = (
(911,0,l),
(911,501,l),
(1401,1440,l),
(969,1440,l),
(683,772,l),
(723,772,l),
(439,1440,l),
(7,1440,l),
(501,497,l),
(501,0,l)
);
}
);
};
layerId = m002;
shapes = (
{
closed = 1;
nodes = (
(911,0,l),
(911,501,l),
(1401,1440,l),
(969,1440,l),
(683,772,l),
(723,772,l),
(439,1440,l),
(7,1440,l),
(501,497,l),
(501,0,l)
);
}
);
width = 1407;
}
);
unicode = 89;
userData = {
KernOnName = Y;
};
},
{
glyphname = Z;
kernLeft = Z;
kernRight = Z;
layers = (
{
anchors = (
{
name = bottom;
pos = (677,0);
},
{
name = center;
pos = (677,720);
},
{
name = top;
pos = (707,1440);
}
);
background = {
anchors = (
{
name = bottom;
pos = (677,0);
},
{
name = center;
pos = (677,720);
},
{
name = top;
pos = (707,1440);
}
);
shapes = (
{
closed = 1;
nodes = (
(1310,0,l),
(1310,350,l),
(574,350,l),
(1275,1191,l),
(1275,1440,l),
(100,1440,l),
(100,1090,l),
(752,1090,l),
(44,244,l),
(44,0,l)
);
}
);
};
layerId = m002;
shapes = (
{
closed = 1;
nodes = (
(1310,0,l),
(1310,350,l),
(574,350,l),
(1275,1191,l),
(1275,1440,l),
(100,1440,l),
(100,1090,l),
(752,1090,l),
(44,244,l),
(44,0,l)
);
}
);
width = 1362;
},
{
anchors = (
{
name = bottom;
pos = (604,0);
},
{
name = center;
pos = (604,720);
},
{
name = top;
pos = (680,1440);
}
);
background = {
anchors = (
{
name = bottom;
pos = (604,0);
},
{
name = center;
pos = (604,720);
},
{
name = top;
pos = (680,1440);
}
);
shapes = (
{
closed = 1;
nodes = (
(1146,0,l),
(1146,154,l),
(283,154,l),
(1147,1320,l),
(1147,1440,l),
(132,1440,l),
(132,1286,l),
(925,1286,l),
(60,118,l),
(60,0,l)
);
}
);
};
layerId = m01;
name = "400";
shapes = (
{
closed = 1;
nodes = (
(1146,0,l),
(1146,154,l),
(283,154,l),
(1147,1320,l),
(1147,1440,l),
(132,1440,l),
(132,1286,l),
(925,1286,l),
(60,118,l),
(60,0,l)
);
}
);
width = 1219;
}
);
unicode = 90;
userData = {
KernOnName = Z;
};
},
{
glyphname = a;
kernLeft = a;
kernRight = a;
layers = (
{
anchors = (
{
name = bottom;
pos = (537,0);
},
{
name = ogonek;
pos = (1060,0);
},
{
name = top;
pos = (557,1080);
}
);
background = {
anchors = (
{
name = bottom;
pos = (537,0);
},
{
name = ogonek;
pos = (1060,0);
},
{
name = top;
pos = (557,1080);
}
);
shapes = (
{
closed = 1;
nodes = (
(661,-24,o),
(776,115,o),
(818,226,c),
(793,226,l),
(793,150,ls),
(793,63,o),
(862,0,o),
(953,0,cs),
(1060,0,l),
(1060,140,l),
(999,140,ls),
(957,140,o),
(949,151,o),
(949,195,cs),
(949,688,ls),
(949,949,o),
(837,1104,o),
(575,1104,cs),
(321,1104,o),
(149,962,o),
(131,788,c),
(320,745,l),
(325,878,o),
(410,964,o),
(563,964,cs),
(725,964,o),
(789,868,o),
(789,695,cs),
(789,636,l),
(807,654,l),
(627,654,ls),
(253,654,o),
(87,488,o),
(87,294,cs),
(87,111,o),
(223,-24,o),
(440,-24,cs)
);
},
{
closed = 1;
nodes = (
(340,116,o),
(271,197,o),
(271,298,cs),
(271,399,o),
(355,522,o),
(621,522,cs),
(790,522,l),
(790,513,ls),
(790,233,o),
(643,116,o),
(478,116,cs)
);
}
);
};
layerId = m01;
shapes = (
{
closed = 1;
nodes = (
(661,-24,o),
(776,115,o),
(818,226,c),
(793,226,l),
(793,150,ls),
(793,63,o),
(862,0,o),
(953,0,cs),
(1060,0,l),
(1060,140,l),
(999,140,ls),
(957,140,o),
(949,151,o),
(949,195,cs),
(949,688,ls),
(949,949,o),
(837,1104,o),
(575,1104,cs),
(321,1104,o),
(149,962,o),
(131,788,c),
(320,745,l),
(325,878,o),
(410,964,o),
(563,964,cs),
(725,964,o),
(789,868,o),
(789,695,cs),
(789,636,l),
(807,654,l),
(627,654,ls),
(253,654,o),
(87,488,o),
(87,294,cs),
(87,111,o),
(223,-24,o),
(440,-24,cs)
);
},
{
closed = 1;
nodes = (
(340,116,o),
(271,197,o),
(271,298,cs),
(271,399,o),
(355,522,o),
(621,522,cs),
(790,522,l),
(790,513,ls),
(790,233,o),
(643,116,o),
(478,116,cs)
);
}
);
width = 1129;
},
{
anchors = (
{
name = bottom;
pos = (638,0);
},
{
name = ogonek;
pos = (1242,0);
},
{
name = top;
pos = (638,1080);
}
);
background = {
anchors = (
{
name = bottom;
pos = (638,0);
},
{
name = ogonek;
pos = (1242,0);
},
{
name = top;
pos = (638,1080);
}
);
shapes = (
{
closed = 1;
nodes = (
(749,-27,o),
(818,166,o),
(847,283,c),
(773,318,l),
(773,287,ls),
(773,95,o),
(866,0,o),
(1072,0,cs),
(1242,0,l),
(1242,280,l),
(1203,280,ls),
(1161,280,o),
(1153,291,o),
(1153,336,cs),
(1153,604,ls),
(1153,1008,o),
(957,1110,o),
(654,1110,cs),
(296,1110,o),
(140,968,o),
(96,785,c),
(489,725,l),
(509,819,o),
(548,865,o),
(633,865,cs),
(719,865,o),
(755,817,o),
(755,699,cs),
(755,634,l),
(773,669,l),
(643,669,ls),
(289,669,o),
(47,565,o),
(47,303,cs),
(47,61,o),
(253,-27,o),
(453,-27,cs)
);
},
{
closed = 1;
nodes = (
(464,226,o),
(453,299,o),
(453,328,cs),
(453,385,o),
(495,465,o),
(667,465,cs),
(759,465,l),
(759,430,ls),
(759,308,o),
(696,226,o),
(576,226,cs)
);
}
);
};
layerId = m002;
shapes = (
{
closed = 1;
nodes = (
(749,-27,o),
(818,166,o),
(847,283,c),
(773,318,l),
(773,287,ls),
(773,95,o),
(866,0,o),
(1072,0,cs),
(1242,0,l),
(1242,280,l),
(1203,280,ls),
(1161,280,o),
(1153,291,o),
(1153,336,cs),
(1153,604,ls),
(1153,1008,o),
(957,1110,o),
(654,1110,cs),
(296,1110,o),
(140,968,o),
(96,785,c),
(489,725,l),
(509,819,o),
(548,865,o),
(633,865,cs),
(719,865,o),
(755,817,o),
(755,699,cs),
(755,634,l),
(773,669,l),
(643,669,ls),
(289,669,o),
(47,565,o),
(47,303,cs),
(47,61,o),
(253,-27,o),
(453,-27,cs)
);
},
{
closed = 1;
nodes = (
(464,226,o),
(453,299,o),
(453,328,cs),
(453,385,o),
(495,465,o),
(667,465,cs),
(759,465,l),
(759,430,ls),
(759,308,o),
(696,226,o),
(576,226,cs)
);
}
);
width = 1293;
}
);
tags = (
angular,
overshot
);
unicode = 97;
userData = {
KernOnName = a;
};
},
{
glyphname = ae;
kernLeft = ae;
kernRight = e;
layers = (
{
anchors = (
{
name = bottom;
pos = (884,0);
},
{
name = top;
pos = (916,1080);
}
);
background = {
anchors = (
{
name = bottom;
pos = (884,0);
},
{
name = top;
pos = (916,1080);
}
);
shapes = (
{
closed = 1;
nodes = (
(697,-24,o),
(835,113,o),
(898,246,c),
(858,256,l),
(922,91,o),
(1071,-24,o),
(1267,-24,cs),
(1475,-24,o),
(1627,89,o),
(1702,274,c),
(1537,330,l),
(1489,191,o),
(1399,116,o),
(1264,116,cs),
(1068,116,o),
(958,286,o),
(968,581,c),
(892,510,l),
(1726,510,l),
(1726,980,o),
(1474,1104,o),
(1265,1104,cs),
(1087,1104,o),
(967,1018,o),
(878,859,c),
(926,858,l),
(873,1020,o),
(757,1104,o),
(564,1104,cs),
(314,1104,o),
(140,962,o),
(121,788,c),
(310,745,l),
(316,878,o),
(403,964,o),
(554,964,cs),
(728,964,o),
(809,869,o),
(809,695,cs),
(809,650,l),
(611,650,ls),
(248,650,o),
(91,486,o),
(91,293,cs),
(91,111,o),
(237,-24,o),
(459,-24,cs)
);
},
{
closed = 1;
nodes = (
(352,116,o),
(275,197,o),
(275,297,cs),
(275,397,o),
(356,518,o),
(615,518,cs),
(822,518,l),
(810,526,l),
(810,523,ls),
(810,236,o),
(667,116,o),
(497,116,cs)
);
},
{
closed = 1;
nodes = (
(993,848,o),
(1095,964,o),
(1254,964,cs),
(1393,964,o),
(1508,874,o),
(1528,638,c),
(971,638,l)
);
}
);
};
layerId = m01;
shapes = (
{
closed = 1;
nodes = (
(697,-24,o),
(835,113,o),
(898,246,c),
(858,256,l),
(922,91,o),
(1071,-24,o),
(1267,-24,cs),
(1475,-24,o),
(1627,89,o),
(1702,274,c),
(1537,330,l),
(1489,191,o),
(1399,116,o),
(1264,116,cs),
(1068,116,o),
(958,286,o),
(968,581,c),
(892,510,l),
(1726,510,l),
(1726,980,o),
(1474,1104,o),
(1265,1104,cs),
(1087,1104,o),
(967,1018,o),
(878,859,c),
(926,858,l),
(873,1020,o),
(757,1104,o),
(564,1104,cs),
(314,1104,o),
(140,962,o),
(121,788,c),
(310,745,l),
(316,878,o),
(403,964,o),
(554,964,cs),
(728,964,o),
(809,869,o),
(809,695,cs),
(809,650,l),
(611,650,ls),
(248,650,o),
(91,486,o),
(91,293,cs),
(91,111,o),
(237,-24,o),
(459,-24,cs)
);
},
{
closed = 1;
nodes = (
(352,116,o),
(275,197,o),
(275,297,cs),
(275,397,o),
(356,518,o),
(615,518,cs),
(822,518,l),
(810,526,l),
(810,523,ls),
(810,236,o),
(667,116,o),
(497,116,cs)
);
},
{
closed = 1;
nodes = (
(993,848,o),
(1095,964,o),
(1254,964,cs),
(1393,964,o),
(1508,874,o),
(1528,638,c),
(971,638,l)
);
}
);
width = 1818;
},
{
anchors = (
{
name = bottom;
pos = (961,0);
},
{
name = top;
pos = (1028,1080);
}
);
background = {
anchors = (
{
name = bottom;
pos = (961,0);
},
{
name = top;
pos = (1028,1080);
}
);
shapes = (
{
closed = 1;
nodes = (
(779,-28,o),
(989,123,o),
(989,391,c),
(927,358,l),
(927,87,o),
(1143,-28,o),
(1358,-28,cs),
(1546,-28,o),
(1794,62,o),
(1867,311,c),
(1515,390,l),
(1479,294,o),
(1421,255,o),
(1345,255,cs),
(1197,255,o),
(1163,381,o),
(1163,540,c),
(990,465,l),
(1885,465,l),
(1885,992,o),
(1601,1108,o),
(1360,1108,cs),
(1140,1108,o),
(893,1007,o),
(893,539,c),
(1071,541,l),
(1071,968,o),
(893,1108,o),
(608,1108,cs),
(286,1108,o),
(123,935,o),
(95,785,c),
(488,725,l),
(508,812,o),
(538,865,o),
(628,865,cs),
(711,865,o),
(754,819,o),
(754,699,cs),
(754,670,l),
(652,670,ls),
(291,670,o),
(46,562,o),
(46,310,cs),
(46,60,o),
(288,-28,o),
(499,-28,cs)
);
},
{
closed = 1;
nodes = (
(482,226,o),
(452,281,o),
(452,328,cs),
(452,385,o),
(496,466,o),
(676,466,cs),
(782,466,l),
(758,489,l),
(758,430,ls),
(758,308,o),
(700,226,o),
(580,226,cs)
);
},
{
closed = 1;
nodes = (
(1189,768,o),
(1240,845,o),
(1336,845,cs),
(1415,845,o),
(1476,791,o),
(1500,661,c),
(1170,661,l)
);
}
);
};
layerId = m002;
shapes = (
{
closed = 1;
nodes = (
(779,-28,o),
(989,123,o),
(989,391,c),
(927,358,l),
(927,87,o),
(1143,-28,o),
(1358,-28,cs),
(1546,-28,o),
(1794,62,o),
(1867,311,c),
(1515,390,l),
(1479,294,o),
(1421,255,o),
(1345,255,cs),
(1197,255,o),
(1163,381,o),
(1163,540,c),
(990,465,l),
(1885,465,l),
(1885,992,o),
(1601,1108,o),
(1360,1108,cs),
(1140,1108,o),
(893,1007,o),
(893,539,c),
(1071,541,l),
(1071,968,o),
(893,1108,o),
(608,1108,cs),
(286,1108,o),
(123,935,o),
(95,785,c),
(488,725,l),
(508,812,o),
(538,865,o),
(628,865,cs),
(711,865,o),
(754,819,o),
(754,699,cs),
(754,670,l),
(652,670,ls),
(291,670,o),
(46,562,o),
(46,310,cs),
(46,60,o),
(288,-28,o),
(499,-28,cs)
);
},
{
closed = 1;
nodes = (
(482,226,o),
(452,281,o),
(452,328,cs),
(452,385,o),
(496,466,o),
(676,466,cs),
(782,466,l),
(758,489,l),
(758,430,ls),
(758,308,o),
(700,226,o),
(580,226,cs)
);
},
{
closed = 1;
nodes = (
(1189,768,o),
(1240,845,o),
(1336,845,cs),
(1415,845,o),
(1476,791,o),
(1500,661,c),
(1170,661,l)
);
}
);
width = 1941;
}
);
unicode = 230;
},
{
glyphname = b;
kernLeft = h;
kernRight = p;
layers = (
{
background = {
shapes = (
{
closed = 1;
nodes = (
(941,-24,o),
(1123,193,o),
(1123,539,cs),
(1123,885,o),
(942,1104,o),
(679,1104,cs),
(526,1104,o),
(375,1028,o),
(316,871,c),
(331,855,l),
(331,1500,l),
(163,1500,l),
(163,0,l),
(321,0,l),
(321,216,l),
(312,208,l),
(383,40,o),
(538,-24,o),
(679,-24,cs)
);
},
{
closed = 1;
nodes = (
(464,116,o),
(326,253,o),
(326,543,cs),
(326,836,o),
(466,964,o),
(635,964,cs),
(819,964,o),
(939,810,o),
(939,543,cs),
(939,268,o),
(812,116,o),
(633,116,cs)
);
}
);
};
guides = (
{
pos = (464,187);
}
);
layerId = m01;
shapes = (
{
closed = 1;
nodes = (
(941,-24,o),
(1123,193,o),
(1123,539,cs),
(1123,885,o),
(942,1104,o),
(679,1104,cs),
(526,1104,o),
(375,1028,o),
(316,871,c),
(331,855,l),
(331,1500,l),
(163,1500,l),
(163,0,l),
(321,0,l),
(321,216,l),
(312,208,l),
(383,40,o),
(538,-24,o),
(679,-24,cs)
);
},
{
closed = 1;
nodes = (
(464,116,o),
(326,253,o),
(326,543,cs),
(326,836,o),
(466,964,o),
(635,964,cs),
(819,964,o),
(939,810,o),
(939,543,cs),
(939,268,o),
(812,116,o),
(633,116,cs)
);
}
);
width = 1207;
},
{
background = {
shapes = (
{
closed = 1;
nodes = (
(1136,-28,o),
(1300,174,o),
(1300,537,cs),
(1300,902,o),
(1136,1108,o),
(857,1108,cs),
(701,1108,o),
(588,1043,o),
(502,885,c),
(525,870,l),
(525,1500,l),
(125,1500,l),
(125,0,l),
(505,0,l),
(505,209,l),
(486,211,l),
(569,45,o),
(675,-28,o),
(848,-28,cs)
);
},
{
closed = 1;
nodes = (
(584,265,o),
(503,362,o),
(503,541,cs),
(503,719,o),
(582,816,o),
(697,816,cs),
(815,816,o),
(881,715,o),
(881,545,cs),
(881,374,o),
(813,265,o),
(695,265,cs)
);
}
);
};
layerId = m002;
name = "800";
shapes = (
{
closed = 1;
nodes = (
(1136,-28,o),
(1300,174,o),
(1300,537,cs),
(1300,902,o),
(1136,1108,o),
(857,1108,cs),
(701,1108,o),
(588,1043,o),
(502,885,c),
(525,870,l),
(525,1500,l),
(125,1500,l),
(125,0,l),
(505,0,l),
(505,209,l),
(486,211,l),
(569,45,o),
(675,-28,o),
(848,-28,cs)
);
},
{
closed = 1;
nodes = (
(584,265,o),
(503,362,o),
(503,541,cs),
(503,719,o),
(582,816,o),
(697,816,cs),
(815,816,o),
(881,715,o),
(881,545,cs),
(881,374,o),
(813,265,o),
(695,265,cs)
);
}
);
width = 1348;
}
);
tags = (
overshot
);
unicode = 98;
},
{
glyphname = c;
kernLeft = e;
kernRight = c;
layers = (
{
anchors = (
{
name = bottom;
pos = (575,0);
},
{
name = top;
pos = (600,1080);
}
);
background = {
anchors = (
{
name = bottom;
pos = (575,0);
},
{
name = top;
pos = (600,1080);
}
);
shapes = (
{
closed = 1;
nodes = (
(822,-24,o),
(984,105,o),
(1048,323,c),
(878,371,l),
(839,206,o),
(742,116,o),
(594,116,cs),
(395,116,o),
(284,268,o),
(284,540,cs),
(284,811,o),
(395,964,o),
(594,964,cs),
(743,964,o),
(842,871,o),
(879,703,c),
(1050,748,l),
(989,971,o),
(825,1104,o),
(594,1104,cs),
(290,1104,o),
(100,885,o),
(100,540,cs),
(100,194,o),
(290,-24,o),
(594,-24,cs)
);
}
);
};
layerId = m01;
shapes = (
{
closed = 1;
nodes = (
(822,-24,o),
(984,105,o),
(1048,323,c),
(878,371,l),
(839,206,o),
(742,116,o),
(594,116,cs),
(395,116,o),
(284,268,o),
(284,540,cs),
(284,811,o),
(395,964,o),
(594,964,cs),
(743,964,o),
(842,871,o),
(879,703,c),
(1050,748,l),
(989,971,o),
(825,1104,o),
(594,1104,cs),
(290,1104,o),
(100,885,o),
(100,540,cs),
(100,194,o),
(290,-24,o),
(594,-24,cs)
);
}
);
width = 1129;
},
{
anchors = (
{
name = bottom;
pos = (620,0);
},
{
name = top;
pos = (638,1080);
}
);
background = {
anchors = (
{
name = bottom;
pos = (620,0);
},
{
name = top;
pos = (638,1080);
}
);
shapes = (
{
closed = 1;
nodes = (
(878,-28,o),
(1145,77,o),
(1193,373,c),
(838,426,l),
(805,303,o),
(740,254,o),
(653,254,cs),
(517,254,o),
(469,374,o),
(469,535,cs),
(469,697,o),
(518,826,o),
(652,826,cs),
(744,826,o),
(809,764,o),
(830,621,c),
(1200,693,l),
(1152,974,o),
(907,1108,o),
(654,1108,cs),
(286,1108,o),
(57,892,o),
(57,541,cs),
(57,190,o),
(287,-28,o),
(657,-28,cs)
);
}
);
};
layerId = m002;
shapes = (
{
closed = 1;
nodes = (
(878,-28,o),
(1145,77,o),
(1193,373,c),
(838,426,l),
(805,303,o),
(740,254,o),
(653,254,cs),
(517,254,o),
(469,374,o),
(469,535,cs),
(469,697,o),
(518,826,o),
(652,826,cs),
(744,826,o),
(809,764,o),
(830,621,c),
(1200,693,l),
(1152,974,o),
(907,1108,o),
(654,1108,cs),
(286,1108,o),
(57,892,o),
(57,541,cs),
(57,190,o),
(287,-28,o),
(657,-28,cs)
);
}
);
width = 1244;
}
);
tags = (
overshot
);
unicode = 99;
userData = {
KernOnName = c;
};
},
{
glyphname = d;
kernLeft = d;
kernRight = d;
layers = (
{
anchors = (
{
name = bottom;
pos = (595,0);
},
{
name = center;
pos = (910,720);
},
{
name = centerExt;
pos = (1235,720);
},
{
name = top;
pos = (595,1950);
},
{
name = topright;
pos = (1180,1950);
}
);
background = {
anchors = (
{
name = bottom;
pos = (595,0);
},
{
name = center;
pos = (910,720);
},
{
name = centerExt;
pos = (1235,720);
},
{
name = top;
pos = (595,1950);
},
{
name = topright;
pos = (1180,1950);
}
);
shapes = (
{
closed = 1;
nodes = (
(681,-24,o),
(832,52,o),
(891,209,c),
(886,225,l),
(886,0,l),
(1044,0,l),
(1044,1500,l),
(876,1500,l),
(876,864,l),
(895,872,l),
(824,1040,o),
(669,1104,o),
(528,1104,cs),
(266,1104,o),
(84,887,o),
(84,541,cs),
(84,195,o),
(265,-24,o),
(528,-24,cs)
);
},
{
closed = 1;
nodes = (
(388,116,o),
(268,270,o),
(268,537,cs),
(268,812,o),
(395,964,o),
(574,964,cs),
(743,964,o),
(881,827,o),
(881,537,cs),
(881,244,o),
(741,116,o),
(572,116,cs)
);
}
);
};
layerId = m01;
shapes = (
{
closed = 1;
nodes = (
(681,-24,o),
(832,52,o),
(891,209,c),
(886,225,l),
(886,0,l),
(1044,0,l),
(1044,1500,l),
(876,1500,l),
(876,864,l),
(895,872,l),
(824,1040,o),
(669,1104,o),
(528,1104,cs),
(266,1104,o),
(84,887,o),
(84,541,cs),
(84,195,o),
(265,-24,o),
(528,-24,cs)
);
},
{
closed = 1;
nodes = (
(388,116,o),
(268,270,o),
(268,537,cs),
(268,812,o),
(395,964,o),
(574,964,cs),
(743,964,o),
(881,827,o),
(881,537,cs),
(881,244,o),
(741,116,o),
(572,116,cs)
);
}
);
width = 1207;
},
{
anchors = (
{
name = bottom;
pos = (655,0);
},
{
name = center;
pos = (985,720);
},
{
name = centerExt;
pos = (1495,720);
},
{
name = top;
pos = (655,1950);
},
{
name = topright;
pos = (1271,1950);
}
);
background = {
anchors = (
{
name = bottom;
pos = (655,0);
},
{
name = center;
pos = (985,720);
},
{
name = centerExt;
pos = (1495,720);
},
{
name = top;
pos = (655,1950);
},
{
name = topright;
pos = (1271,1950);
}
);
shapes = (
{
closed = 1;
nodes = (
(649,-28,o),
(762,41,o),
(845,196,c),
(843,211,l),
(843,0,l),
(1223,0,l),
(1223,1500,l),
(823,1500,l),
(823,872,l),
(862,869,l),
(779,1036,o),
(672,1108,o),
(499,1108,cs),
(211,1108,o),
(48,906,o),
(48,543,cs),
(48,179,o),
(212,-28,o),
(491,-28,cs)
);
},
{
closed = 1;
nodes = (
(532,265,o),
(467,367,o),
(467,535,cs),
(467,707,o),
(535,816,o),
(653,816,cs),
(764,816,o),
(845,718,o),
(845,539,cs),
(845,362,o),
(766,265,o),
(650,265,cs)
);
}
);
};
layerId = m002;
shapes = (
{
closed = 1;
nodes = (
(649,-28,o),
(762,41,o),
(845,196,c),
(843,211,l),
(843,0,l),
(1223,0,l),
(1223,1500,l),
(823,1500,l),
(823,872,l),
(862,869,l),
(779,1036,o),
(672,1108,o),
(499,1108,cs),
(211,1108,o),
(48,906,o),
(48,543,cs),
(48,179,o),
(212,-28,o),
(491,-28,cs)
);
},
{
closed = 1;
nodes = (
(532,265,o),
(467,367,o),
(467,535,cs),
(467,707,o),
(535,816,o),
(653,816,cs),
(764,816,o),
(845,718,o),
(845,539,cs),
(845,362,o),
(766,265,o),
(650,265,cs)
);
}
);
width = 1347;
}
);
metricLeft = d;
tags = (
overshot
);
unicode = 100;
userData = {
KernOnName = d;
};
},
{
glyphname = eth;
kernRight = p;
layers = (
{
background = {
shapes = (
{
closed = 1;
nodes = (
(881,-23,o),
(1088,176,o),
(1088,568,cs),
(1088,1114,o),
(686,1403,o),
(309,1538,c),
(257,1437,l),
(549,1318,o),
(796,1150,o),
(894,839,c),
(919,835,l),
(868,952,o),
(750,1060,o),
(573,1060,c),
(284,1060,o),
(78,838,o),
(78,517,cs),
(78,199,o),
(281,-23,o),
(589,-23,cs)
);
},
{
closed = 1;
nodes = (
(384,116,o),
(262,271,o),
(262,518,cs),
(262,767,o),
(385,921,o),
(583,921,cs),
(781,921,o),
(904,767,o),
(904,518,cs),
(904,270,o),
(781,116,o),
(583,116,cs)
);
},
{
closed = 1;
nodes = (
(884,1438,l),
(820,1539,l),
(264,1189,l),
(328,1088,l)
);
}
);
};
layerId = m01;
shapes = (
{
closed = 1;
nodes = (
(881,-23,o),
(1088,176,o),
(1088,568,cs),
(1088,1114,o),
(686,1403,o),
(309,1538,c),
(257,1437,l),
(549,1318,o),
(796,1150,o),
(894,839,c),
(919,835,l),
(868,952,o),
(750,1060,o),
(573,1060,c),
(284,1060,o),
(78,838,o),
(78,517,cs),
(78,199,o),
(281,-23,o),
(589,-23,cs)
);
},
{
closed = 1;
nodes = (
(384,116,o),
(262,271,o),
(262,518,cs),
(262,767,o),
(385,921,o),
(583,921,cs),
(781,921,o),
(904,767,o),
(904,518,cs),
(904,270,o),
(781,116,o),
(583,116,cs)
);
},
{
closed = 1;
nodes = (
(884,1438,l),
(820,1539,l),
(264,1189,l),
(328,1088,l)
);
}
);
userData = {
RMXScaler = {
height = 96;
width = 98;
};
};
width = 1175;
},
{
background = {
shapes = (
{
closed = 1;
nodes = (
(940,-26,o),
(1162,210,o),
(1162,590,cs),
(1162,1170,o),
(646,1429,o),
(254,1568,c),
(181,1389,l),
(330,1335,o),
(689,1170,o),
(809,805,c),
(823,847,l),
(777,927,o),
(722,1020,o),
(540,1020,cs),
(268,1020,o),
(35,806,o),
(35,497,cs),
(35,189,o),
(265,-26,o),
(595,-26,cs)
);
},
{
closed = 1;
nodes = (
(505,254,o),
(447,346,o),
(447,497,cs),
(447,646,o),
(505,740,o),
(599,740,cs),
(692,740,o),
(750,646,o),
(750,497,cs),
(750,347,o),
(692,254,o),
(599,254,cs)
);
},
{
closed = 1;
nodes = (
(981,1392,l),
(886,1561,l),
(184,1166,l),
(279,997,l)
);
}
);
};
layerId = m002;
shapes = (
{
closed = 1;
nodes = (
(940,-26,o),
(1162,210,o),
(1162,590,cs),
(1162,1170,o),
(646,1429,o),
(254,1568,c),
(181,1389,l),
(330,1335,o),
(689,1170,o),
(809,805,c),
(823,847,l),
(777,927,o),
(722,1020,o),
(540,1020,cs),
(268,1020,o),
(35,806,o),
(35,497,cs),
(35,189,o),
(265,-26,o),
(595,-26,cs)
);
},
{
closed = 1;
nodes = (
(505,254,o),
(447,346,o),
(447,497,cs),
(447,646,o),
(505,740,o),
(599,740,cs),
(692,740,o),
(750,646,o),
(750,497,cs),
(750,347,o),
(692,254,o),
(599,254,cs)
);
},
{
closed = 1;
nodes = (
(981,1392,l),
(886,1561,l),
(184,1166,l),
(279,997,l)
);
}
);
width = 1207;
}
);
unicode = 240;
userData = {
RMXScaler = {
source = o;
};
};
},
{
glyphname = e;
kernLeft = e;
kernRight = e;
layers = (
{
anchors = (
{
name = bottom;
pos = (571,0);
},
{
name = ogonek;
pos = (764,0);
},
{
name = top;
pos = (608,1080);
}
);
background = {
anchors = (
{
name = bottom;
pos = (571,0);
},
{
name = ogonek;
pos = (764,0);
},
{
name = top;
pos = (608,1080);
}
);
shapes = (
{
closed = 1;
nodes = (
(821,-24,o),
(982,86,o),
(1059,274,c),
(894,330,l),
(847,191,o),
(746,116,o),
(601,116,cs),
(398,116,o),
(284,269,o),
(284,538,cs),
(284,811,o),
(400,964,o),
(591,964,cs),
(750,964,o),
(879,857,o),
(889,573,c),
(937,636,l),
(208,636,l),
(208,500,l),
(1083,500,l),
(1083,978,o),
(823,1104,o),
(594,1104,cs),
(293,1104,o),
(100,885,o),
(100,539,cs),
(100,194,o),
(293,-24,o),
(601,-24,cs)
);
}
);
};
layerId = m01;
shapes = (
{
closed = 1;
nodes = (
(821,-24,o),
(982,86,o),
(1059,274,c),
(894,330,l),
(847,191,o),
(746,116,o),
(601,116,cs),
(398,116,o),
(284,269,o),
(284,538,cs),
(284,811,o),
(400,964,o),
(591,964,cs),
(750,964,o),
(879,857,o),
(889,573,c),
(937,636,l),
(208,636,l),
(208,500,l),
(1083,500,l),
(1083,978,o),
(823,1104,o),
(594,1104,cs),
(293,1104,o),
(100,885,o),
(100,539,cs),
(100,194,o),
(293,-24,o),
(601,-24,cs)
);
}
);
width = 1174;
},
{
anchors = (
{
name = bottom;
pos = (627,0);
},
{
name = ogonek;
pos = (855,0);
},
{
name = top;
pos = (637,1080);
}
);
background = {
anchors = (
{
name = bottom;
pos = (627,0);
},
{
name = ogonek;
pos = (855,0);
},
{
name = top;
pos = (637,1080);
}
);
shapes = (
{
closed = 1;
nodes = (
(863,-28,o),
(1110,60,o),
(1186,311,c),
(834,390,l),
(796,294,o),
(734,255,o),
(654,255,cs),
(517,255,o),
(465,371,o),
(465,541,cs),
(465,706,o),
(514,845,o),
(648,845,cs),
(740,845,o),
(806,778,o),
(826,616,c),
(845,661,l),
(310,661,l),
(310,465,l),
(1204,465,l),
(1204,992,o),
(905,1108,o),
(660,1108,cs),
(323,1108,o),
(53,888,o),
(53,543,cs),
(53,191,o),
(334,-28,o),
(658,-28,cs)
);
}
);
};
layerId = m002;
shapes = (
{
closed = 1;
nodes = (
(863,-28,o),
(1110,60,o),
(1186,311,c),
(834,390,l),
(796,294,o),
(734,255,o),
(654,255,cs),
(517,255,o),
(465,371,o),
(465,541,cs),
(465,706,o),
(514,845,o),
(648,845,cs),
(740,845,o),
(806,778,o),
(826,616,c),
(845,661,l),
(310,661,l),
(310,465,l),
(1204,465,l),
(1204,992,o),
(905,1108,o),
(660,1108,cs),
(323,1108,o),
(53,888,o),
(53,543,cs),
(53,191,o),
(334,-28,o),
(658,-28,cs)
);
}
);
width = 1259;
}
);
tags = (
overshot
);
unicode = 101;
userData = {
KernOnName = e;
};
},
{
glyphname = f;
kernLeft = f;
kernRight = f;
layers = (
{
background = {
shapes = (
{
closed = 1;
nodes = (
(386,0,l),
(386,1304,ls),
(386,1344,o),
(402,1360,o),
(442,1360,cs),
(601,1360,l),
(601,1500,l),
(466,1500,ls),
(287,1500,o),
(218,1437,o),
(218,1276,cs),
(218,0,l)
);
},
{
closed = 1;
nodes = (
(628,940,l),
(628,1080,l),
(57,1080,l),
(57,940,l)
);
}
);
};
layerId = m01;
shapes = (
{
closed = 1;
nodes = (
(386,0,l),
(386,1304,ls),
(386,1344,o),
(402,1360,o),
(442,1360,cs),
(601,1360,l),
(601,1500,l),
(466,1500,ls),
(287,1500,o),
(218,1437,o),
(218,1276,cs),
(218,0,l)
);
},
{
closed = 1;
nodes = (
(628,940,l),
(628,1080,l),
(57,1080,l),
(57,940,l)
);
}
);
width = 698;
},
{
background = {
shapes = (
{
closed = 1;
nodes = (
(559,0,l),
(559,1164,ls),
(559,1209,o),
(567,1220,o),
(609,1220,cs),
(754,1220,l),
(754,1500,l),
(478,1500,ls),
(258,1500,o),
(159,1406,o),
(159,1213,cs),
(159,0,l)
);
},
{
closed = 1;
nodes = (
(731,800,l),
(731,1080,l),
(30,1080,l),
(30,800,l)
);
}
);
};
layerId = m002;
shapes = (
{
closed = 1;
nodes = (
(559,0,l),
(559,1164,ls),
(559,1209,o),
(567,1220,o),
(609,1220,cs),
(754,1220,l),
(754,1500,l),
(478,1500,ls),
(258,1500,o),
(159,1406,o),
(159,1213,cs),
(159,0,l)
);
},
{
closed = 1;
nodes = (
(731,800,l),
(731,1080,l),
(30,1080,l),
(30,800,l)
);
}
);
width = 804;
}
);
unicode = 102;
userData = {
KernOnName = f;
};
},
{
glyphname = g;
kernLeft = g;
kernRight = g;
layers = (
{
anchors = (
{
name = bottom;
pos = (563,-494);
},
{
name = top;
pos = (573,1080);
}
);
background = {
anchors = (
{
name = bottom;
pos = (563,-494);
},
{
name = top;
pos = (573,1080);
}
);
shapes = (
{
closed = 1;
nodes = (
(605,-414,ls),
(928,-414,o),
(1077,-315,o),
(1077,-103,cs),
(1077,28,o),
(1020,206,o),
(679,206,cs),
(463,206,ls),
(381,206,o),
(341,230,o),
(341,277,cs),
(341,327,o),
(383,352,o),
(467,352,cs),
(560,352,ls),
(827,352,o),
(993,495,o),
(993,725,cs),
(993,959,o),
(827,1104,o),
(563,1104,cs),
(298,1104,o),
(137,958,o),
(137,727,cs),
(137,584,o),
(199,474,o),
(306,412,c),
(219,386,o),
(171,322,o),
(171,248,cs),
(171,185,o),
(206,133,o),
(257,102,c),
(122,57,o),
(74,-31,o),
(74,-138,cs),
(74,-326,o),
(222,-414,o),
(543,-414,cs)
);
},
{
closed = 1;
nodes = (
(341,-280,o),
(247,-225,o),
(247,-107,cs),
(247,15,o),
(348,66,o),
(481,66,cs),
(667,66,ls),
(839,66,o),
(903,-3,o),
(903,-102,cs),
(903,-223,o),
(807,-280,o),
(605,-280,cs),
(543,-280,ls)
);
},
{
closed = 1;
nodes = (
(395,470,o),
(303,559,o),
(303,725,cs),
(303,890,o),
(395,984,o),
(563,984,cs),
(732,984,o),
(826,889,o),
(826,725,cs),
(826,560,o),
(732,470,o),
(563,470,cs)
);
},
{
closed = 1;
nodes = (
(874,991,l),
(874,1053,ls),
(874,1097,o),
(882,1108,o),
(924,1108,cs),
(1031,1108,l),
(1031,1248,l),
(901,1248,ls),
(816,1248,o),
(741,1185,o),
(741,1098,cs),
(741,991,l)
);
}
);
};
layerId = m01;
name = "400";
shapes = (
{
closed = 1;
nodes = (
(605,-414,ls),
(928,-414,o),
(1077,-315,o),
(1077,-103,cs),
(1077,28,o),
(1020,206,o),
(679,206,cs),
(463,206,ls),
(381,206,o),
(341,230,o),
(341,277,cs),
(341,327,o),
(383,352,o),
(467,352,cs),
(560,352,ls),
(827,352,o),
(993,495,o),
(993,725,cs),
(993,959,o),
(827,1104,o),
(563,1104,cs),
(298,1104,o),
(137,958,o),
(137,727,cs),
(137,584,o),
(199,474,o),
(306,412,c),
(219,386,o),
(171,322,o),
(171,248,cs),
(171,185,o),
(206,133,o),
(257,102,c),
(122,57,o),
(74,-31,o),
(74,-138,cs),
(74,-326,o),
(222,-414,o),
(543,-414,cs)
);
},
{
closed = 1;
nodes = (
(341,-280,o),
(247,-225,o),
(247,-107,cs),
(247,15,o),
(348,66,o),
(481,66,cs),
(667,66,ls),
(839,66,o),
(903,-3,o),
(903,-102,cs),
(903,-223,o),
(807,-280,o),
(605,-280,cs),
(543,-280,ls)
);
},
{
closed = 1;
nodes = (
(395,470,o),
(303,559,o),
(303,725,cs),
(303,890,o),
(395,984,o),
(563,984,cs),
(732,984,o),
(826,889,o),
(826,725,cs),
(826,560,o),
(732,470,o),
(563,470,cs)
);
},
{
closed = 1;
nodes = (
(874,991,l),
(874,1053,ls),
(874,1097,o),
(882,1108,o),
(924,1108,cs),
(1031,1108,l),
(1031,1248,l),
(901,1248,ls),
(816,1248,o),
(741,1185,o),
(741,1098,cs),
(741,991,l)
);
}
);
width = 1137;
},
{
anchors = (
{
name = bottom;
pos = (603,-494);
},
{
name = top;
pos = (555,1080);
}
);
background = {
anchors = (
{
name = bottom;
pos = (603,-494);
},
{
name = top;
pos = (555,1080);
}
);
shapes = (
{
closed = 1;
nodes = (
(603,-418,ls),
(990,-418,o),
(1177,-306,o),
(1177,-81,cs),
(1177,124,o),
(1022,261,o),
(762,261,cs),
(542,261,ls),
(487,261,o),
(461,272,o),
(461,296,cs),
(461,320,o),
(487,333,o),
(538,333,cs),
(594,333,ls),
(884,333,o),
(1084,491,o),
(1084,720,cs),
(1084,950,o),
(883,1108,o),
(595,1108,cs),
(306,1108,o),
(105,950,o),
(105,720,cs),
(105,592,o),
(167,486,o),
(272,418,c),
(170,388,o),
(115,324,o),
(115,237,cs),
(115,176,o),
(141,121,o),
(191,82,c),
(109,57,o),
(32,-4,o),
(32,-130,cs),
(32,-326,o),
(212,-418,o),
(583,-418,cs)
);
},
{
closed = 1;
nodes = (
(477,-183,o),
(424,-154,o),
(424,-92,cs),
(424,-26,o),
(486,0,o),
(530,0,cs),
(636,0,ls),
(747,0,o),
(774,-39,o),
(774,-85,cs),
(774,-151,o),
(720,-183,o),
(611,-183,cs),
(595,-183,ls)
);
},
{
closed = 1;
nodes = (
(521,573,o),
(475,629,o),
(475,720,cs),
(475,811,o),
(521,867,o),
(595,867,cs),
(669,867,o),
(714,811,o),
(714,720,cs),
(714,629,o),
(669,573,o),
(595,573,cs)
);
},
{
closed = 1;
nodes = (
(963,919,l),
(963,981,ls),
(963,1026,o),
(971,1037,o),
(1013,1037,cs),
(1144,1037,l),
(1144,1317,l),
(1061,1317,ls),
(840,1317,o),
(741,1223,o),
(741,1030,cs),
(741,919,l)
);
}
);
};
layerId = m002;
shapes = (
{
closed = 1;
nodes = (
(603,-418,ls),
(990,-418,o),
(1177,-306,o),
(1177,-81,cs),
(1177,124,o),
(1022,261,o),
(762,261,cs),
(542,261,ls),
(487,261,o),
(461,272,o),
(461,296,cs),
(461,320,o),
(487,333,o),
(538,333,cs),
(594,333,ls),
(884,333,o),
(1084,491,o),
(1084,720,cs),
(1084,950,o),
(883,1108,o),
(595,1108,cs),
(306,1108,o),
(105,950,o),
(105,720,cs),
(105,592,o),
(167,486,o),
(272,418,c),
(170,388,o),
(115,324,o),
(115,237,cs),
(115,176,o),
(141,121,o),
(191,82,c),
(109,57,o),
(32,-4,o),
(32,-130,cs),
(32,-326,o),
(212,-418,o),
(583,-418,cs)
);
},
{
closed = 1;
nodes = (
(477,-183,o),
(424,-154,o),
(424,-92,cs),
(424,-26,o),
(486,0,o),
(530,0,cs),
(636,0,ls),
(747,0,o),
(774,-39,o),
(774,-85,cs),
(774,-151,o),
(720,-183,o),
(611,-183,cs),
(595,-183,ls)
);
},
{
closed = 1;
nodes = (
(521,573,o),
(475,629,o),
(475,720,cs),
(475,811,o),
(521,867,o),
(595,867,cs),
(669,867,o),
(714,811,o),
(714,720,cs),
(714,629,o),
(669,573,o),
(595,573,cs)
);
},
{
closed = 1;
nodes = (
(963,919,l),
(963,981,ls),
(963,1026,o),
(971,1037,o),
(1013,1037,cs),
(1144,1037,l),
(1144,1317,l),
(1061,1317,ls),
(840,1317,o),
(741,1223,o),
(741,1030,cs),
(741,919,l)
);
}
);
width = 1222;
}
);
tags = (
angular,
overshot
);
unicode = 103;
userData = {
KernOnName = g;
};
},
{
glyphname = h;
kernLeft = h;
kernRight = h;
layers = (
{
anchors = (
{
name = bottom;
pos = (601,0);
},
{
name = center;
pos = (280,720);
},
{
name = top;
pos = (247,1500);
}
);
background = {
anchors = (
{
name = bottom;
pos = (601,0);
},
{
name = center;
pos = (280,720);
},
{
name = top;
pos = (247,1500);
}
);
shapes = (
{
closed = 1;
nodes = (
(332,0,l),
(332,565,ls),
(332,831,o),
(459,964,o),
(646,964,cs),
(821,964,o),
(880,850,o),
(880,667,cs),
(880,0,l),
(1048,0,l),
(1048,680,ls),
(1048,945,o),
(906,1104,o),
(679,1104,cs),
(499,1104,o),
(371,1004,o),
(315,870,c),
(332,826,l),
(332,1500,l),
(164,1500,l),
(164,0,l)
);
}
);
};
layerId = m01;
shapes = (
{
closed = 1;
nodes = (
(332,0,l),
(332,565,ls),
(332,831,o),
(459,964,o),
(646,964,cs),
(821,964,o),
(880,850,o),
(880,667,cs),
(880,0,l),
(1048,0,l),
(1048,680,ls),
(1048,945,o),
(906,1104,o),
(679,1104,cs),
(499,1104,o),
(371,1004,o),
(315,870,c),
(332,826,l),
(332,1500,l),
(164,1500,l),
(164,0,l)
);
}
);
width = 1162;
},
{
anchors = (
{
name = bottom;
pos = (670,0);
},
{
name = center;
pos = (379,720);
},
{
name = top;
pos = (331,1500);
}
);
background = {
anchors = (
{
name = bottom;
pos = (670,0);
},
{
name = center;
pos = (379,720);
},
{
name = top;
pos = (331,1500);
}
);
shapes = (
{
closed = 1;
nodes = (
(525,0,l),
(525,494,ls),
(525,709,o),
(573,816,o),
(705,816,cs),
(798,816,o),
(820,761,o),
(820,589,cs),
(820,0,l),
(1219,0,l),
(1219,641,ls),
(1219,903,o),
(1127,1108,o),
(860,1108,cs),
(695,1108,o),
(579,1029,o),
(507,872,c),
(525,827,l),
(525,1500,l),
(125,1500,l),
(125,0,l)
);
}
);
};
layerId = m002;
shapes = (
{
closed = 1;
nodes = (
(525,0,l),
(525,494,ls),
(525,709,o),
(573,816,o),
(705,816,cs),
(798,816,o),
(820,761,o),
(820,589,cs),
(820,0,l),
(1219,0,l),
(1219,641,ls),
(1219,903,o),
(1127,1108,o),
(860,1108,cs),
(695,1108,o),
(579,1029,o),
(507,872,c),
(525,827,l),
(525,1500,l),
(125,1500,l),
(125,0,l)
);
}
);
width = 1294;
}
);
tags = (
overshot
);
unicode = 104;
userData = {
KernOnName = h;
};
},
{
glyphname = idotless;
kernLeft = n;
kernRight = q;
layers = (
{
anchors = (
{
name = bottom;
pos = (248,0);
},
{
name = ogonek;
pos = (332,0);
},
{
name = top;
pos = (248,1080);
}
);
background = {
anchors = (
{
name = bottom;
pos = (248,0);
},
{
name = ogonek;
pos = (332,0);
},
{
name = top;
pos = (248,1080);
}
);
shapes = (
{
closed = 1;
nodes = (
(332,0,l),
(332,1080,l),
(164,1080,l),
(164,0,l)
);
}
);
};
layerId = m01;
shapes = (
{
closed = 1;
nodes = (
(332,0,l),
(332,1080,l),
(164,1080,l),
(164,0,l)
);
}
);
width = 496;
},
{
anchors = (
{
name = bottom;
pos = (325,0);
},
{
name = ogonek;
pos = (525,0);
},
{
name = top;
pos = (325,1080);
}
);
background = {
anchors = (
{
name = bottom;
pos = (325,0);
},
{
name = ogonek;
pos = (525,0);
},
{
name = top;
pos = (325,1080);
}
);
shapes = (
{
closed = 1;
nodes = (
(525,0,l),
(525,1080,l),
(125,1080,l),
(125,0,l)
);
}
);
};
layerId = m002;
shapes = (
{
closed = 1;
nodes = (
(525,0,l),
(525,1080,l),
(125,1080,l),
(125,0,l)
);
}
);
width = 650;
}
);
unicode = 305;
},
{
glyphname = jdotless;
layers = (
{
anchors = (
{
name = bottom;
pos = (312,-494);
},
{
name = top;
pos = (312,1080);
}
);
background = {
anchors = (
{
name = bottom;
pos = (312,-494);
},
{
name = top;
pos = (312,1080);
}
);
shapes = (
{
closed = 1;
nodes = (
(236,-390,ls),
(321,-390,o),
(396,-327,o),
(396,-240,cs),
(396,1080,l),
(228,1080,l),
(228,-195,ls),
(228,-239,o),
(220,-250,o),
(178,-250,cs),
(52,-250,l),
(52,-390,l)
);
}
);
};
layerId = m01;
shapes = (
{
closed = 1;
nodes = (
(236,-390,ls),
(321,-390,o),
(396,-327,o),
(396,-240,cs),
(396,1080,l),
(228,1080,l),
(228,-195,ls),
(228,-239,o),
(220,-250,o),
(178,-250,cs),
(52,-250,l),
(52,-390,l)
);
}
);
width = 557;
},
{
anchors = (
{
name = bottom;
pos = (356,-494);
},
{
name = top;
pos = (356,1080);
}
);
background = {
anchors = (
{
name = bottom;
pos = (356,-494);
},
{
name = top;
pos = (356,1080);
}
);
shapes = (
{
closed = 1;
nodes = (
(234,-390,ls),
(454,-390,o),
(553,-296,o),
(553,-103,cs),
(553,1080,l),
(153,1080,l),
(153,-54,ls),
(153,-99,o),
(145,-110,o),
(103,-110,cs),
(30,-110,l),
(30,-390,l)
);
}
);
};
layerId = m002;
shapes = (
{
closed = 1;
nodes = (
(234,-390,ls),
(454,-390,o),
(553,-296,o),
(553,-103,cs),
(553,1080,l),
(153,1080,l),
(153,-54,ls),
(153,-99,o),
(145,-110,o),
(103,-110,cs),
(30,-110,l),
(30,-390,l)
);
}
);
width = 669;
}
);
unicode = 567;
},
{
glyphname = k;
kernLeft = h;
kernRight = k;
layers = (
{
anchors = (
{
name = bottom;
pos = (558,0);
},
{
name = top;
pos = (558,1950);
}
);
background = {
anchors = (
{
name = bottom;
pos = (558,0);
},
{
name = top;
pos = (558,1950);
}
);
shapes = (
{
closed = 1;
nodes = (
(332,0,l),
(332,403,l),
(500,558,l),
(878,0,l),
(1077,0,l),
(622,670,l),
(1068,1080,l),
(839,1080,l),
(332,597,l),
(332,1500,l),
(164,1500,l),
(164,0,l)
);
}
);
};
guides = (
{
angle = 90;
pos = (925,0);
}
);
layerId = m01;
shapes = (
{
closed = 1;
nodes = (
(332,0,l),
(332,403,l),
(500,558,l),
(878,0,l),
(1077,0,l),
(622,670,l),
(1068,1080,l),
(839,1080,l),
(332,597,l),
(332,1500,l),
(164,1500,l),
(164,0,l)
);
}
);
width = 1130;
},
{
anchors = (
{
name = bottom;
pos = (693,0);
},
{
name = top;
pos = (682,1950);
}
);
background = {
anchors = (
{
name = bottom;
pos = (693,0);
},
{
name = top;
pos = (682,1950);
}
);
shapes = (
{
closed = 1;
nodes = (
(525,0,l),
(525,255,l),
(662,401,l),
(882,0,l),
(1319,0,l),
(923,680,l),
(1299,1080,l),
(871,1080,l),
(525,717,l),
(525,1500,l),
(125,1500,l),
(125,0,l)
);
}
);
};
guides = (
{
angle = 90;
pos = (886,0);
}
);
layerId = m002;
shapes = (
{
closed = 1;
nodes = (
(525,0,l),
(525,255,l),
(662,401,l),
(882,0,l),
(1319,0,l),
(923,680,l),
(1299,1080,l),
(871,1080,l),
(525,717,l),
(525,1500,l),
(125,1500,l),
(125,0,l)
);
}
);
width = 1333;
}
);
unicode = 107;
userData = {
KernOnName = k;
};
},
{
glyphname = kgreenlandic;
kernRight = k;
layers = (
{
background = {
shapes = (
{
closed = 1;
nodes = (
(331,0,l),
(331,402,l),
(501,558,l),
(879,0,l),
(1077,0,l),
(622,670,l),
(1068,1080,l),
(837,1080,l),
(331,606,l),
(331,1080,l),
(164,1080,l),
(164,0,l)
);
}
);
};
layerId = m01;
shapes = (
{
closed = 1;
nodes = (
(331,0,l),
(331,402,l),
(501,558,l),
(879,0,l),
(1077,0,l),
(622,670,l),
(1068,1080,l),
(837,1080,l),
(331,606,l),
(331,1080,l),
(164,1080,l),
(164,0,l)
);
}
);
width = 1130;
},
{
background = {
shapes = (
{
closed = 1;
nodes = (
(525,0,l),
(525,255,l),
(662,401,l),
(882,0,l),
(1319,0,l),
(923,680,l),
(1299,1080,l),
(871,1080,l),
(525,711,l),
(525,1080,l),
(125,1080,l),
(125,0,l)
);
}
);
};
layerId = m002;
shapes = (
{
closed = 1;
nodes = (
(525,0,l),
(525,255,l),
(662,401,l),
(882,0,l),
(1319,0,l),
(923,680,l),
(1299,1080,l),
(871,1080,l),
(525,711,l),
(525,1080,l),
(125,1080,l),
(125,0,l)
);
}
);
width = 1334;
}
);
unicode = 312;
},
{
glyphname = l;
kernLeft = l;
kernRight = l;
layers = (
{
anchors = (
{
name = bottom;
pos = (275,0);
},
{
name = center;
pos = (245,720);
},
{
name = centerExt;
pos = (520,720);
},
{
name = top;
pos = (255,1500);
},
{
name = topright;
pos = (524,1950);
}
);
background = {
anchors = (
{
name = bottom;
pos = (275,0);
},
{
name = center;
pos = (245,720);
},
{
name = centerExt;
pos = (520,720);
},
{
name = top;
pos = (255,1500);
},
{
name = topright;
pos = (524,1950);
}
);
shapes = (
{
closed = 1;
nodes = (
(484,0,l),
(484,140,l),
(379,140,ls),
(337,140,o),
(329,151,o),
(329,195,cs),
(329,1500,l),
(161,1500,l),
(161,150,ls),
(161,63,o),
(236,0,o),
(321,0,cs)
);
}
);
};
layerId = m01;
name = Regular;
shapes = (
{
closed = 1;
nodes = (
(484,0,l),
(484,140,l),
(379,140,ls),
(337,140,o),
(329,151,o),
(329,195,cs),
(329,1500,l),
(161,1500,l),
(161,150,ls),
(161,63,o),
(236,0,o),
(321,0,cs)
);
}
);
width = 536;
},
{
anchors = (
{
name = bottom;
pos = (355,0);
},
{
name = center;
pos = (317,750);
},
{
name = centerExt;
pos = (813,720);
},
{
name = top;
pos = (317,1500);
},
{
name = topright;
pos = (640,1950);
}
);
background = {
anchors = (
{
name = bottom;
pos = (355,0);
},
{
name = center;
pos = (317,750);
},
{
name = centerExt;
pos = (813,720);
},
{
name = top;
pos = (317,1500);
},
{
name = topright;
pos = (640,1950);
}
);
shapes = (
{
closed = 1;
nodes = (
(633,0,l),
(633,280,l),
(567,280,ls),
(525,280,o),
(517,291,o),
(517,336,cs),
(517,1500,l),
(117,1500,l),
(117,287,ls),
(117,94,o),
(216,0,o),
(436,0,cs)
);
}
);
};
guides = (
{
angle = 90;
pos = (317,1037);
}
);
layerId = m002;
name = Regular;
shapes = (
{
closed = 1;
nodes = (
(633,0,l),
(633,280,l),
(567,280,ls),
(525,280,o),
(517,291,o),
(517,336,cs),
(517,1500,l),
(117,1500,l),
(117,287,ls),
(117,94,o),
(216,0,o),
(436,0,cs)
);
}
);
width = 668;
}
);
metricLeft = "=l";
tags = (
angular
);
unicode = 108;
userData = {
KernOnName = l;
};
},
{
glyphname = m;
kernLeft = n;
kernRight = n;
layers = (
{
background = {
shapes = (
{
closed = 1;
nodes = (
(331,0,l),
(331,565,ls),
(331,823,o),
(456,964,o),
(621,964,cs),
(768,964,o),
(819,850,o),
(819,667,cs),
(819,0,l),
(987,0,l),
(987,565,ls),
(987,820,o),
(1110,964,o),
(1275,964,cs),
(1424,964,o),
(1475,850,o),
(1475,667,cs),
(1475,0,l),
(1643,0,l),
(1643,680,ls),
(1643,945,o),
(1514,1104,o),
(1307,1104,cs),
(1149,1104,o),
(1029,1012,o),
(961,880,c),
(909,1023,o),
(799,1104,o),
(656,1104,cs),
(495,1104,o),
(372,1007,o),
(321,895,c),
(321,1080,l),
(163,1080,l),
(163,0,l)
);
}
);
};
guides = (
{
pos = (321,886);
}
);
layerId = m01;
shapes = (
{
closed = 1;
nodes = (
(331,0,l),
(331,565,ls),
(331,823,o),
(456,964,o),
(621,964,cs),
(768,964,o),
(819,850,o),
(819,667,cs),
(819,0,l),
(987,0,l),
(987,565,ls),
(987,820,o),
(1110,964,o),
(1275,964,cs),
(1424,964,o),
(1475,850,o),
(1475,667,cs),
(1475,0,l),
(1643,0,l),
(1643,680,ls),
(1643,945,o),
(1514,1104,o),
(1307,1104,cs),
(1149,1104,o),
(1029,1012,o),
(961,880,c),
(909,1023,o),
(799,1104,o),
(656,1104,cs),
(495,1104,o),
(372,1007,o),
(321,895,c),
(321,1080,l),
(163,1080,l),
(163,0,l)
);
}
);
width = 1787;
},
{
background = {
shapes = (
{
closed = 1;
nodes = (
(524,0,l),
(524,505,ls),
(524,671,o),
(559,816,o),
(675,816,cs),
(763,816,o),
(777,732,o),
(777,658,cs),
(777,0,l),
(1177,0,l),
(1177,506,ls),
(1177,670,o),
(1211,816,o),
(1328,816,cs),
(1417,816,o),
(1430,731,o),
(1430,658,cs),
(1430,0,l),
(1830,0,l),
(1830,642,ls),
(1830,948,o),
(1717,1108,o),
(1490,1108,cs),
(1364,1108,o),
(1232,1058,o),
(1141,895,c),
(1091,1036,o),
(990,1108,o),
(834,1108,cs),
(694,1108,o),
(587,1051,o),
(514,915,c),
(514,1080,l),
(124,1080,l),
(124,0,l)
);
}
);
};
layerId = m002;
name = "800";
shapes = (
{
closed = 1;
nodes = (
(524,0,l),
(524,505,ls),
(524,671,o),
(559,816,o),
(675,816,cs),
(763,816,o),
(777,732,o),
(777,658,cs),
(777,0,l),
(1177,0,l),
(1177,506,ls),
(1177,670,o),
(1211,816,o),
(1328,816,cs),
(1417,816,o),
(1430,731,o),
(1430,658,cs),
(1430,0,l),
(1830,0,l),
(1830,642,ls),
(1830,948,o),
(1717,1108,o),
(1490,1108,cs),
(1364,1108,o),
(1232,1058,o),
(1141,895,c),
(1091,1036,o),
(990,1108,o),
(834,1108,cs),
(694,1108,o),
(587,1051,o),
(514,915,c),
(514,1080,l),
(124,1080,l),
(124,0,l)
);
}
);
width = 1935;
}
);
tags = (
overshot
);
unicode = 109;
},
{
glyphname = n;
kernLeft = n;
kernRight = n;
layers = (
{
anchors = (
{
name = bottom;
pos = (600,0);
},
{
name = bottomLeft;
pos = (163,0);
},
{
name = bottomRight;
pos = (1047,0);
},
{
name = top;
pos = (635,1080);
}
);
background = {
anchors = (
{
name = bottom;
pos = (600,0);
},
{
name = bottomLeft;
pos = (163,0);
},
{
name = bottomRight;
pos = (1047,0);
},
{
name = top;
pos = (635,1080);
}
);
shapes = (
{
closed = 1;
nodes = (
(331,0,l),
(331,565,ls),
(331,823,o),
(465,964,o),
(645,964,cs),
(811,964,o),
(879,844,o),
(879,667,cs),
(879,0,l),
(1047,0,l),
(1047,680,ls),
(1047,945,o),
(905,1104,o),
(676,1104,cs),
(498,1104,o),
(371,1004,o),
(314,880,c),
(321,836,l),
(321,1080,l),
(163,1080,l),
(163,0,l)
);
}
);
};
layerId = m01;
shapes = (
{
closed = 1;
nodes = (
(331,0,l),
(331,565,ls),
(331,823,o),
(465,964,o),
(645,964,cs),
(811,964,o),
(879,844,o),
(879,667,cs),
(879,0,l),
(1047,0,l),
(1047,680,ls),
(1047,945,o),
(905,1104,o),
(676,1104,cs),
(498,1104,o),
(371,1004,o),
(314,880,c),
(321,836,l),
(321,1080,l),
(163,1080,l),
(163,0,l)
);
}
);
width = 1190;
},
{
anchors = (
{
name = bottom;
pos = (669,0);
},
{
name = bottomLeft;
pos = (124,0);
},
{
name = bottomRight;
pos = (1218,0);
},
{
name = top;
pos = (719,1080);
}
);
background = {
anchors = (
{
name = bottom;
pos = (669,0);
},
{
name = bottomLeft;
pos = (124,0);
},
{
name = bottomRight;
pos = (1218,0);
},
{
name = top;
pos = (719,1080);
}
);
shapes = (
{
closed = 1;
nodes = (
(524,0,l),
(524,440,ls),
(524,703,o),
(576,816,o),
(699,816,cs),
(791,816,o),
(818,752,o),
(818,617,cs),
(818,0,l),
(1218,0,l),
(1218,641,ls),
(1218,903,o),
(1126,1108,o),
(859,1108,cs),
(694,1108,o),
(578,1029,o),
(506,872,c),
(514,827,l),
(514,1080,l),
(124,1080,l),
(124,0,l)
);
}
);
};
layerId = m002;
shapes = (
{
closed = 1;
nodes = (
(524,0,l),
(524,440,ls),
(524,703,o),
(576,816,o),
(699,816,cs),
(791,816,o),
(818,752,o),
(818,617,cs),
(818,0,l),
(1218,0,l),
(1218,641,ls),
(1218,903,o),
(1126,1108,o),
(859,1108,cs),
(694,1108,o),
(578,1029,o),
(506,872,c),
(514,827,l),
(514,1080,l),
(124,1080,l),
(124,0,l)
);
}
);
width = 1322;
}
);
tags = (
overshot
);
unicode = 110;
userData = {
KernOnName = n;
};
},
{
glyphname = o;
kernLeft = o;
kernRight = o;
layers = (
{
anchors = (
{
name = bottom;
pos = (637,0);
},
{
name = center;
pos = (637,540);
},
{
name = ogonek;
pos = (815,0);
},
{
name = top;
pos = (637,1080);
},
{
name = topright;
pos = (1229,1080);
}
);
background = {
anchors = (
{
name = bottom;
pos = (637,0);
},
{
name = center;
pos = (637,540);
},
{
name = ogonek;
pos = (815,0);
},
{
name = top;
pos = (637,1080);
},
{
name = topright;
pos = (1229,1080);
}
);
shapes = (
{
closed = 1;
nodes = (
(980,-28,o),
(1219,204,o),
(1219,540,cs),
(1219,876,o),
(981,1108,o),
(636,1108,cs),
(291,1108,o),
(55,876,o),
(55,540,cs),
(55,205,o),
(291,-28,o),
(636,-28,cs)
);
},
{
closed = 1;
nodes = (
(532,254,o),
(467,363,o),
(467,540,cs),
(467,716,o),
(532,826,o),
(637,826,cs),
(742,826,o),
(807,716,o),
(807,540,cs),
(807,364,o),
(742,254,o),
(637,254,cs)
);
}
);
};
layerId = m002;
shapes = (
{
closed = 1;
nodes = (
(980,-28,o),
(1219,204,o),
(1219,540,cs),
(1219,876,o),
(981,1108,o),
(636,1108,cs),
(291,1108,o),
(55,876,o),
(55,540,cs),
(55,205,o),
(291,-28,o),
(636,-28,cs)
);
},
{
closed = 1;
nodes = (
(532,254,o),
(467,363,o),
(467,540,cs),
(467,716,o),
(532,826,o),
(637,826,cs),
(742,826,o),
(807,716,o),
(807,540,cs),
(807,364,o),
(742,254,o),
(637,254,cs)
);
}
);
width = 1274;
},
{
anchors = (
{
name = bottom;
pos = (611,0);
},
{
name = center;
pos = (611,540);
},
{
name = ogonek;
pos = (766,0);
},
{
name = top;
pos = (611,1080);
},
{
name = topright;
pos = (1200,1080);
}
);
background = {
anchors = (
{
name = bottom;
pos = (611,0);
},
{
name = center;
pos = (611,540);
},
{
name = ogonek;
pos = (766,0);
},
{
name = top;
pos = (611,1080);
},
{
name = topright;
pos = (1200,1080);
}
);
shapes = (
{
closed = 1;
nodes = (
(915,-24,o),
(1125,206,o),
(1125,540,cs),
(1125,874,o),
(915,1104,o),
(611,1104,cs),
(307,1104,o),
(97,874,o),
(97,540,cs),
(97,206,o),
(307,-24,o),
(611,-24,cs)
);
},
{
closed = 1;
nodes = (
(407,116,o),
(281,278,o),
(281,540,cs),
(281,802,o),
(407,964,o),
(611,964,cs),
(815,964,o),
(941,802,o),
(941,540,cs),
(941,278,o),
(815,116,o),
(611,116,cs)
);
}
);
};
layerId = m01;
name = "400";
shapes = (
{
closed = 1;
nodes = (
(915,-24,o),
(1125,206,o),
(1125,540,cs),
(1125,874,o),
(915,1104,o),
(611,1104,cs),
(307,1104,o),
(97,874,o),
(97,540,cs),
(97,206,o),
(307,-24,o),
(611,-24,cs)
);
},
{
closed = 1;
nodes = (
(407,116,o),
(281,278,o),
(281,540,cs),
(281,802,o),
(407,964,o),
(611,964,cs),
(815,964,o),
(941,802,o),
(941,540,cs),
(941,278,o),
(815,116,o),
(611,116,cs)
);
}
);
width = 1222;
}
);
tags = (
overshot
);
unicode = 111;
userData = {
KernOnName = o;
};
},
{
glyphname = oe;
kernLeft = o;
kernRight = e;
layers = (
{
background = {
shapes = (
{
closed = 1;
nodes = (
(752,-24,o),
(885,45,o),
(972,163,c),
(1056,43,o),
(1186,-24,o),
(1351,-24,cs),
(1561,-24,o),
(1715,86,o),
(1789,274,c),
(1624,330,l),
(1580,191,o),
(1486,116,o),
(1351,116,cs),
(1170,116,o),
(1064,255,o),
(1055,500,c),
(1813,500,l),
(1813,978,o),
(1564,1104,o),
(1344,1104,cs),
(1183,1104,o),
(1055,1036,o),
(972,917,c),
(885,1035,o),
(752,1104,o),
(592,1104,cs),
(300,1104,o),
(98,874,o),
(98,540,cs),
(98,206,o),
(300,-24,o),
(592,-24,cs)
);
},
{
closed = 1;
nodes = (
(400,116,o),
(282,278,o),
(282,540,cs),
(282,802,o),
(400,964,o),
(592,964,cs),
(784,964,o),
(902,802,o),
(902,540,cs),
(902,278,o),
(784,116,o),
(592,116,cs)
);
},
{
closed = 1;
nodes = (
(1084,849,o),
(1186,964,o),
(1341,964,cs),
(1477,964,o),
(1591,874,o),
(1614,640,c),
(1060,640,l)
);
}
);
};
layerId = m01;
shapes = (
{
closed = 1;
nodes = (
(752,-24,o),
(885,45,o),
(972,163,c),
(1056,43,o),
(1186,-24,o),
(1351,-24,cs),
(1561,-24,o),
(1715,86,o),
(1789,274,c),
(1624,330,l),
(1580,191,o),
(1486,116,o),
(1351,116,cs),
(1170,116,o),
(1064,255,o),
(1055,500,c),
(1813,500,l),
(1813,978,o),
(1564,1104,o),
(1344,1104,cs),
(1183,1104,o),
(1055,1036,o),
(972,917,c),
(885,1035,o),
(752,1104,o),
(592,1104,cs),
(300,1104,o),
(98,874,o),
(98,540,cs),
(98,206,o),
(300,-24,o),
(592,-24,cs)
);
},
{
closed = 1;
nodes = (
(400,116,o),
(282,278,o),
(282,540,cs),
(282,802,o),
(400,964,o),
(592,964,cs),
(784,964,o),
(902,802,o),
(902,540,cs),
(902,278,o),
(784,116,o),
(592,116,cs)
);
},
{
closed = 1;
nodes = (
(1084,849,o),
(1186,964,o),
(1341,964,cs),
(1477,964,o),
(1591,874,o),
(1614,640,c),
(1060,640,l)
);
}
);
width = 1905;
},
{
background = {
shapes = (
{
closed = 1;
nodes = (
(772,-28,o),
(903,31,o),
(1005,140,c),
(1113,30,o),
(1257,-28,o),
(1412,-28,cs),
(1612,-28,o),
(1842,68,o),
(1913,311,c),
(1561,390,l),
(1525,294,o),
(1467,255,o),
(1391,255,cs),
(1281,255,o),
(1229,337,o),
(1216,465,c),
(1931,465,l),
(1931,992,o),
(1635,1108,o),
(1403,1108,cs),
(1241,1108,o),
(1107,1051,o),
(1003,951,c),
(903,1051,o),
(783,1108,o),
(620,1108,cs),
(290,1108,o),
(56,876,o),
(56,538,cs),
(56,205,o),
(283,-28,o),
(608,-28,cs)
);
},
{
closed = 1;
nodes = (
(529,254,o),
(468,363,o),
(468,540,cs),
(468,716,o),
(529,826,o),
(628,826,cs),
(727,826,o),
(788,716,o),
(788,540,cs),
(788,364,o),
(727,254,o),
(628,254,cs)
);
},
{
closed = 1;
nodes = (
(1241,768,o),
(1291,845,o),
(1385,845,cs),
(1463,845,o),
(1522,791,o),
(1546,661,c),
(1222,661,l)
);
}
);
};
layerId = m002;
shapes = (
{
closed = 1;
nodes = (
(772,-28,o),
(903,31,o),
(1005,140,c),
(1113,30,o),
(1257,-28,o),
(1412,-28,cs),
(1612,-28,o),
(1842,68,o),
(1913,311,c),
(1561,390,l),
(1525,294,o),
(1467,255,o),
(1391,255,cs),
(1281,255,o),
(1229,337,o),
(1216,465,c),
(1931,465,l),
(1931,992,o),
(1635,1108,o),
(1403,1108,cs),
(1241,1108,o),
(1107,1051,o),
(1003,951,c),
(903,1051,o),
(783,1108,o),
(620,1108,cs),
(290,1108,o),
(56,876,o),
(56,538,cs),
(56,205,o),
(283,-28,o),
(608,-28,cs)
);
},
{
closed = 1;
nodes = (
(529,254,o),
(468,363,o),
(468,540,cs),
(468,716,o),
(529,826,o),
(628,826,cs),
(727,826,o),
(788,716,o),
(788,540,cs),
(788,364,o),
(727,254,o),
(628,254,cs)
);
},
{
closed = 1;
nodes = (
(1241,768,o),
(1291,845,o),
(1385,845,cs),
(1463,845,o),
(1522,791,o),
(1546,661,c),
(1222,661,l)
);
}
);
width = 1986;
}
);
unicode = 339;
},
{
glyphname = p;
kernLeft = n;
kernRight = p;
layers = (
{
background = {
shapes = (
{
closed = 1;
nodes = (
(327,-390,l),
(327,216,l),
(312,208,l),
(383,40,o),
(538,-24,o),
(679,-24,cs),
(941,-24,o),
(1123,193,o),
(1123,539,cs),
(1123,885,o),
(942,1104,o),
(679,1104,cs),
(526,1104,o),
(375,1028,o),
(316,871,c),
(321,855,l),
(321,1080,l),
(163,1080,l),
(163,-390,l)
);
},
{
closed = 1;
nodes = (
(464,116,o),
(326,253,o),
(326,543,cs),
(326,836,o),
(466,964,o),
(635,964,cs),
(819,964,o),
(939,810,o),
(939,543,cs),
(939,268,o),
(812,116,o),
(633,116,cs)
);
}
);
};
guides = (
{
pos = (360,-358);
},
{
pos = (379,-408);
}
);
layerId = m01;
shapes = (
{
closed = 1;
nodes = (
(327,-390,l),
(327,216,l),
(312,208,l),
(383,40,o),
(538,-24,o),
(679,-24,cs),
(941,-24,o),
(1123,193,o),
(1123,539,cs),
(1123,885,o),
(942,1104,o),
(679,1104,cs),
(526,1104,o),
(375,1028,o),
(316,871,c),
(321,855,l),
(321,1080,l),
(163,1080,l),
(163,-390,l)
);
},
{
closed = 1;
nodes = (
(464,116,o),
(326,253,o),
(326,543,cs),
(326,836,o),
(466,964,o),
(635,964,cs),
(819,964,o),
(939,810,o),
(939,543,cs),
(939,268,o),
(812,116,o),
(633,116,cs)
);
}
);
width = 1208;
},
{
background = {
shapes = (
{
closed = 1;
nodes = (
(524,-390,l),
(524,209,l),
(486,211,l),
(569,45,o),
(675,-28,o),
(848,-28,cs),
(1136,-28,o),
(1300,174,o),
(1300,537,cs),
(1300,902,o),
(1136,1108,o),
(857,1108,cs),
(701,1108,o),
(588,1043,o),
(502,885,c),
(504,870,l),
(504,1080,l),
(124,1080,l),
(124,-390,l)
);
},
{
closed = 1;
nodes = (
(584,265,o),
(503,362,o),
(503,541,cs),
(503,719,o),
(582,816,o),
(697,816,cs),
(815,816,o),
(881,715,o),
(881,545,cs),
(881,374,o),
(813,265,o),
(695,265,cs)
);
}
);
};
layerId = m002;
shapes = (
{
closed = 1;
nodes = (
(524,-390,l),
(524,209,l),
(486,211,l),
(569,45,o),
(675,-28,o),
(848,-28,cs),
(1136,-28,o),
(1300,174,o),
(1300,537,cs),
(1300,902,o),
(1136,1108,o),
(857,1108,cs),
(701,1108,o),
(588,1043,o),
(502,885,c),
(504,870,l),
(504,1080,l),
(124,1080,l),
(124,-390,l)
);
},
{
closed = 1;
nodes = (
(584,265,o),
(503,362,o),
(503,541,cs),
(503,719,o),
(582,816,o),
(697,816,cs),
(815,816,o),
(881,715,o),
(881,545,cs),
(881,374,o),
(813,265,o),
(695,265,cs)
);
}
);
width = 1349;
}
);
tags = (
overshot
);
unicode = 112;
userData = {
KernOnName = p;
};
},
{
glyphname = thorn;
kernLeft = h;
layers = (
{
background = {
shapes = (
{
closed = 1;
nodes = (
(328,-390,l),
(328,216,l),
(313,208,l),
(384,40,o),
(539,-24,o),
(680,-24,cs),
(942,-24,o),
(1124,193,o),
(1124,539,cs),
(1124,885,o),
(943,1104,o),
(680,1104,cs),
(527,1104,o),
(376,1028,o),
(317,871,c),
(328,855,l),
(328,1500,l),
(164,1500,l),
(164,-390,l)
);
},
{
closed = 1;
nodes = (
(465,116,o),
(327,253,o),
(327,543,cs),
(327,836,o),
(467,964,o),
(636,964,cs),
(820,964,o),
(940,810,o),
(940,543,cs),
(940,268,o),
(813,116,o),
(634,116,cs)
);
}
);
};
layerId = m01;
shapes = (
{
closed = 1;
nodes = (
(328,-390,l),
(328,216,l),
(313,208,l),
(384,40,o),
(539,-24,o),
(680,-24,cs),
(942,-24,o),
(1124,193,o),
(1124,539,cs),
(1124,885,o),
(943,1104,o),
(680,1104,cs),
(527,1104,o),
(376,1028,o),
(317,871,c),
(328,855,l),
(328,1500,l),
(164,1500,l),
(164,-390,l)
);
},
{
closed = 1;
nodes = (
(465,116,o),
(327,253,o),
(327,543,cs),
(327,836,o),
(467,964,o),
(636,964,cs),
(820,964,o),
(940,810,o),
(940,543,cs),
(940,268,o),
(813,116,o),
(634,116,cs)
);
}
);
width = 1199;
},
{
background = {
shapes = (
{
closed = 1;
nodes = (
(525,-390,l),
(525,209,l),
(487,211,l),
(570,45,o),
(676,-28,o),
(849,-28,cs),
(1137,-28,o),
(1301,174,o),
(1301,537,cs),
(1301,902,o),
(1137,1108,o),
(858,1108,cs),
(702,1108,o),
(589,1043,o),
(503,885,c),
(525,870,l),
(525,1500,l),
(125,1500,l),
(125,-390,l)
);
},
{
closed = 1;
nodes = (
(585,265,o),
(504,362,o),
(504,541,cs),
(504,719,o),
(583,816,o),
(698,816,cs),
(816,816,o),
(882,715,o),
(882,545,cs),
(882,374,o),
(814,265,o),
(696,265,cs)
);
}
);
};
layerId = m002;
shapes = (
{
closed = 1;
nodes = (
(525,-390,l),
(525,209,l),
(487,211,l),
(570,45,o),
(676,-28,o),
(849,-28,cs),
(1137,-28,o),
(1301,174,o),
(1301,537,cs),
(1301,902,o),
(1137,1108,o),
(858,1108,cs),
(702,1108,o),
(589,1043,o),
(503,885,c),
(525,870,l),
(525,1500,l),
(125,1500,l),
(125,-390,l)
);
},
{
closed = 1;
nodes = (
(585,265,o),
(504,362,o),
(504,541,cs),
(504,719,o),
(583,816,o),
(698,816,cs),
(816,816,o),
(882,715,o),
(882,545,cs),
(882,374,o),
(814,265,o),
(696,265,cs)
);
}
);
width = 1339;
}
);
unicode = 254;
},
{
glyphname = q;
kernLeft = q;
kernRight = q;
layers = (
{
background = {
shapes = (
{
closed = 1;
nodes = (
(1045,-390,l),
(1045,1080,l),
(887,1080,l),
(887,864,l),
(896,872,l),
(825,1040,o),
(670,1104,o),
(529,1104,cs),
(267,1104,o),
(85,887,o),
(85,541,cs),
(85,195,o),
(266,-24,o),
(529,-24,cs),
(682,-24,o),
(833,52,o),
(892,209,c),
(877,225,l),
(877,-390,l)
);
},
{
closed = 1;
nodes = (
(389,116,o),
(269,270,o),
(269,537,cs),
(269,812,o),
(396,964,o),
(575,964,cs),
(744,964,o),
(882,827,o),
(882,537,cs),
(882,244,o),
(742,116,o),
(573,116,cs)
);
}
);
};
layerId = m01;
shapes = (
{
closed = 1;
nodes = (
(1045,-390,l),
(1045,1080,l),
(887,1080,l),
(887,864,l),
(896,872,l),
(825,1040,o),
(670,1104,o),
(529,1104,cs),
(267,1104,o),
(85,887,o),
(85,541,cs),
(85,195,o),
(266,-24,o),
(529,-24,cs),
(682,-24,o),
(833,52,o),
(892,209,c),
(877,225,l),
(877,-390,l)
);
},
{
closed = 1;
nodes = (
(389,116,o),
(269,270,o),
(269,537,cs),
(269,812,o),
(396,964,o),
(575,964,cs),
(744,964,o),
(882,827,o),
(882,537,cs),
(882,244,o),
(742,116,o),
(573,116,cs)
);
}
);
width = 1208;
},
{
background = {
shapes = (
{
closed = 1;
nodes = (
(1224,-390,l),
(1224,1080,l),
(844,1080,l),
(844,872,l),
(863,869,l),
(780,1036,o),
(673,1108,o),
(500,1108,cs),
(212,1108,o),
(49,906,o),
(49,543,cs),
(49,179,o),
(213,-28,o),
(492,-28,cs),
(650,-28,o),
(763,41,o),
(846,196,c),
(824,211,l),
(824,-390,l)
);
},
{
closed = 1;
nodes = (
(533,265,o),
(468,367,o),
(468,535,cs),
(468,707,o),
(536,816,o),
(654,816,cs),
(765,816,o),
(846,718,o),
(846,539,cs),
(846,362,o),
(767,265,o),
(651,265,cs)
);
}
);
};
layerId = m002;
shapes = (
{
closed = 1;
nodes = (
(1224,-390,l),
(1224,1080,l),
(844,1080,l),
(844,872,l),
(863,869,l),
(780,1036,o),
(673,1108,o),
(500,1108,cs),
(212,1108,o),
(49,906,o),
(49,543,cs),
(49,179,o),
(213,-28,o),
(492,-28,cs),
(650,-28,o),
(763,41,o),
(846,196,c),
(824,211,l),
(824,-390,l)
);
},
{
closed = 1;
nodes = (
(533,265,o),
(468,367,o),
(468,535,cs),
(468,707,o),
(536,816,o),
(654,816,cs),
(765,816,o),
(846,718,o),
(846,539,cs),
(846,362,o),
(767,265,o),
(651,265,cs)
);
}
);
width = 1348;
}
);
tags = (
overshot
);
unicode = 113;
userData = {
KernOnName = q;
};
},
{
glyphname = r;
kernLeft = n;
kernRight = r;
layers = (
{
anchors = (
{
name = bottom;
pos = (247,0);
},
{
name = top;
pos = (503,1080);
}
);
background = {
anchors = (
{
name = bottom;
pos = (247,0);
},
{
name = top;
pos = (503,1080);
}
);
shapes = (
{
closed = 1;
nodes = (
(331,0,l),
(331,540,ls),
(331,894,o),
(542,941,o),
(632,941,cs),
(665,941,o),
(702,936,o),
(741,924,c),
(763,1082,l),
(731,1098,o),
(693,1104,o),
(655,1104,cs),
(523,1104,o),
(379,1026,o),
(315,877,c),
(321,851,l),
(321,1080,l),
(163,1080,l),
(163,0,l)
);
}
);
};
guides = (
{
angle = 90;
pos = (247,0);
}
);
layerId = m01;
name = Regular;
shapes = (
{
closed = 1;
nodes = (
(331,0,l),
(331,540,ls),
(331,894,o),
(542,941,o),
(632,941,cs),
(665,941,o),
(702,936,o),
(741,924,c),
(763,1082,l),
(731,1098,o),
(693,1104,o),
(655,1104,cs),
(523,1104,o),
(379,1026,o),
(315,877,c),
(321,851,l),
(321,1080,l),
(163,1080,l),
(163,0,l)
);
}
);
width = 822;
},
{
anchors = (
{
name = bottom;
pos = (324,0);
},
{
name = top;
pos = (564,1080);
}
);
background = {
anchors = (
{
name = bottom;
pos = (324,0);
},
{
name = top;
pos = (564,1080);
}
);
shapes = (
{
closed = 1;
nodes = (
(524,0,l),
(524,387,ls),
(524,681,o),
(666,775,o),
(830,775,cs),
(874,775,o),
(922,768,o),
(968,756,c),
(991,1086,l),
(942,1102,o),
(894,1108,o),
(850,1108,cs),
(691,1108,o),
(569,1031,o),
(497,862,c),
(514,826,l),
(514,1080,l),
(124,1080,l),
(124,0,l)
);
}
);
};
layerId = m002;
name = Regular;
shapes = (
{
closed = 1;
nodes = (
(524,0,l),
(524,387,ls),
(524,681,o),
(666,775,o),
(830,775,cs),
(874,775,o),
(922,768,o),
(968,756,c),
(991,1086,l),
(942,1102,o),
(894,1108,o),
(850,1108,cs),
(691,1108,o),
(569,1031,o),
(497,862,c),
(514,826,l),
(514,1080,l),
(124,1080,l),
(124,0,l)
);
}
);
width = 1029;
}
);
tags = (
overshot
);
unicode = 114;
userData = {
KernOnName = r;
};
},
{
glyphname = s;
kernLeft = s;
kernRight = s;
layers = (
{
anchors = (
{
name = bottom;
pos = (581,0);
},
{
name = top;
pos = (591,1080);
}
);
background = {
anchors = (
{
name = bottom;
pos = (581,0);
},
{
name = top;
pos = (591,1080);
}
);
shapes = (
{
closed = 1;
nodes = (
(883,-28,o),
(1113,91,o),
(1113,334,cs),
(1113,554,o),
(927,639,o),
(754,661,cs),
(658,673,ls),
(566,685,o),
(469,703,o),
(469,770,cs),
(469,810,o),
(504,846,o),
(590,846,cs),
(713,846,o),
(741,772,o),
(755,721,c),
(1095,792,l),
(1050,1003,o),
(820,1108,o),
(571,1108,cs),
(266,1108,o),
(82,956,o),
(82,740,cs),
(82,484,o),
(337,449,o),
(501,429,cs),
(574,420,ls),
(696,405,o),
(726,360,o),
(726,323,cs),
(726,282,o),
(688,241,o),
(571,241,cs),
(447,241,o),
(401,288,o),
(390,372,c),
(43,303,l),
(82,63,o),
(336,-28,o),
(589,-28,cs)
);
}
);
};
layerId = m002;
name = Regular;
shapes = (
{
closed = 1;
nodes = (
(883,-28,o),
(1113,91,o),
(1113,334,cs),
(1113,554,o),
(927,639,o),
(754,661,cs),
(658,673,ls),
(566,685,o),
(469,703,o),
(469,770,cs),
(469,810,o),
(504,846,o),
(590,846,cs),
(713,846,o),
(741,772,o),
(755,721,c),
(1095,792,l),
(1050,1003,o),
(820,1108,o),
(571,1108,cs),
(266,1108,o),
(82,956,o),
(82,740,cs),
(82,484,o),
(337,449,o),
(501,429,cs),
(574,420,ls),
(696,405,o),
(726,360,o),
(726,323,cs),
(726,282,o),
(688,241,o),
(571,241,cs),
(447,241,o),
(401,288,o),
(390,372,c),
(43,303,l),
(82,63,o),
(336,-28,o),
(589,-28,cs)
);
}
);
width = 1166;
},
{
anchors = (
{
name = bottom;
pos = (543,0);
},
{
name = top;
pos = (567,1080);
}
);
background = {
anchors = (
{
name = bottom;
pos = (543,0);
},
{
name = top;
pos = (567,1080);
}
);
shapes = (
{
closed = 1;
nodes = (
(781,-24,o),
(953,105,o),
(953,320,cs),
(953,513,o),
(808,584,o),
(641,619,cs),
(508,647,ls),
(369,676,o),
(303,721,o),
(303,809,cs),
(303,914,o),
(406,966,o),
(530,966,cs),
(684,966,o),
(748,888,o),
(762,766,c),
(947,803,l),
(910,992,o),
(764,1104,o),
(533,1104,cs),
(320,1104,o),
(133,1008,o),
(133,797,cs),
(133,587,o),
(319,531,o),
(460,504,cs),
(591,479,ls),
(711,456,o),
(776,403,o),
(776,310,cs),
(776,200,o),
(679,114,o),
(529,114,cs),
(377,114,o),
(267,195,o),
(253,365,c),
(77,331,l),
(118,89,o),
(298,-24,o),
(532,-24,cs)
);
}
);
};
layerId = m01;
name = "400";
shapes = (
{
closed = 1;
nodes = (
(781,-24,o),
(953,105,o),
(953,320,cs),
(953,513,o),
(808,584,o),
(641,619,cs),
(508,647,ls),
(369,676,o),
(303,721,o),
(303,809,cs),
(303,914,o),
(406,966,o),
(530,966,cs),
(684,966,o),
(748,888,o),
(762,766,c),
(947,803,l),
(910,992,o),
(764,1104,o),
(533,1104,cs),
(320,1104,o),
(133,1008,o),
(133,797,cs),
(133,587,o),
(319,531,o),
(460,504,cs),
(591,479,ls),
(711,456,o),
(776,403,o),
(776,310,cs),
(776,200,o),
(679,114,o),
(529,114,cs),
(377,114,o),
(267,195,o),
(253,365,c),
(77,331,l),
(118,89,o),
(298,-24,o),
(532,-24,cs)
);
}
);
width = 1050;
}
);
tags = (
overshot
);
unicode = 115;
userData = {
KernOnName = s;
};
},
{
glyphname = germandbls;
kernLeft = germandbls;
kernRight = B;
layers = (
{
background = {
shapes = (
{
closed = 1;
nodes = (
(893,-24,o),
(1145,126,o),
(1145,429,cs),
(1145,637,o),
(1027,783,o),
(810,826,c),
(997,870,o),
(1089,988,o),
(1089,1139,cs),
(1089,1363,o),
(887,1524,o),
(639,1524,cs),
(318,1524,o),
(141,1268,o),
(141,1005,cs),
(141,0,l),
(309,0,l),
(309,940,ls),
(309,1232,o),
(408,1384,o),
(627,1384,cs),
(825,1384,o),
(913,1253,o),
(913,1131,cs),
(913,1002,o),
(816,892,o),
(644,892,cs),
(454,892,l),
(454,740,l),
(663,740,ls),
(901,740,o),
(961,565,o),
(961,434,cs),
(961,236,o),
(823,116,o),
(638,116,cs),
(539,116,o),
(458,150,o),
(401,211,c),
(401,28,l),
(465,-8,o),
(544,-24,o),
(637,-24,cs)
);
}
);
};
layerId = m01;
shapes = (
{
closed = 1;
nodes = (
(893,-24,o),
(1145,126,o),
(1145,429,cs),
(1145,637,o),
(1027,783,o),
(810,826,c),
(997,870,o),
(1089,988,o),
(1089,1139,cs),
(1089,1363,o),
(887,1524,o),
(639,1524,cs),
(318,1524,o),
(141,1268,o),
(141,1005,cs),
(141,0,l),
(309,0,l),
(309,940,ls),
(309,1232,o),
(408,1384,o),
(627,1384,cs),
(825,1384,o),
(913,1253,o),
(913,1131,cs),
(913,1002,o),
(816,892,o),
(644,892,cs),
(454,892,l),
(454,740,l),
(663,740,ls),
(901,740,o),
(961,565,o),
(961,434,cs),
(961,236,o),
(823,116,o),
(638,116,cs),
(539,116,o),
(458,150,o),
(401,211,c),
(401,28,l),
(465,-8,o),
(544,-24,o),
(637,-24,cs)
);
}
);
width = 1229;
},
{
background = {
shapes = (
{
closed = 1;
nodes = (
(1095,-28,o),
(1305,156,o),
(1305,432,cs),
(1305,627,o),
(1191,765,o),
(961,799,c),
(1190,820,o),
(1262,975,o),
(1262,1123,cs),
(1262,1394,o),
(1022,1528,o),
(726,1528,cs),
(351,1528,o),
(98,1313,o),
(98,942,cs),
(98,0,l),
(498,0,l),
(498,988,ls),
(498,1157,o),
(574,1217,o),
(690,1217,cs),
(812,1217,o),
(859,1150,o),
(859,1072,cs),
(859,981,o),
(796,922,o),
(685,918,cs),
(624,916,l),
(624,661,l),
(673,661,ls),
(835,661,o),
(895,570,o),
(895,468,cs),
(895,351,o),
(816,265,o),
(696,265,cs),
(643,265,o),
(600,282,o),
(568,315,c),
(568,34,l),
(628,-5,o),
(711,-28,o),
(826,-28,cs)
);
}
);
};
layerId = m002;
shapes = (
{
closed = 1;
nodes = (
(1095,-28,o),
(1305,156,o),
(1305,432,cs),
(1305,627,o),
(1191,765,o),
(961,799,c),
(1190,820,o),
(1262,975,o),
(1262,1123,cs),
(1262,1394,o),
(1022,1528,o),
(726,1528,cs),
(351,1528,o),
(98,1313,o),
(98,942,cs),
(98,0,l),
(498,0,l),
(498,988,ls),
(498,1157,o),
(574,1217,o),
(690,1217,cs),
(812,1217,o),
(859,1150,o),
(859,1072,cs),
(859,981,o),
(796,922,o),
(685,918,cs),
(624,916,l),
(624,661,l),
(673,661,ls),
(835,661,o),
(895,570,o),
(895,468,cs),
(895,351,o),
(816,265,o),
(696,265,cs),
(643,265,o),
(600,282,o),
(568,315,c),
(568,34,l),
(628,-5,o),
(711,-28,o),
(826,-28,cs)
);
}
);
width = 1355;
}
);
unicode = 223;
},
{
glyphname = t;
kernLeft = t;
kernRight = t;
layers = (
{
anchors = (
{
name = bottom;
pos = (441,0);
},
{
name = center;
pos = (328,150);
},
{
name = centerExt;
pos = (682,720);
},
{
name = topright;
pos = (664,1950);
},
{
name = ttop;
pos = (318,1080);
}
);
background = {
anchors = (
{
name = bottom;
pos = (441,0);
},
{
name = center;
pos = (328,150);
},
{
name = centerExt;
pos = (682,720);
},
{
name = topright;
pos = (664,1950);
},
{
name = ttop;
pos = (318,1080);
}
);
shapes = (
{
closed = 1;
nodes = (
(617,0,l),
(617,140,l),
(452,140,ls),
(410,140,o),
(402,151,o),
(402,195,cs),
(402,940,l),
(616,940,l),
(616,1080,l),
(402,1080,l),
(402,1342,l),
(234,1306,l),
(234,1080,l),
(60,1080,l),
(60,940,l),
(234,940,l),
(234,150,ls),
(234,63,o),
(309,0,o),
(394,0,cs)
);
}
);
};
layerId = m01;
name = Regular;
shapes = (
{
closed = 1;
nodes = (
(617,0,l),
(617,140,l),
(452,140,ls),
(410,140,o),
(402,151,o),
(402,195,cs),
(402,940,l),
(616,940,l),
(616,1080,l),
(402,1080,l),
(402,1342,l),
(234,1306,l),
(234,1080,l),
(60,1080,l),
(60,940,l),
(234,940,l),
(234,150,ls),
(234,63,o),
(309,0,o),
(394,0,cs)
);
}
);
width = 696;
},
{
anchors = (
{
name = bottom;
pos = (491,0);
},
{
name = center;
pos = (399,96);
},
{
name = centerExt;
pos = (898,720);
},
{
name = topright;
pos = (797,1950);
},
{
name = ttop;
pos = (535,1080);
}
);
background = {
anchors = (
{
name = bottom;
pos = (491,0);
},
{
name = center;
pos = (399,96);
},
{
name = centerExt;
pos = (898,720);
},
{
name = topright;
pos = (797,1950);
},
{
name = ttop;
pos = (535,1080);
}
);
shapes = (
{
closed = 1;
nodes = (
(787,0,l),
(787,280,l),
(622,280,ls),
(580,280,o),
(572,291,o),
(572,336,cs),
(572,800,l),
(760,800,l),
(760,1080,l),
(572,1080,l),
(572,1381,l),
(172,1281,l),
(172,1080,l),
(33,1080,l),
(33,800,l),
(172,800,l),
(172,287,ls),
(172,93,o),
(271,0,o),
(491,0,cs)
);
}
);
};
layerId = m002;
name = "800";
shapes = (
{
closed = 1;
nodes = (
(787,0,l),
(787,280,l),
(622,280,ls),
(580,280,o),
(572,291,o),
(572,336,cs),
(572,800,l),
(760,800,l),
(760,1080,l),
(572,1080,l),
(572,1381,l),
(172,1281,l),
(172,1080,l),
(33,1080,l),
(33,800,l),
(172,800,l),
(172,287,ls),
(172,93,o),
(271,0,o),
(491,0,cs)
);
}
);
width = 843;
}
);
tags = (
angular
);
unicode = 116;
userData = {
KernOnName = t;
};
},
{
glyphname = u;
kernLeft = u;
kernRight = u;
layers = (
{
anchors = (
{
name = bottom;
pos = (590,0);
},
{
name = ogonek;
pos = (1027,0);
},
{
name = top;
pos = (590,1080);
},
{
name = topright;
pos = (1163,1080);
}
);
background = {
anchors = (
{
name = bottom;
pos = (590,0);
},
{
name = ogonek;
pos = (1027,0);
},
{
name = top;
pos = (590,1080);
},
{
name = topright;
pos = (1163,1080);
}
);
shapes = (
{
closed = 1;
nodes = (
(692,-24,o),
(820,76,o),
(876,210,c),
(869,254,l),
(869,0,l),
(1027,0,l),
(1027,1080,l),
(859,1080,l),
(859,566,ls),
(859,266,o),
(734,116,o),
(541,116,cs),
(368,116,o),
(311,237,o),
(311,413,cs),
(311,1080,l),
(143,1080,l),
(143,400,ls),
(143,135,o),
(285,-24,o),
(512,-24,cs)
);
}
);
};
layerId = m01;
shapes = (
{
closed = 1;
nodes = (
(692,-24,o),
(820,76,o),
(876,210,c),
(869,254,l),
(869,0,l),
(1027,0,l),
(1027,1080,l),
(859,1080,l),
(859,566,ls),
(859,266,o),
(734,116,o),
(541,116,cs),
(368,116,o),
(311,237,o),
(311,413,cs),
(311,1080,l),
(143,1080,l),
(143,400,ls),
(143,135,o),
(285,-24,o),
(512,-24,cs)
);
}
);
width = 1190;
},
{
anchors = (
{
name = bottom;
pos = (653,0);
},
{
name = ogonek;
pos = (1198,0);
},
{
name = top;
pos = (653,1080);
},
{
name = topright;
pos = (1246,1080);
}
);
background = {
anchors = (
{
name = bottom;
pos = (653,0);
},
{
name = ogonek;
pos = (1198,0);
},
{
name = top;
pos = (653,1080);
},
{
name = topright;
pos = (1246,1080);
}
);
shapes = (
{
closed = 1;
nodes = (
(628,-28,o),
(744,51,o),
(816,208,c),
(808,253,l),
(808,0,l),
(1198,0,l),
(1198,1080,l),
(798,1080,l),
(798,475,ls),
(798,286,o),
(703,264,o),
(653,264,cs),
(564,264,o),
(504,319,o),
(504,491,cs),
(504,1080,l),
(104,1080,l),
(104,439,ls),
(104,177,o),
(196,-28,o),
(463,-28,cs)
);
}
);
};
layerId = m002;
name = Black;
shapes = (
{
closed = 1;
nodes = (
(628,-28,o),
(744,51,o),
(816,208,c),
(808,253,l),
(808,0,l),
(1198,0,l),
(1198,1080,l),
(798,1080,l),
(798,475,ls),
(798,286,o),
(703,264,o),
(653,264,cs),
(564,264,o),
(504,319,o),
(504,491,cs),
(504,1080,l),
(104,1080,l),
(104,439,ls),
(104,177,o),
(196,-28,o),
(463,-28,cs)
);
}
);
width = 1322;
}
);
unicode = 117;
userData = {
KernOnName = u;
};
},
{
glyphname = v;
kernLeft = v;
kernRight = v;
layers = (
{
background = {
shapes = (
{
closed = 1;
nodes = (
(675,0,l),
(1079,1080,l),
(893,1080,l),
(552,95,l),
(584,95,l),
(241,1080,l),
(55,1080,l),
(461,0,l)
);
}
);
};
layerId = m01;
shapes = (
{
closed = 1;
nodes = (
(675,0,l),
(1079,1080,l),
(893,1080,l),
(552,95,l),
(584,95,l),
(241,1080,l),
(55,1080,l),
(461,0,l)
);
}
);
width = 1134;
},
{
background = {
shapes = (
{
closed = 1;
nodes = (
(892,0,l),
(1303,1080,l),
(855,1080,l),
(648,304,l),
(672,304,l),
(464,1080,l),
(16,1080,l),
(427,0,l)
);
}
);
};
layerId = m002;
shapes = (
{
closed = 1;
nodes = (
(892,0,l),
(1303,1080,l),
(855,1080,l),
(648,304,l),
(672,304,l),
(464,1080,l),
(16,1080,l),
(427,0,l)
);
}
);
width = 1319;
}
);
unicode = 118;
userData = {
KernOnName = v;
};
},
{
glyphname = w;
kernLeft = w;
kernRight = w;
layers = (
{
anchors = (
{
name = bottom;
pos = (831,0);
},
{
name = top;
pos = (831,1080);
}
);
background = {
anchors = (
{
name = bottom;
pos = (831,0);
},
{
name = top;
pos = (831,1080);
}
);
shapes = (
{
closed = 1;
nodes = (
(598,0,l),
(846,966,l),
(816,966,l),
(1064,0,l),
(1300,0,l),
(1600,1080,l),
(1422,1080,l),
(1163,74,l),
(1199,74,l),
(938,1080,l),
(722,1080,l),
(466,82,l),
(497,82,l),
(240,1080,l),
(62,1080,l),
(362,0,l)
);
}
);
};
layerId = m01;
shapes = (
{
closed = 1;
nodes = (
(598,0,l),
(846,966,l),
(816,966,l),
(1064,0,l),
(1300,0,l),
(1600,1080,l),
(1422,1080,l),
(1163,74,l),
(1199,74,l),
(938,1080,l),
(722,1080,l),
(466,82,l),
(497,82,l),
(240,1080,l),
(62,1080,l),
(362,0,l)
);
}
);
width = 1662;
},
{
anchors = (
{
name = bottom;
pos = (957,0);
},
{
name = top;
pos = (957,1080);
}
);
background = {
anchors = (
{
name = bottom;
pos = (957,0);
},
{
name = top;
pos = (957,1080);
}
);
shapes = (
{
closed = 1;
nodes = (
(819,0,l),
(994,966,l),
(925,966,l),
(1093,0,l),
(1646,0,l),
(1882,1080,l),
(1499,1080,l),
(1381,255,l),
(1407,255,l),
(1242,1080,l),
(704,1080,l),
(534,254,l),
(555,254,l),
(444,1080,l),
(32,1080,l),
(266,0,l)
);
}
);
};
layerId = m002;
shapes = (
{
closed = 1;
nodes = (
(819,0,l),
(994,966,l),
(925,966,l),
(1093,0,l),
(1646,0,l),
(1882,1080,l),
(1499,1080,l),
(1381,255,l),
(1407,255,l),
(1242,1080,l),
(704,1080,l),
(534,254,l),
(555,254,l),
(444,1080,l),
(32,1080,l),
(266,0,l)
);
}
);
width = 1913;
}
);
unicode = 119;
userData = {
KernOnName = w;
};
},
{
glyphname = x;
kernLeft = x;
kernRight = x;
layers = (
{
background = {
shapes = (
{
closed = 1;
nodes = (
(250,0,l),
(566,433,l),
(876,0,l),
(1092,0,l),
(670,560,l),
(1068,1080,l),
(862,1080,l),
(575,669,l),
(282,1080,l),
(88,1080,l),
(468,560,l),
(50,0,l)
);
}
);
};
layerId = m01;
shapes = (
{
closed = 1;
nodes = (
(250,0,l),
(566,433,l),
(876,0,l),
(1092,0,l),
(670,560,l),
(1068,1080,l),
(862,1080,l),
(575,669,l),
(282,1080,l),
(88,1080,l),
(468,560,l),
(50,0,l)
);
}
);
width = 1144;
},
{
background = {
shapes = (
{
closed = 1;
nodes = (
(457,0,l),
(653,331,l),
(858,0,l),
(1302,0,l),
(910,521,l),
(1302,1080,l),
(858,1080,l),
(681,763,l),
(481,1080,l),
(37,1080,l),
(420,559,l),
(13,0,l)
);
}
);
};
layerId = m002;
shapes = (
{
closed = 1;
nodes = (
(457,0,l),
(653,331,l),
(858,0,l),
(1302,0,l),
(910,521,l),
(1302,1080,l),
(858,1080,l),
(681,763,l),
(481,1080,l),
(37,1080,l),
(420,559,l),
(13,0,l)
);
}
);
width = 1319;
}
);
unicode = 120;
userData = {
KernOnName = x;
};
},
{
glyphname = y;
kernLeft = y;
kernRight = y;
layers = (
{
anchors = (
{
name = bottom;
pos = (561,0);
},
{
name = top;
pos = (561,1080);
}
);
background = {
anchors = (
{
name = bottom;
pos = (561,0);
},
{
name = top;
pos = (561,1080);
}
);
shapes = (
{
closed = 1;
nodes = (
(383,-390,ls),
(455,-390,o),
(530,-343,o),
(558,-269,cs),
(1073,1080,l),
(887,1080,l),
(544,94,l),
(581,85,l),
(237,1080,l),
(49,1080,l),
(483,-56,l),
(500,21,l),
(422,-202,ls),
(410,-236,o),
(399,-250,o),
(375,-250,cs),
(211,-250,l),
(211,-390,l)
);
}
);
};
layerId = m01;
shapes = (
{
closed = 1;
nodes = (
(383,-390,ls),
(455,-390,o),
(530,-343,o),
(558,-269,cs),
(1073,1080,l),
(887,1080,l),
(544,94,l),
(581,85,l),
(237,1080,l),
(49,1080,l),
(483,-56,l),
(500,21,l),
(422,-202,ls),
(410,-236,o),
(399,-250,o),
(375,-250,cs),
(211,-250,l),
(211,-390,l)
);
}
);
width = 1122;
},
{
anchors = (
{
name = bottom;
pos = (673,0);
},
{
name = top;
pos = (673,1080);
}
);
background = {
anchors = (
{
name = bottom;
pos = (673,0);
},
{
name = top;
pos = (673,1080);
}
);
shapes = (
{
closed = 1;
nodes = (
(494,-390,ls),
(661,-390,o),
(773,-347,o),
(844,-167,cs),
(1336,1080,l),
(888,1080,l),
(661,304,l),
(685,304,l),
(457,1080,l),
(9,1080,l),
(508,-112,l),
(525,21,l),
(488,-74,ls),
(476,-104,o),
(465,-110,o),
(433,-110,cs),
(237,-110,l),
(237,-390,l)
);
}
);
};
layerId = m002;
shapes = (
{
closed = 1;
nodes = (
(494,-390,ls),
(661,-390,o),
(773,-347,o),
(844,-167,cs),
(1336,1080,l),
(888,1080,l),
(661,304,l),
(685,304,l),
(457,1080,l),
(9,1080,l),
(508,-112,l),
(525,21,l),
(488,-74,ls),
(476,-104,o),
(465,-110,o),
(433,-110,cs),
(237,-110,l),
(237,-390,l)
);
}
);
width = 1346;
}
);
tags = (
angular
);
unicode = 121;
userData = {
KernOnName = y;
};
},
{
glyphname = z;
kernLeft = z;
kernRight = z;
layers = (
{
anchors = (
{
name = bottom;
pos = (517,0);
},
{
name = center;
pos = (517,540);
},
{
name = top;
pos = (550,1080);
}
);
background = {
anchors = (
{
name = bottom;
pos = (517,0);
},
{
name = center;
pos = (517,540);
},
{
name = top;
pos = (550,1080);
}
);
shapes = (
{
closed = 1;
nodes = (
(954,0,l),
(954,144,l),
(272,144,l),
(930,936,l),
(930,1080,l),
(106,1080,l),
(106,936,l),
(728,936,l),
(80,144,l),
(80,0,l)
);
}
);
};
layerId = m01;
shapes = (
{
closed = 1;
nodes = (
(954,0,l),
(954,144,l),
(272,144,l),
(930,936,l),
(930,1080,l),
(106,1080,l),
(106,936,l),
(728,936,l),
(80,144,l),
(80,0,l)
);
}
);
width = 1033;
},
{
anchors = (
{
name = bottom;
pos = (583,0);
},
{
name = center;
pos = (583,540);
},
{
name = top;
pos = (613,1080);
}
);
background = {
anchors = (
{
name = bottom;
pos = (583,0);
},
{
name = center;
pos = (583,540);
},
{
name = top;
pos = (613,1080);
}
);
shapes = (
{
closed = 1;
nodes = (
(1091,0,l),
(1091,334,l),
(587,334,l),
(1089,810,l),
(1089,1080,l),
(101,1080,l),
(101,748,l),
(574,748,l),
(70,266,l),
(70,0,l)
);
}
);
};
layerId = m002;
shapes = (
{
closed = 1;
nodes = (
(1091,0,l),
(1091,334,l),
(587,334,l),
(1089,810,l),
(1089,1080,l),
(101,1080,l),
(101,748,l),
(574,748,l),
(70,266,l),
(70,0,l)
);
}
);
width = 1173;
}
);
unicode = 122;
userData = {
KernOnName = z;
};
},
{
glyphname = ordfeminine;
kernRight = ordfeminine;
layers = (
{
background = {
shapes = (
{
closed = 1;
nodes = (
(503,658,o),
(577,763,o),
(604,841,c),
(580,846,l),
(580,799,ls),
(580,724,o),
(632,675,o),
(711,675,cs),
(795,675,l),
(795,793,l),
(756,793,ls),
(726,793,o),
(721,801,o),
(721,831,cs),
(721,1145,ls),
(721,1348,o),
(630,1449,o),
(441,1449,cs),
(249,1449,o),
(131,1349,o),
(115,1226,c),
(275,1194,l),
(281,1281,o),
(334,1336,o),
(432,1336,cs),
(534,1336,o),
(575,1276,o),
(575,1162,cs),
(575,1120,l),
(588,1135,l),
(469,1135,ls),
(210,1135,o),
(83,1027,o),
(83,882,cs),
(83,746,o),
(188,658,o),
(338,658,cs)
);
},
{
closed = 1;
nodes = (
(799,428,l),
(799,553,l),
(82,553,l),
(82,428,l)
);
},
{
closed = 1;
nodes = (
(283,772,o),
(243,828,o),
(243,888,cs),
(243,952,o),
(296,1032,o),
(469,1032,cs),
(576,1032,l),
(576,1022,ls),
(576,849,o),
(485,772,o),
(376,772,cs)
);
}
);
};
layerId = m01;
shapes = (
{
closed = 1;
nodes = (
(503,658,o),
(577,763,o),
(604,841,c),
(580,846,l),
(580,799,ls),
(580,724,o),
(632,675,o),
(711,675,cs),
(795,675,l),
(795,793,l),
(756,793,ls),
(726,793,o),
(721,801,o),
(721,831,cs),
(721,1145,ls),
(721,1348,o),
(630,1449,o),
(441,1449,cs),
(249,1449,o),
(131,1349,o),
(115,1226,c),
(275,1194,l),
(281,1281,o),
(334,1336,o),
(432,1336,cs),
(534,1336,o),
(575,1276,o),
(575,1162,cs),
(575,1120,l),
(588,1135,l),
(469,1135,ls),
(210,1135,o),
(83,1027,o),
(83,882,cs),
(83,746,o),
(188,658,o),
(338,658,cs)
);
},
{
closed = 1;
nodes = (
(799,428,l),
(799,553,l),
(82,553,l),
(82,428,l)
);
},
{
closed = 1;
nodes = (
(283,772,o),
(243,828,o),
(243,888,cs),
(243,952,o),
(296,1032,o),
(469,1032,cs),
(576,1032,l),
(576,1022,ls),
(576,849,o),
(485,772,o),
(376,772,cs)
);
}
);
width = 941;
},
{
background = {
shapes = (
{
closed = 1;
nodes = (
(577,651,o),
(616,796,o),
(634,880,c),
(572,911,l),
(572,898,ls),
(572,743,o),
(642,670,o),
(809,670,cs),
(941,670,l),
(941,894,l),
(918,894,ls),
(889,894,o),
(883,902,o),
(883,933,cs),
(883,1076,ls),
(883,1386,o),
(730,1448,o),
(512,1448,cs),
(237,1448,o),
(131,1349,o),
(95,1219,c),
(411,1174,l),
(429,1235,o),
(449,1256,o),
(492,1256,cs),
(537,1256,o),
(557,1232,o),
(557,1160,cs),
(557,1113,l),
(569,1141,l),
(488,1141,ls),
(245,1141,o),
(60,1081,o),
(60,884,cs),
(60,703,o),
(218,651,o),
(352,651,cs)
);
},
{
closed = 1;
nodes = (
(934,403,l),
(934,578,l),
(57,578,l),
(57,403,l)
);
},
{
closed = 1;
nodes = (
(385,850,o),
(389,899,o),
(389,906,cs),
(389,937,o),
(410,984,o),
(511,984,cs),
(560,984,l),
(560,954,ls),
(560,901,o),
(533,850,o),
(458,850,cs)
);
}
);
};
layerId = m002;
shapes = (
{
closed = 1;
nodes = (
(577,651,o),
(616,796,o),
(634,880,c),
(572,911,l),
(572,898,ls),
(572,743,o),
(642,670,o),
(809,670,cs),
(941,670,l),
(941,894,l),
(918,894,ls),
(889,894,o),
(883,902,o),
(883,933,cs),
(883,1076,ls),
(883,1386,o),
(730,1448,o),
(512,1448,cs),
(237,1448,o),
(131,1349,o),
(95,1219,c),
(411,1174,l),
(429,1235,o),
(449,1256,o),
(492,1256,cs),
(537,1256,o),
(557,1232,o),
(557,1160,cs),
(557,1113,l),
(569,1141,l),
(488,1141,ls),
(245,1141,o),
(60,1081,o),
(60,884,cs),
(60,703,o),
(218,651,o),
(352,651,cs)
);
},
{
closed = 1;
nodes = (
(934,403,l),
(934,578,l),
(57,578,l),
(57,403,l)
);
},
{
closed = 1;
nodes = (
(385,850,o),
(389,899,o),
(389,906,cs),
(389,937,o),
(410,984,o),
(511,984,cs),
(560,984,l),
(560,954,ls),
(560,901,o),
(533,850,o),
(458,850,cs)
);
}
);
width = 1042;
}
);
unicode = 170;
userData = {
KernOnSpecialSpacing = {
L = superiors;
R = superiors;
};
};
},
{
glyphname = ordmasculine;
kernRight = ordmasculine;
layers = (
{
background = {
shapes = (
{
closed = 1;
nodes = (
(679,658,o),
(831,819,o),
(831,1053,cs),
(831,1287,o),
(679,1448,o),
(461,1448,cs),
(243,1448,o),
(92,1287,o),
(92,1053,cs),
(92,819,o),
(243,658,o),
(461,658,cs)
);
},
{
closed = 1;
nodes = (
(815,428,l),
(815,553,l),
(98,553,l),
(98,428,l)
);
},
{
closed = 1;
nodes = (
(332,776,o),
(253,882,o),
(253,1053,cs),
(253,1223,o),
(332,1330,o),
(461,1330,cs),
(590,1330,o),
(670,1224,o),
(670,1053,cs),
(670,882,o),
(590,776,o),
(461,776,cs)
);
}
);
};
layerId = m01;
shapes = (
{
closed = 1;
nodes = (
(679,658,o),
(831,819,o),
(831,1053,cs),
(831,1287,o),
(679,1448,o),
(461,1448,cs),
(243,1448,o),
(92,1287,o),
(92,1053,cs),
(92,819,o),
(243,658,o),
(461,658,cs)
);
},
{
closed = 1;
nodes = (
(815,428,l),
(815,553,l),
(98,553,l),
(98,428,l)
);
},
{
closed = 1;
nodes = (
(332,776,o),
(253,882,o),
(253,1053,cs),
(253,1223,o),
(332,1330,o),
(461,1330,cs),
(590,1330,o),
(670,1224,o),
(670,1053,cs),
(670,882,o),
(590,776,o),
(461,776,cs)
);
}
);
width = 916;
},
{
background = {
shapes = (
{
closed = 1;
nodes = (
(730,650,o),
(903,813,o),
(903,1048,cs),
(903,1283,o),
(731,1446,o),
(481,1446,cs),
(231,1446,o),
(61,1283,o),
(61,1048,cs),
(61,813,o),
(232,650,o),
(481,650,cs)
);
},
{
closed = 1;
nodes = (
(855,403,l),
(855,578,l),
(68,578,l),
(68,403,l)
);
},
{
closed = 1;
nodes = (
(428,875,o),
(395,942,o),
(395,1048,cs),
(395,1153,o),
(428,1221,o),
(482,1221,cs),
(536,1221,o),
(569,1153,o),
(569,1048,cs),
(569,943,o),
(536,875,o),
(482,875,cs)
);
}
);
};
layerId = m002;
shapes = (
{
closed = 1;
nodes = (
(730,650,o),
(903,813,o),
(903,1048,cs),
(903,1283,o),
(731,1446,o),
(481,1446,cs),
(231,1446,o),
(61,1283,o),
(61,1048,cs),
(61,813,o),
(232,650,o),
(481,650,cs)
);
},
{
closed = 1;
nodes = (
(855,403,l),
(855,578,l),
(68,578,l),
(68,403,l)
);
},
{
closed = 1;
nodes = (
(428,875,o),
(395,942,o),
(395,1048,cs),
(395,1153,o),
(428,1221,o),
(482,1221,cs),
(536,1221,o),
(569,1153,o),
(569,1048,cs),
(569,943,o),
(536,875,o),
(482,875,cs)
);
}
);
width = 964;
}
);
unicode = 186;
userData = {
KernOnSpecialSpacing = {
L = superiors;
R = superiors;
};
};
},
{
glyphname = Delta;
kernLeft = Delta;
layers = (
{
background = {
shapes = (
{
closed = 1;
nodes = (
(1352,0,l),
(1352,118,l),
(796,1440,l),
(616,1440,l),
(58,118,l),
(58,0,l)
);
},
{
closed = 1;
nodes = (
(706,1252,l),
(1148,154,l),
(262,154,l)
);
}
);
};
layerId = m01;
shapes = (
{
closed = 1;
nodes = (
(1352,0,l),
(1352,118,l),
(796,1440,l),
(616,1440,l),
(58,118,l),
(58,0,l)
);
},
{
closed = 1;
nodes = (
(706,1252,l),
(1148,154,l),
(262,154,l)
);
}
);
width = 1410;
},
{
background = {
shapes = (
{
closed = 1;
nodes = (
(1617,0,l),
(1617,302,l),
(1107,1440,l),
(547,1440,l),
(35,301,l),
(35,0,l)
);
},
{
closed = 1;
nodes = (
(825,1187,l),
(1132,350,l),
(519,350,l)
);
}
);
};
layerId = m002;
shapes = (
{
closed = 1;
nodes = (
(1617,0,l),
(1617,302,l),
(1107,1440,l),
(547,1440,l),
(35,301,l),
(35,0,l)
);
},
{
closed = 1;
nodes = (
(825,1187,l),
(1132,350,l),
(519,350,l)
);
}
);
width = 1652;
}
);
unicode = 916;
},
{
glyphname = Pi;
kernLeft = Pi;
layers = (
{
background = {
shapes = (
{
closed = 1;
nodes = (
(1171,-120,l),
(1171,1339,l),
(991,1339,l),
(991,-120,l)
);
},
{
closed = 1;
nodes = (
(409,-120,l),
(409,1339,l),
(229,1339,l),
(229,-120,l)
);
},
{
closed = 1;
nodes = (
(1342,1292,l),
(1342,1440,l),
(52,1440,l),
(52,1292,l)
);
}
);
};
layerId = m01;
shapes = (
{
closed = 1;
nodes = (
(1171,-120,l),
(1171,1339,l),
(991,1339,l),
(991,-120,l)
);
},
{
closed = 1;
nodes = (
(409,-120,l),
(409,1339,l),
(229,1339,l),
(229,-120,l)
);
},
{
closed = 1;
nodes = (
(1342,1292,l),
(1342,1440,l),
(52,1440,l),
(52,1292,l)
);
}
);
width = 1393;
},
{
background = {
shapes = (
{
closed = 1;
nodes = (
(1298,-123,l),
(1298,1307,l),
(898,1307,l),
(898,-123,l)
);
},
{
closed = 1;
nodes = (
(616,-123,l),
(616,1307,l),
(206,1307,l),
(206,-123,l)
);
},
{
closed = 1;
nodes = (
(1469,1090,l),
(1469,1440,l),
(29,1440,l),
(29,1090,l)
);
}
);
};
layerId = m002;
shapes = (
{
closed = 1;
nodes = (
(1298,-123,l),
(1298,1307,l),
(898,1307,l),
(898,-123,l)
);
},
{
closed = 1;
nodes = (
(616,-123,l),
(616,1307,l),
(206,1307,l),
(206,-123,l)
);
},
{
closed = 1;
nodes = (
(1469,1090,l),
(1469,1440,l),
(29,1440,l),
(29,1090,l)
);
}
);
width = 1498;
}
);
unicode = 928;
},
{
glyphname = Sigma;
kernLeft = Sigma;
layers = (
{
background = {
shapes = (
{
closed = 1;
nodes = (
(1157,0,l),
(1157,154,l),
(294,154,l),
(734,720,l),
(292,1286,l),
(1085,1286,l),
(1085,1440,l),
(70,1440,l),
(70,1320,l),
(538,720,l),
(71,118,l),
(71,0,l)
);
}
);
};
layerId = m01;
shapes = (
{
closed = 1;
nodes = (
(1157,0,l),
(1157,154,l),
(294,154,l),
(734,720,l),
(292,1286,l),
(1085,1286,l),
(1085,1440,l),
(70,1440,l),
(70,1320,l),
(538,720,l),
(71,118,l),
(71,0,l)
);
}
);
width = 1218;
},
{
background = {
shapes = (
{
closed = 1;
nodes = (
(1228,0,l),
(1228,350,l),
(579,350,l),
(905,720,l),
(579,1090,l),
(1228,1090,l),
(1228,1440,l),
(53,1440,l),
(53,1191,l),
(465,720,l),
(53,249,l),
(53,0,l)
);
}
);
};
layerId = m002;
shapes = (
{
closed = 1;
nodes = (
(1228,0,l),
(1228,350,l),
(579,350,l),
(905,720,l),
(579,1090,l),
(1228,1090,l),
(1228,1440,l),
(53,1440,l),
(53,1191,l),
(465,720,l),
(53,249,l),
(53,0,l)
);
}
);
width = 1297;
}
);
unicode = 931;
},
{
glyphname = Omega;
kernLeft = Omega;
layers = (
{
background = {
shapes = (
{
closed = 1;
nodes = (
(665,0,l),
(665,184,l),
(434,256,o),
(302,441,o),
(302,731,cs),
(302,1081,o),
(495,1316,o),
(803,1316,cs),
(1113,1316,o),
(1306,1078,o),
(1306,739,cs),
(1306,445,o),
(1160,262,o),
(944,184,c),
(944,0,l),
(1501,0,l),
(1501,154,l),
(1192,154,l),
(1394,289,o),
(1501,467,o),
(1501,740,cs),
(1501,1170,o),
(1234,1464,o),
(804,1464,cs),
(374,1464,o),
(107,1170,o),
(107,740,cs),
(107,467,o),
(214,289,o),
(416,154,c),
(109,154,l),
(109,0,l)
);
}
);
};
layerId = m01;
shapes = (
{
closed = 1;
nodes = (
(665,0,l),
(665,184,l),
(434,256,o),
(302,441,o),
(302,731,cs),
(302,1081,o),
(495,1316,o),
(803,1316,cs),
(1113,1316,o),
(1306,1078,o),
(1306,739,cs),
(1306,445,o),
(1160,262,o),
(944,184,c),
(944,0,l),
(1501,0,l),
(1501,154,l),
(1192,154,l),
(1394,289,o),
(1501,467,o),
(1501,740,cs),
(1501,1170,o),
(1234,1464,o),
(804,1464,cs),
(374,1464,o),
(107,1170,o),
(107,740,cs),
(107,467,o),
(214,289,o),
(416,154,c),
(109,154,l),
(109,0,l)
);
}
);
width = 1608;
},
{
background = {
shapes = (
{
closed = 1;
nodes = (
(720,0,l),
(720,325,l),
(570,373,o),
(506,503,o),
(506,710,cs),
(506,981,o),
(616,1118,o),
(814,1118,cs),
(1012,1118,o),
(1122,981,o),
(1122,710,cs),
(1122,503,o),
(1058,373,o),
(908,325,c),
(908,0,l),
(1550,0,l),
(1550,345,l),
(1331,345,l),
(1481,447,o),
(1548,587,o),
(1548,776,cs),
(1548,1152,o),
(1283,1468,o),
(813,1468,cs),
(361,1468,o),
(80,1176,o),
(80,782,cs),
(80,589,o),
(147,446,o),
(297,345,c),
(78,345,l),
(78,0,l)
);
}
);
};
layerId = m002;
shapes = (
{
closed = 1;
nodes = (
(720,0,l),
(720,325,l),
(570,373,o),
(506,503,o),
(506,710,cs),
(506,981,o),
(616,1118,o),
(814,1118,cs),
(1012,1118,o),
(1122,981,o),
(1122,710,cs),
(1122,503,o),
(1058,373,o),
(908,325,c),
(908,0,l),
(1550,0,l),
(1550,345,l),
(1331,345,l),
(1481,447,o),
(1548,587,o),
(1548,776,cs),
(1548,1152,o),
(1283,1468,o),
(813,1468,cs),
(361,1468,o),
(80,1176,o),
(80,782,cs),
(80,589,o),
(147,446,o),
(297,345,c),
(78,345,l),
(78,0,l)
);
}
);
width = 1627;
}
);
unicode = 937;
},
{
glyphname = alpha;
kernLeft = alpha;
layers = (
{
background = {
shapes = (
{
closed = 1;
nodes = (
(710,-24,o),
(872,63,o),
(920,244,c),
(894,257,l),
(894,150,ls),
(894,63,o),
(969,0,o),
(1054,0,cs),
(1173,0,l),
(1173,140,l),
(1112,140,ls),
(1070,140,o),
(1062,151,o),
(1062,195,cs),
(1062,1080,l),
(904,1080,l),
(904,815,l),
(926,834,l),
(864,1031,o),
(696,1104,o),
(546,1104,cs),
(284,1104,o),
(102,887,o),
(102,541,cs),
(102,195,o),
(283,-24,o),
(546,-24,cs)
);
},
{
closed = 1;
nodes = (
(406,116,o),
(286,270,o),
(286,537,cs),
(286,812,o),
(413,964,o),
(592,964,cs),
(761,964,o),
(899,827,o),
(899,537,cs),
(899,244,o),
(759,116,o),
(590,116,cs)
);
}
);
};
layerId = m01;
shapes = (
{
closed = 1;
nodes = (
(710,-24,o),
(872,63,o),
(920,244,c),
(894,257,l),
(894,150,ls),
(894,63,o),
(969,0,o),
(1054,0,cs),
(1173,0,l),
(1173,140,l),
(1112,140,ls),
(1070,140,o),
(1062,151,o),
(1062,195,cs),
(1062,1080,l),
(904,1080,l),
(904,815,l),
(926,834,l),
(864,1031,o),
(696,1104,o),
(546,1104,cs),
(284,1104,o),
(102,887,o),
(102,541,cs),
(102,195,o),
(283,-24,o),
(546,-24,cs)
);
},
{
closed = 1;
nodes = (
(406,116,o),
(286,270,o),
(286,537,cs),
(286,812,o),
(413,964,o),
(592,964,cs),
(761,964,o),
(899,827,o),
(899,537,cs),
(899,244,o),
(759,116,o),
(590,116,cs)
);
}
);
width = 1247;
},
{
background = {
shapes = (
{
closed = 1;
nodes = (
(701,-28,o),
(851,72,o),
(936,366,c),
(853,345,l),
(853,286,ls),
(853,94,o),
(952,0,o),
(1172,0,cs),
(1349,0,l),
(1349,280,l),
(1291,280,ls),
(1249,280,o),
(1241,291,o),
(1241,336,cs),
(1241,1092,l),
(851,1092,l),
(851,741,l),
(915,785,l),
(830,1012,o),
(716,1108,o),
(517,1108,cs),
(229,1108,o),
(66,906,o),
(66,543,cs),
(66,179,o),
(230,-28,o),
(509,-28,cs)
);
},
{
closed = 1;
nodes = (
(550,265,o),
(485,367,o),
(485,535,cs),
(485,707,o),
(553,816,o),
(671,816,cs),
(782,816,o),
(863,718,o),
(863,539,cs),
(863,362,o),
(784,265,o),
(668,265,cs)
);
}
);
};
layerId = m002;
shapes = (
{
closed = 1;
nodes = (
(701,-28,o),
(851,72,o),
(936,366,c),
(853,345,l),
(853,286,ls),
(853,94,o),
(952,0,o),
(1172,0,cs),
(1349,0,l),
(1349,280,l),
(1291,280,ls),
(1249,280,o),
(1241,291,o),
(1241,336,cs),
(1241,1092,l),
(851,1092,l),
(851,741,l),
(915,785,l),
(830,1012,o),
(716,1108,o),
(517,1108,cs),
(229,1108,o),
(66,906,o),
(66,543,cs),
(66,179,o),
(230,-28,o),
(509,-28,cs)
);
},
{
closed = 1;
nodes = (
(550,265,o),
(485,367,o),
(485,535,cs),
(485,707,o),
(553,816,o),
(671,816,cs),
(782,816,o),
(863,718,o),
(863,539,cs),
(863,362,o),
(784,265,o),
(668,265,cs)
);
}
);
width = 1400;
}
);
tags = (
overshot
);
unicode = 945;
},
{
glyphname = beta;
kernLeft = beta;
layers = (
{
background = {
shapes = (
{
closed = 1;
nodes = (
(313,-390,l),
(313,201,l),
(297,196,l),
(384,6,o),
(563,-24,o),
(667,-24,cs),
(906,-24,o),
(1149,126,o),
(1149,429,cs),
(1149,637,o),
(1031,783,o),
(814,826,c),
(1001,870,o),
(1093,988,o),
(1093,1139,cs),
(1093,1363,o),
(891,1524,o),
(643,1524,cs),
(322,1524,o),
(145,1268,o),
(145,1005,cs),
(145,-390,l)
);
},
{
closed = 1;
nodes = (
(450,116,o),
(313,236,o),
(313,519,c,{
name = "";
}),
(313,940,ls),
(313,1232,o),
(412,1384,o),
(631,1384,cs),
(829,1384,o),
(917,1255,o),
(917,1133,cs),
(917,992,o),
(813,888,o),
(628,888,cs),
(458,888,l),
(458,744,l),
(637,744,ls),
(899,744,o),
(965,567,o),
(965,434,cs),
(965,236,o),
(836,116,o),
(651,116,cs)
);
}
);
};
layerId = m01;
shapes = (
{
closed = 1;
nodes = (
(313,-390,l),
(313,201,l),
(297,196,l),
(384,6,o),
(563,-24,o),
(667,-24,cs),
(906,-24,o),
(1149,126,o),
(1149,429,cs),
(1149,637,o),
(1031,783,o),
(814,826,c),
(1001,870,o),
(1093,988,o),
(1093,1139,cs),
(1093,1363,o),
(891,1524,o),
(643,1524,cs),
(322,1524,o),
(145,1268,o),
(145,1005,cs),
(145,-390,l)
);
},
{
closed = 1;
nodes = (
(450,116,o),
(313,236,o),
(313,519,c,{
name = "";
}),
(313,940,ls),
(313,1232,o),
(412,1384,o),
(631,1384,cs),
(829,1384,o),
(917,1255,o),
(917,1133,cs),
(917,992,o),
(813,888,o),
(628,888,cs),
(458,888,l),
(458,744,l),
(637,744,ls),
(899,744,o),
(965,567,o),
(965,434,cs),
(965,236,o),
(836,116,o),
(651,116,cs)
);
}
);
width = 1224;
},
{
background = {
shapes = (
{
closed = 1;
nodes = (
(504,-390,l),
(504,165,l),
(466,155,l),
(518,49,o),
(623,-28,o),
(832,-28,cs),
(1101,-28,o),
(1311,156,o),
(1311,432,cs),
(1311,627,o),
(1197,765,o),
(967,799,c),
(1196,820,o),
(1268,975,o),
(1268,1123,cs),
(1268,1394,o),
(1028,1528,o),
(732,1528,cs),
(357,1528,o),
(104,1313,o),
(104,942,cs),
(104,-390,l)
);
},
{
closed = 1;
nodes = (
(572,265,o),
(504,365,o),
(504,565,cs,{
name = "";
}),
(504,988,ls),
(504,1157,o),
(580,1217,o),
(696,1217,cs),
(818,1217,o),
(865,1150,o),
(865,1072,cs),
(865,981,o),
(802,922,o),
(691,918,cs),
(630,916,l),
(630,661,l),
(679,661,ls),
(841,661,o),
(901,570,o),
(901,468,cs),
(901,351,o),
(822,265,o),
(702,265,cs)
);
}
);
};
layerId = m002;
shapes = (
{
closed = 1;
nodes = (
(504,-390,l),
(504,165,l),
(466,155,l),
(518,49,o),
(623,-28,o),
(832,-28,cs),
(1101,-28,o),
(1311,156,o),
(1311,432,cs),
(1311,627,o),
(1197,765,o),
(967,799,c),
(1196,820,o),
(1268,975,o),
(1268,1123,cs),
(1268,1394,o),
(1028,1528,o),
(732,1528,cs),
(357,1528,o),
(104,1313,o),
(104,942,cs),
(104,-390,l)
);
},
{
closed = 1;
nodes = (
(572,265,o),
(504,365,o),
(504,565,cs,{
name = "";
}),
(504,988,ls),
(504,1157,o),
(580,1217,o),
(696,1217,cs),
(818,1217,o),
(865,1150,o),
(865,1072,cs),
(865,981,o),
(802,922,o),
(691,918,cs),
(630,916,l),
(630,661,l),
(679,661,ls),
(841,661,o),
(901,570,o),
(901,468,cs),
(901,351,o),
(822,265,o),
(702,265,cs)
);
}
);
width = 1350;
}
);
tags = (
overshot
);
unicode = 946;
},
{
glyphname = mu;
kernLeft = mu;
layers = (
{
background = {
shapes = (
{
closed = 1;
nodes = (
(332,-390,l),
(332,250,l),
(289,232,l),
(316,69,o),
(429,-24,o),
(594,-24,cs),
(745,-24,o),
(845,59,o),
(929,234,c),
(880,250,l),
(842,71,o),
(954,0,o),
(1039,0,cs),
(1159,0,l),
(1159,140,l),
(1097,140,ls),
(1056,140,o),
(1048,151,o),
(1048,196,cs),
(1048,1080,l),
(880,1080,l),
(880,484,ls),
(880,186,o),
(724,116,o),
(589,116,cs),
(332,116,o),
(332,367,o),
(332,416,cs),
(332,1080,l),
(164,1080,l),
(164,-390,l)
);
}
);
};
layerId = m01;
shapes = (
{
closed = 1;
nodes = (
(332,-390,l),
(332,250,l),
(289,232,l),
(316,69,o),
(429,-24,o),
(594,-24,cs),
(745,-24,o),
(845,59,o),
(929,234,c),
(880,250,l),
(842,71,o),
(954,0,o),
(1039,0,cs),
(1159,0,l),
(1159,140,l),
(1097,140,ls),
(1056,140,o),
(1048,151,o),
(1048,196,cs),
(1048,1080,l),
(880,1080,l),
(880,484,ls),
(880,186,o),
(724,116,o),
(589,116,cs),
(332,116,o),
(332,367,o),
(332,416,cs),
(332,1080,l),
(164,1080,l),
(164,-390,l)
);
}
);
width = 1227;
},
{
background = {
shapes = (
{
closed = 1;
nodes = (
(525,-390,l),
(525,264,l),
(463,229,l),
(463,128,o),
(495,-13,o),
(675,-13,cs),
(818,-13,o),
(895,77,o),
(904,309,c),
(825,242,l),
(824,79,o),
(931,0,o),
(1148,0,cs),
(1326,0,l),
(1326,280,l),
(1269,280,ls),
(1227,280,o),
(1219,293,o),
(1219,333,cs),
(1219,1080,l),
(819,1080,l),
(819,513,ls),
(819,274,o),
(720,264,o),
(673,264,cs),
(581,264,o),
(525,303,o),
(525,461,cs),
(525,1080,l),
(125,1080,l),
(125,-390,l)
);
}
);
};
layerId = m002;
shapes = (
{
closed = 1;
nodes = (
(525,-390,l),
(525,264,l),
(463,229,l),
(463,128,o),
(495,-13,o),
(675,-13,cs),
(818,-13,o),
(895,77,o),
(904,309,c),
(825,242,l),
(824,79,o),
(931,0,o),
(1148,0,cs),
(1326,0,l),
(1326,280,l),
(1269,280,ls),
(1227,280,o),
(1219,293,o),
(1219,333,cs),
(1219,1080,l),
(819,1080,l),
(819,513,ls),
(819,274,o),
(720,264,o),
(673,264,cs),
(581,264,o),
(525,303,o),
(525,461,cs),
(525,1080,l),
(125,1080,l),
(125,-390,l)
);
}
);
width = 1368;
}
);
unicode = 956;
},
{
glyphname = pi;
kernLeft = pi;
layers = (
{
background = {
shapes = (
{
closed = 1;
nodes = (
(395,0,l),
(395,940,l),
(843,940,l),
(843,150,ls),
(843,63,o),
(918,0,o),
(1003,0,cs),
(1206,0,l),
(1206,140,l),
(1061,140,ls),
(1019,140,o),
(1011,151,o),
(1011,195,cs),
(1011,940,l),
(1206,940,l),
(1206,1080,l),
(59,1080,l),
(59,940,l),
(227,940,l),
(227,0,l)
);
}
);
};
layerId = m01;
shapes = (
{
closed = 1;
nodes = (
(395,0,l),
(395,940,l),
(843,940,l),
(843,150,ls),
(843,63,o),
(918,0,o),
(1003,0,cs),
(1206,0,l),
(1206,140,l),
(1061,140,ls),
(1019,140,o),
(1011,151,o),
(1011,195,cs),
(1011,940,l),
(1206,940,l),
(1206,1080,l),
(59,1080,l),
(59,940,l),
(227,940,l),
(227,0,l)
);
}
);
width = 1289;
},
{
background = {
shapes = (
{
closed = 1;
nodes = (
(576,0,l),
(576,800,l),
(826,800,l),
(826,287,ls),
(826,93,o),
(925,0,o),
(1145,0,cs),
(1400,0,l),
(1400,280,l),
(1276,280,ls),
(1234,280,o),
(1226,291,o),
(1226,336,cs),
(1226,800,l),
(1400,800,l),
(1400,1080,l),
(37,1080,l),
(37,800,l),
(176,800,l),
(176,0,l)
);
}
);
};
layerId = m002;
shapes = (
{
closed = 1;
nodes = (
(576,0,l),
(576,800,l),
(826,800,l),
(826,287,ls),
(826,93,o),
(925,0,o),
(1145,0,cs),
(1400,0,l),
(1400,280,l),
(1276,280,ls),
(1234,280,o),
(1226,291,o),
(1226,336,cs),
(1226,800,l),
(1400,800,l),
(1400,1080,l),
(37,1080,l),
(37,800,l),
(176,800,l),
(176,0,l)
);
}
);
width = 1477;
}
);
unicode = 960;
},
{
glyphname = "One-roman";
layers = (
{
background = {
shapes = (
{
closed = 1;
nodes = (
(643,0,l),
(643,140,l),
(452,140,l),
(452,1300,l),
(643,1300,l),
(643,1440,l),
(81,1440,l),
(81,1300,l),
(272,1300,l),
(272,140,l),
(81,140,l),
(81,0,l)
);
}
);
};
layerId = m01;
shapes = (
{
closed = 1;
nodes = (
(643,0,l),
(643,140,l),
(452,140,l),
(452,1300,l),
(643,1300,l),
(643,1440,l),
(81,1440,l),
(81,1300,l),
(272,1300,l),
(272,140,l),
(81,140,l),
(81,0,l)
);
}
);
width = 704;
},
{
background = {
shapes = (
{
closed = 1;
nodes = (
(906,0,l),
(906,316,l),
(700,316,l),
(700,1124,l),
(906,1124,l),
(906,1440,l),
(84,1440,l),
(84,1124,l),
(290,1124,l),
(290,316,l),
(84,316,l),
(84,0,l)
);
}
);
};
layerId = m002;
shapes = (
{
closed = 1;
nodes = (
(906,0,l),
(906,316,l),
(700,316,l),
(700,1124,l),
(906,1124,l),
(906,1440,l),
(84,1440,l),
(84,1124,l),
(290,1124,l),
(290,316,l),
(84,316,l),
(84,0,l)
);
}
);
width = 990;
}
);
unicode = 8544;
},
{
glyphname = "Two-roman";
layers = (
{
background = {
shapes = (
{
closed = 1;
nodes = (
(1195,0,l),
(1195,140,l),
(1004,140,l),
(1004,1300,l),
(1195,1300,l),
(1195,1440,l),
(71,1440,l),
(71,1300,l),
(262,1300,l),
(262,140,l),
(71,140,l),
(71,0,l)
);
},
{
closed = 1;
nodes = (
(442,1300,l),
(824,1300,l),
(824,140,l),
(442,140,l)
);
}
);
};
layerId = m01;
shapes = (
{
closed = 1;
nodes = (
(1195,0,l),
(1195,140,l),
(1004,140,l),
(1004,1300,l),
(1195,1300,l),
(1195,1440,l),
(71,1440,l),
(71,1300,l),
(262,1300,l),
(262,140,l),
(71,140,l),
(71,0,l)
);
},
{
closed = 1;
nodes = (
(442,1300,l),
(824,1300,l),
(824,140,l),
(442,140,l)
);
}
);
width = 1266;
},
{
background = {
shapes = (
{
closed = 1;
nodes = (
(1507,0,l),
(1507,316,l),
(1301,316,l),
(1301,1124,l),
(1507,1124,l),
(1507,1440,l),
(63,1440,l),
(63,1124,l),
(269,1124,l),
(269,316,l),
(63,316,l),
(63,0,l)
);
},
{
closed = 1;
nodes = (
(679,1124,l),
(891,1124,l),
(891,316,l),
(679,316,l)
);
}
);
};
layerId = m002;
shapes = (
{
closed = 1;
nodes = (
(1507,0,l),
(1507,316,l),
(1301,316,l),
(1301,1124,l),
(1507,1124,l),
(1507,1440,l),
(63,1440,l),
(63,1124,l),
(269,1124,l),
(269,316,l),
(63,316,l),
(63,0,l)
);
},
{
closed = 1;
nodes = (
(679,1124,l),
(891,1124,l),
(891,316,l),
(679,316,l)
);
}
);
width = 1570;
}
);
unicode = 8545;
},
{
glyphname = "Three-roman";
layers = (
{
background = {
shapes = (
{
closed = 1;
nodes = (
(1757,0,l),
(1757,140,l),
(1566,140,l),
(1566,1300,l),
(1757,1300,l),
(1757,1440,l),
(71,1440,l),
(71,1300,l),
(262,1300,l),
(262,140,l),
(71,140,l),
(71,0,l)
);
},
{
closed = 1;
nodes = (
(442,1300,l),
(824,1300,l),
(824,140,l),
(442,140,l)
);
},
{
closed = 1;
nodes = (
(1004,1300,l),
(1386,1300,l),
(1386,140,l),
(1004,140,l)
);
}
);
};
layerId = m01;
shapes = (
{
closed = 1;
nodes = (
(1757,0,l),
(1757,140,l),
(1566,140,l),
(1566,1300,l),
(1757,1300,l),
(1757,1440,l),
(71,1440,l),
(71,1300,l),
(262,1300,l),
(262,140,l),
(71,140,l),
(71,0,l)
);
},
{
closed = 1;
nodes = (
(442,1300,l),
(824,1300,l),
(824,140,l),
(442,140,l)
);
},
{
closed = 1;
nodes = (
(1004,1300,l),
(1386,1300,l),
(1386,140,l),
(1004,140,l)
);
}
);
width = 1828;
},
{
background = {
shapes = (
{
closed = 1;
nodes = (
(2129,0,l),
(2129,316,l),
(1923,316,l),
(1923,1124,l),
(2129,1124,l),
(2129,1440,l),
(63,1440,l),
(63,1124,l),
(269,1124,l),
(269,316,l),
(63,316,l),
(63,0,l)
);
},
{
closed = 1;
nodes = (
(679,1124,l),
(891,1124,l),
(891,316,l),
(679,316,l)
);
},
{
closed = 1;
nodes = (
(1301,1124,l),
(1513,1124,l),
(1513,316,l),
(1301,316,l)
);
}
);
};
layerId = m002;
shapes = (
{
closed = 1;
nodes = (
(2129,0,l),
(2129,316,l),
(1923,316,l),
(1923,1124,l),
(2129,1124,l),
(2129,1440,l),
(63,1440,l),
(63,1124,l),
(269,1124,l),
(269,316,l),
(63,316,l),
(63,0,l)
);
},
{
closed = 1;
nodes = (
(679,1124,l),
(891,1124,l),
(891,316,l),
(679,316,l)
);
},
{
closed = 1;
nodes = (
(1301,1124,l),
(1513,1124,l),
(1513,316,l),
(1301,316,l)
);
}
);
width = 2192;
}
);
unicode = 8546;
},
{
glyphname = "Five-roman";
layers = (
{
background = {
shapes = (
{
closed = 1;
nodes = (
(861,0,l,{
name = "";
}),
(1285,1368,l),
(1104,1372,l),
(737,84,l),
(791,84,l),
(421,1368,l),
(239,1368,l),
(663,0,l,{
name = "";
})
);
},
{
closed = 1;
nodes = (
(657,1300,l),
(657,1440,l),
(71,1440,l),
(71,1300,l)
);
},
{
closed = 1;
nodes = (
(1453,1300,l),
(1453,1440,l),
(867,1440,l),
(867,1300,l)
);
}
);
};
layerId = m01;
shapes = (
{
closed = 1;
nodes = (
(861,0,l,{
name = "";
}),
(1285,1368,l),
(1104,1372,l),
(737,84,l),
(791,84,l),
(421,1368,l),
(239,1368,l),
(663,0,l,{
name = "";
})
);
},
{
closed = 1;
nodes = (
(657,1300,l),
(657,1440,l),
(71,1440,l),
(71,1300,l)
);
},
{
closed = 1;
nodes = (
(1453,1300,l),
(1453,1440,l),
(867,1440,l),
(867,1300,l)
);
}
);
width = 1524;
},
{
background = {
shapes = (
{
closed = 1;
nodes = (
(1177,0,l,{
name = "";
}),
(1623,1440,l,{
name = "";
}),
(1181,1440,l,{
name = "";
}),
(874,249,l),
(916,249,l),
(611,1440,l,{
name = "";
}),
(169,1440,l,{
name = "";
}),
(617,0,l,{
name = "";
})
);
},
{
closed = 1;
nodes = (
(823,1124,l),
(823,1440,l),
(69,1440,l),
(69,1124,l)
);
},
{
closed = 1;
nodes = (
(1724,1124,l),
(1724,1440,l),
(961,1440,l),
(961,1124,l)
);
}
);
};
layerId = m002;
shapes = (
{
closed = 1;
nodes = (
(1177,0,l,{
name = "";
}),
(1623,1440,l,{
name = "";
}),
(1181,1440,l,{
name = "";
}),
(874,249,l),
(916,249,l),
(611,1440,l,{
name = "";
}),
(169,1440,l,{
name = "";
}),
(617,0,l,{
name = "";
})
);
},
{
closed = 1;
nodes = (
(823,1124,l),
(823,1440,l),
(69,1440,l),
(69,1124,l)
);
},
{
closed = 1;
nodes = (
(1724,1124,l),
(1724,1440,l),
(961,1440,l),
(961,1124,l)
);
}
);
width = 1793;
}
);
unicode = 8548;
},
{
glyphname = "Ten-roman";
layers = (
{
background = {
shapes = (
{
closed = 1;
nodes = (
(419,0,l,{
name = "";
}),
(766,605,l),
(1114,0,l,{
name = "";
}),
(1338,0,l,{
name = "";
}),
(876,742,l),
(1306,1440,l,{
name = "";
}),
(1100,1440,l,{
name = "";
}),
(773,861,l),
(443,1440,l,{
name = "";
}),
(228,1440,l,{
name = "";
}),
(661,746,l),
(208,0,l,{
name = "";
})
);
},
{
closed = 1;
nodes = (
(707,0,l),
(707,140,l),
(111,140,l),
(111,0,l)
);
},
{
closed = 1;
nodes = (
(1429,0,l),
(1429,140,l),
(839,140,l),
(839,0,l)
);
},
{
closed = 1;
nodes = (
(707,1300,l),
(707,1440,l),
(111,1440,l),
(111,1300,l)
);
},
{
closed = 1;
nodes = (
(1429,1300,l),
(1429,1440,l),
(839,1440,l),
(839,1300,l)
);
}
);
};
layerId = m01;
shapes = (
{
closed = 1;
nodes = (
(419,0,l,{
name = "";
}),
(766,605,l),
(1114,0,l,{
name = "";
}),
(1338,0,l,{
name = "";
}),
(876,742,l),
(1306,1440,l,{
name = "";
}),
(1100,1440,l,{
name = "";
}),
(773,861,l),
(443,1440,l,{
name = "";
}),
(228,1440,l,{
name = "";
}),
(661,746,l),
(208,0,l,{
name = "";
})
);
},
{
closed = 1;
nodes = (
(707,0,l),
(707,140,l),
(111,140,l),
(111,0,l)
);
},
{
closed = 1;
nodes = (
(1429,0,l),
(1429,140,l),
(839,140,l),
(839,0,l)
);
},
{
closed = 1;
nodes = (
(707,1300,l),
(707,1440,l),
(111,1440,l),
(111,1300,l)
);
},
{
closed = 1;
nodes = (
(1429,1300,l),
(1429,1440,l),
(839,1440,l),
(839,1300,l)
);
}
);
width = 1540;
},
{
background = {
shapes = (
{
closed = 1;
nodes = (
(622,273,l),
(792,570,l),
(989,273,l),
(1407,273,l),
(1047,724,l),
(1361,1157,l),
(948,1157,l),
(798,891,l),
(619,1157,l),
(193,1157,l),
(532,733,l),
(197,273,l)
);
},
{
closed = 1;
nodes = (
(743,0,l),
(743,316,l),
(69,316,l),
(69,0,l)
);
},
{
closed = 1;
nodes = (
(1509,0,l),
(1509,316,l),
(857,316,l),
(857,0,l)
);
},
{
closed = 1;
nodes = (
(743,1125,l),
(743,1440,l),
(69,1440,l),
(69,1125,l)
);
},
{
closed = 1;
nodes = (
(1509,1125,l),
(1509,1440,l),
(857,1440,l),
(857,1125,l)
);
}
);
};
layerId = m002;
shapes = (
{
closed = 1;
nodes = (
(622,273,l),
(792,570,l),
(989,273,l),
(1407,273,l),
(1047,724,l),
(1361,1157,l),
(948,1157,l),
(798,891,l),
(619,1157,l),
(193,1157,l),
(532,733,l),
(197,273,l)
);
},
{
closed = 1;
nodes = (
(743,0,l),
(743,316,l),
(69,316,l),
(69,0,l)
);
},
{
closed = 1;
nodes = (
(1509,0,l),
(1509,316,l),
(857,316,l),
(857,0,l)
);
},
{
closed = 1;
nodes = (
(743,1125,l),
(743,1440,l),
(69,1440,l),
(69,1125,l)
);
},
{
closed = 1;
nodes = (
(1509,1125,l),
(1509,1440,l),
(857,1440,l),
(857,1125,l)
);
}
);
width = 1578;
}
);
unicode = 8553;
},
{
glyphname = "Fifty-roman";
layers = (
{
background = {
shapes = (
{
closed = 1;
nodes = (
(1165,0,l),
(1165,389,l),
(985,389,l),
(985,148,l),
(445,148,l),
(445,1300,l),
(643,1300,l),
(643,1440,l),
(81,1440,l),
(81,1300,l),
(265,1300,l),
(265,140,l),
(81,140,l),
(81,0,l)
);
}
);
};
layerId = m01;
shapes = (
{
closed = 1;
nodes = (
(1165,0,l),
(1165,389,l),
(985,389,l),
(985,148,l),
(445,148,l),
(445,1300,l),
(643,1300,l),
(643,1440,l),
(81,1440,l),
(81,1300,l),
(265,1300,l),
(265,140,l),
(81,140,l),
(81,0,l)
);
}
);
width = 1218;
},
{
background = {
shapes = (
{
closed = 1;
nodes = (
(1363,0,l),
(1363,630,l),
(953,630,l),
(953,350,l),
(690,350,l),
(690,1124,l),
(906,1124,l),
(906,1440,l),
(84,1440,l),
(84,1124,l),
(280,1124,l),
(280,316,l),
(84,316,l),
(84,0,l)
);
}
);
};
layerId = m002;
shapes = (
{
closed = 1;
nodes = (
(1363,0,l),
(1363,630,l),
(953,630,l),
(953,350,l),
(690,350,l),
(690,1124,l),
(906,1124,l),
(906,1440,l),
(84,1440,l),
(84,1124,l),
(280,1124,l),
(280,316,l),
(84,316,l),
(84,0,l)
);
}
);
width = 1395;
}
);
metricLeft = I;
metricRight = L;
unicode = 8556;
},
{
glyphname = "Hundred-roman";
layers = (
{
background = {
shapes = (
{
closed = 1;
nodes = (
(1031,-24,o),
(1240,133,o),
(1311,429,c),
(1174,483,l),
(1132,257,o),
(967,124,o),
(758,124,cs),
(470,124,o),
(285,368,o),
(285,721,cs),
(285,1066,o),
(462,1316,o),
(766,1316,cs),
(961,1316,o),
(1111,1207,o),
(1168,970,c),
(1299,1015,l),
(1235,1317,o),
(1026,1464,o),
(769,1464,cs),
(345,1464,o),
(90,1154,o),
(90,727,cs),
(90,286,o),
(362,-24,o),
(771,-24,cs)
);
},
{
closed = 1;
nodes = (
(1354,0,l),
(1354,483,l),
(1174,483,l),
(1174,0,l)
);
},
{
closed = 1;
nodes = (
(1348,970,l),
(1348,1440,l),
(1168,1440,l),
(1168,970,l)
);
}
);
};
layerId = m01;
shapes = (
{
closed = 1;
nodes = (
(1031,-24,o),
(1240,133,o),
(1311,429,c),
(1174,483,l),
(1132,257,o),
(967,124,o),
(758,124,cs),
(470,124,o),
(285,368,o),
(285,721,cs),
(285,1066,o),
(462,1316,o),
(766,1316,cs),
(961,1316,o),
(1111,1207,o),
(1168,970,c),
(1299,1015,l),
(1235,1317,o),
(1026,1464,o),
(769,1464,cs),
(345,1464,o),
(90,1154,o),
(90,727,cs),
(90,286,o),
(362,-24,o),
(771,-24,cs)
);
},
{
closed = 1;
nodes = (
(1354,0,l),
(1354,483,l),
(1174,483,l),
(1174,0,l)
);
},
{
closed = 1;
nodes = (
(1348,970,l),
(1348,1440,l),
(1168,1440,l),
(1168,970,l)
);
}
);
width = 1423;
},
{
background = {
shapes = (
{
closed = 1;
nodes = (
(989,-28,o),
(1138,151,o),
(1185,455,c),
(1037,530,l),
(994,394,o),
(911,321,o),
(776,321,cs),
(584,321,o),
(478,465,o),
(478,720,cs),
(478,974,o),
(584,1118,o),
(776,1118,cs),
(924,1118,o),
(1022,1032,o),
(1048,873,c),
(1209,968,l),
(1163,1282,o),
(1004,1468,o),
(720,1468,cs),
(329,1468,o),
(52,1180,o),
(52,720,cs),
(52,259,o),
(329,-28,o),
(709,-28,cs)
);
},
{
closed = 1;
nodes = (
(1447,0,l),
(1447,530,l),
(1037,530,l),
(1037,0,l)
);
},
{
closed = 1;
nodes = (
(1458,873,l),
(1458,1440,l),
(1048,1440,l),
(1048,873,l)
);
}
);
};
layerId = m002;
shapes = (
{
closed = 1;
nodes = (
(989,-28,o),
(1138,151,o),
(1185,455,c),
(1037,530,l),
(994,394,o),
(911,321,o),
(776,321,cs),
(584,321,o),
(478,465,o),
(478,720,cs),
(478,974,o),
(584,1118,o),
(776,1118,cs),
(924,1118,o),
(1022,1032,o),
(1048,873,c),
(1209,968,l),
(1163,1282,o),
(1004,1468,o),
(720,1468,cs),
(329,1468,o),
(52,1180,o),
(52,720,cs),
(52,259,o),
(329,-28,o),
(709,-28,cs)
);
},
{
closed = 1;
nodes = (
(1447,0,l),
(1447,530,l),
(1037,530,l),
(1037,0,l)
);
},
{
closed = 1;
nodes = (
(1458,873,l),
(1458,1440,l),
(1048,1440,l),
(1048,873,l)
);
}
);
width = 1490;
}
);
metricLeft = C;
metricRight = C;
unicode = 8557;
},
{
glyphname = "Fivehundred-roman";
layers = (
{
background = {
shapes = (
{
closed = 1;
nodes = (
(694,0,ls),
(1150,0,o),
(1442,234,o),
(1442,730,cs),
(1442,1168,o),
(1215,1440,o),
(707,1440,cs),
(81,1440,l),
(81,1300,l),
(272,1300,l),
(272,140,l),
(81,140,l),
(81,0,l)
);
},
{
closed = 1;
nodes = (
(452,1292,l),
(689,1292,ls),
(1088,1292,o),
(1247,1070,o),
(1247,720,cs),
(1247,341,o),
(1058,148,o),
(676,148,cs),
(452,148,l)
);
}
);
};
layerId = m01;
shapes = (
{
closed = 1;
nodes = (
(694,0,ls),
(1150,0,o),
(1442,234,o),
(1442,730,cs),
(1442,1168,o),
(1215,1440,o),
(707,1440,cs),
(81,1440,l),
(81,1300,l),
(272,1300,l),
(272,140,l),
(81,140,l),
(81,0,l)
);
},
{
closed = 1;
nodes = (
(452,1292,l),
(689,1292,ls),
(1088,1292,o),
(1247,1070,o),
(1247,720,cs),
(1247,341,o),
(1058,148,o),
(676,148,cs),
(452,148,l)
);
}
);
width = 1535;
},
{
background = {
shapes = (
{
closed = 1;
nodes = (
(929,0,ls),
(1455,0,o),
(1681,257,o),
(1681,720,cs),
(1681,1183,o),
(1455,1440,o),
(929,1440,cs),
(84,1440,l),
(84,1095,l),
(290,1095,l),
(290,345,l),
(84,345,l),
(84,0,l)
);
},
{
closed = 1;
nodes = (
(700,1090,l),
(885,1090,ls),
(1128,1090,o),
(1255,963,o),
(1255,720,cs),
(1255,477,o),
(1128,350,o),
(885,350,cs),
(700,350,l)
);
}
);
};
layerId = m002;
shapes = (
{
closed = 1;
nodes = (
(929,0,ls),
(1455,0,o),
(1681,257,o),
(1681,720,cs),
(1681,1183,o),
(1455,1440,o),
(929,1440,cs),
(84,1440,l),
(84,1095,l),
(290,1095,l),
(290,345,l),
(84,345,l),
(84,0,l)
);
},
{
closed = 1;
nodes = (
(700,1090,l),
(885,1090,ls),
(1128,1090,o),
(1255,963,o),
(1255,720,cs),
(1255,477,o),
(1128,350,o),
(885,350,cs),
(700,350,l)
);
}
);
width = 1737;
}
);
metricLeft = I;
metricRight = D;
unicode = 8558;
},
{
glyphname = "Thousand-roman";
layers = (
{
background = {
shapes = (
{
closed = 1;
nodes = (
(643,0,l),
(643,140,l),
(426,140,l),
(488,1296,l),
(910,0,l),
(1110,0,l),
(1530,1296,l),
(1592,140,l),
(1381,140,l),
(1381,0,l),
(1943,0,l),
(1943,140,l),
(1766,140,l),
(1702,1300,l),
(1943,1300,l),
(1943,1440,l),
(1398,1440,l),
(1008,194,l),
(620,1440,l),
(81,1440,l),
(81,1300,l),
(316,1300,l),
(252,140,l),
(81,140,l),
(81,0,l)
);
}
);
};
layerId = m01;
shapes = (
{
closed = 1;
nodes = (
(643,0,l),
(643,140,l),
(426,140,l),
(488,1296,l),
(910,0,l),
(1110,0,l),
(1530,1296,l),
(1592,140,l),
(1381,140,l),
(1381,0,l),
(1943,0,l),
(1943,140,l),
(1766,140,l),
(1702,1300,l),
(1943,1300,l),
(1943,1440,l),
(1398,1440,l),
(1008,194,l),
(620,1440,l),
(81,1440,l),
(81,1300,l),
(316,1300,l),
(252,140,l),
(81,140,l),
(81,0,l)
);
}
);
width = 2024;
},
{
background = {
shapes = (
{
closed = 1;
nodes = (
(799,0,l),
(799,316,l),
(712,316,l),
(755,1141,l),
(964,0,l),
(1481,0,l),
(1691,1141,l),
(1734,316,l),
(1647,316,l),
(1647,0,l),
(2362,0,l),
(2362,316,l),
(2132,316,l),
(2088,1124,l),
(2332,1124,l),
(2332,1440,l),
(1406,1440,l),
(1223,367,l),
(1039,1440,l),
(114,1440,l),
(114,1124,l),
(358,1124,l),
(314,316,l),
(84,316,l),
(84,0,l)
);
}
);
};
layerId = m002;
shapes = (
{
closed = 1;
nodes = (
(799,0,l),
(799,316,l),
(712,316,l),
(755,1141,l),
(964,0,l),
(1481,0,l),
(1691,1141,l),
(1734,316,l),
(1647,316,l),
(1647,0,l),
(2362,0,l),
(2362,316,l),
(2132,316,l),
(2088,1124,l),
(2332,1124,l),
(2332,1440,l),
(1406,1440,l),
(1223,367,l),
(1039,1440,l),
(114,1440,l),
(114,1124,l),
(358,1124,l),
(314,316,l),
(84,316,l),
(84,0,l)
);
}
);
width = 2446;
}
);
metricLeft = I;
metricRight = I;
unicode = 8559;
},
{
glyphname = zero;
kernLeft = zero;
kernRight = zero;
layers = (
{
background = {
shapes = (
{
closed = 1;
nodes = (
(960,-24,o),
(1152,249,o),
(1152,720,cs),
(1152,1191,o),
(960,1464,o),
(626,1464,cs),
(292,1464,o),
(100,1191,o),
(100,720,cs),
(100,249,o),
(292,-24,o),
(626,-24,cs)
);
},
{
closed = 1;
nodes = (
(405,120,o),
(290,328,o),
(290,720,cs),
(290,1112,o),
(405,1320,o),
(626,1320,cs),
(847,1320,o),
(962,1112,o),
(962,720,cs),
(962,328,o),
(847,120,o),
(626,120,cs)
);
}
);
};
layerId = m01;
shapes = (
{
closed = 1;
nodes = (
(960,-24,o),
(1152,249,o),
(1152,720,cs),
(1152,1191,o),
(960,1464,o),
(626,1464,cs),
(292,1464,o),
(100,1191,o),
(100,720,cs),
(100,249,o),
(292,-24,o),
(626,-24,cs)
);
},
{
closed = 1;
nodes = (
(405,120,o),
(290,328,o),
(290,720,cs),
(290,1112,o),
(405,1320,o),
(626,1320,cs),
(847,1320,o),
(962,1112,o),
(962,720,cs),
(962,328,o),
(847,120,o),
(626,120,cs)
);
}
);
width = 1252;
},
{
background = {
shapes = (
{
closed = 1;
nodes = (
(1053,-28,o),
(1268,241,o),
(1268,720,cs),
(1268,1198,o),
(1053,1468,o),
(664,1468,cs),
(276,1468,o),
(59,1199,o),
(59,720,cs),
(59,240,o),
(276,-28,o),
(664,-28,cs)
);
},
{
closed = 1;
nodes = (
(538,288,o),
(477,432,o),
(477,720,cs),
(477,1007,o),
(538,1151,o),
(664,1151,cs),
(788,1151,o),
(850,1007,o),
(850,720,cs),
(850,432,o),
(788,288,o),
(664,288,cs)
);
}
);
};
layerId = m002;
shapes = (
{
closed = 1;
nodes = (
(1053,-28,o),
(1268,241,o),
(1268,720,cs),
(1268,1198,o),
(1053,1468,o),
(664,1468,cs),
(276,1468,o),
(59,1199,o),
(59,720,cs),
(59,240,o),
(276,-28,o),
(664,-28,cs)
);
},
{
closed = 1;
nodes = (
(538,288,o),
(477,432,o),
(477,720,cs),
(477,1007,o),
(538,1151,o),
(664,1151,cs),
(788,1151,o),
(850,1007,o),
(850,720,cs),
(850,432,o),
(788,288,o),
(664,288,cs)
);
}
);
width = 1327;
}
);
tags = (
overshot
);
unicode = 48;
userData = {
KernOnName = zero;
};
},
{
glyphname = one;
kernLeft = one;
kernRight = one;
layers = (
{
background = {
shapes = (
{
closed = 1;
nodes = (
(539,0,l),
(539,1440,l),
(410,1440,l),
(245,1221,o),
(148,1166,o),
(61,1124,c),
(61,954,l),
(174,996,o),
(258,1056,o),
(363,1147,c),
(363,0,l)
);
}
);
};
layerId = m01;
shapes = (
{
closed = 1;
nodes = (
(539,0,l),
(539,1440,l),
(410,1440,l),
(245,1221,o),
(148,1166,o),
(61,1124,c),
(61,954,l),
(174,996,o),
(258,1056,o),
(363,1147,c),
(363,0,l)
);
}
);
width = 703;
},
{
background = {
shapes = (
{
closed = 1;
nodes = (
(801,0,l),
(801,1440,l),
(493,1440,l),
(347,1244,o),
(189,1166,o),
(44,1114,c),
(44,704,l),
(176,748,o),
(274,811,o),
(396,937,c),
(396,0,l)
);
}
);
};
layerId = m002;
shapes = (
{
closed = 1;
nodes = (
(801,0,l),
(801,1440,l),
(493,1440,l),
(347,1244,o),
(189,1166,o),
(44,1114,c),
(44,704,l),
(176,748,o),
(274,811,o),
(396,937,c),
(396,0,l)
);
}
);
width = 926;
}
);
unicode = 49;
userData = {
KernOnName = one;
};
},
{
glyphname = two;
kernLeft = two;
kernRight = two;
layers = (
{
background = {
shapes = (
{
closed = 1;
nodes = (
(1178,0,l),
(1178,316,l),
(404,316,l),
(422,236,l),
(753,432,ls),
(1039,601,o),
(1201,793,o),
(1201,1016,cs),
(1201,1337,o),
(882,1468,o),
(622,1468,cs),
(307,1468,o),
(72,1275,o),
(32,1038,c),
(437,931,l),
(443,1017,o),
(461,1150,o),
(621,1150,cs),
(701,1150,o),
(780,1117,o),
(780,966,cs),
(780,845,o),
(730,755,o),
(589,644,cs),
(71,239,l),
(71,0,l)
);
}
);
};
layerId = m002;
shapes = (
{
closed = 1;
nodes = (
(1178,0,l),
(1178,316,l),
(404,316,l),
(422,236,l),
(753,432,ls),
(1039,601,o),
(1201,793,o),
(1201,1016,cs),
(1201,1337,o),
(882,1468,o),
(622,1468,cs),
(307,1468,o),
(72,1275,o),
(32,1038,c),
(437,931,l),
(443,1017,o),
(461,1150,o),
(621,1150,cs),
(701,1150,o),
(780,1117,o),
(780,966,cs),
(780,845,o),
(730,755,o),
(589,644,cs),
(71,239,l),
(71,0,l)
);
}
);
width = 1261;
},
{
background = {
shapes = (
{
closed = 1;
nodes = (
(1090,0,l),
(1090,154,l),
(191,154,l),
(318,130,l),
(709,447,ls),
(931,627,o),
(1062,794,o),
(1062,1022,cs),
(1062,1343,o),
(801,1464,o),
(578,1464,cs),
(282,1464,o),
(86,1251,o),
(75,1060,c),
(267,1001,l),
(279,1180,o),
(362,1320,o),
(579,1320,cs),
(766,1320,o),
(872,1216,o),
(872,1018,cs),
(872,835,o),
(782,722,o),
(576,547,cs),
(70,118,l),
(70,0,l)
);
}
);
};
layerId = m01;
name = "400";
shapes = (
{
closed = 1;
nodes = (
(1090,0,l),
(1090,154,l),
(191,154,l),
(318,130,l),
(709,447,ls),
(931,627,o),
(1062,794,o),
(1062,1022,cs),
(1062,1343,o),
(801,1464,o),
(578,1464,cs),
(282,1464,o),
(86,1251,o),
(75,1060,c),
(267,1001,l),
(279,1180,o),
(362,1320,o),
(579,1320,cs),
(766,1320,o),
(872,1216,o),
(872,1018,cs),
(872,835,o),
(782,722,o),
(576,547,cs),
(70,118,l),
(70,0,l)
);
}
);
width = 1172;
}
);
tags = (
overshot
);
unicode = 50;
userData = {
KernOnName = two;
};
},
{
glyphname = three;
kernLeft = three;
kernRight = three;
layers = (
{
background = {
shapes = (
{
closed = 1;
nodes = (
(843,-24,o),
(1094,108,o),
(1094,429,cs),
(1094,606,o),
(969,756,o),
(767,792,c),
(950,833,o),
(1039,948,o),
(1039,1092,cs),
(1039,1309,o),
(843,1464,o),
(597,1464,cs),
(296,1464,o),
(105,1243,o),
(93,1037,c),
(275,980,l),
(290,1193,o),
(380,1320,o),
(591,1320,cs),
(761,1320,o),
(859,1211,o),
(859,1078,cs),
(859,964,o),
(766,858,o),
(597,858,cs),
(415,858,l),
(415,706,l),
(613,706,ls),
(845,706,o),
(904,541,o),
(904,425,cs),
(904,228,o),
(770,120,o),
(590,120,cs),
(390,120,o),
(269,265,o),
(255,480,c),
(73,423,l),
(98,135,o),
(325,-24,o),
(593,-24,cs)
);
}
);
};
layerId = m01;
shapes = (
{
closed = 1;
nodes = (
(843,-24,o),
(1094,108,o),
(1094,429,cs),
(1094,606,o),
(969,756,o),
(767,792,c),
(950,833,o),
(1039,948,o),
(1039,1092,cs),
(1039,1309,o),
(843,1464,o),
(597,1464,cs),
(296,1464,o),
(105,1243,o),
(93,1037,c),
(275,980,l),
(290,1193,o),
(380,1320,o),
(591,1320,cs),
(761,1320,o),
(859,1211,o),
(859,1078,cs),
(859,964,o),
(766,858,o),
(597,858,cs),
(415,858,l),
(415,706,l),
(613,706,ls),
(845,706,o),
(904,541,o),
(904,425,cs),
(904,228,o),
(770,120,o),
(590,120,cs),
(390,120,o),
(269,265,o),
(255,480,c),
(73,423,l),
(98,135,o),
(325,-24,o),
(593,-24,cs)
);
}
);
width = 1179;
},
{
background = {
shapes = (
{
closed = 1;
nodes = (
(944,-28,o),
(1229,114,o),
(1229,414,cs),
(1229,601,o),
(1118,731,o),
(891,764,c),
(1118,782,o),
(1186,934,o),
(1186,1076,cs),
(1186,1342,o),
(949,1468,o),
(662,1468,cs),
(306,1468,o),
(96,1274,o),
(79,1080,c),
(461,984,l),
(469,1116,o),
(532,1153,o),
(626,1153,cs),
(734,1153,o),
(779,1093,o),
(779,1022,cs),
(779,940,o),
(719,883,o),
(615,883,cs),
(505,883,l),
(505,626,l),
(569,626,ls),
(756,626,o),
(814,546,o),
(814,453,cs),
(814,343,o),
(734,288,o),
(628,288,cs),
(501,288,o),
(420,367,o),
(420,562,c),
(27,449,l),
(40,146,o),
(304,-28,o),
(640,-28,cs)
);
}
);
};
layerId = m002;
shapes = (
{
closed = 1;
nodes = (
(944,-28,o),
(1229,114,o),
(1229,414,cs),
(1229,601,o),
(1118,731,o),
(891,764,c),
(1118,782,o),
(1186,934,o),
(1186,1076,cs),
(1186,1342,o),
(949,1468,o),
(662,1468,cs),
(306,1468,o),
(96,1274,o),
(79,1080,c),
(461,984,l),
(469,1116,o),
(532,1153,o),
(626,1153,cs),
(734,1153,o),
(779,1093,o),
(779,1022,cs),
(779,940,o),
(719,883,o),
(615,883,cs),
(505,883,l),
(505,626,l),
(569,626,ls),
(756,626,o),
(814,546,o),
(814,453,cs),
(814,343,o),
(734,288,o),
(628,288,cs),
(501,288,o),
(420,367,o),
(420,562,c),
(27,449,l),
(40,146,o),
(304,-28,o),
(640,-28,cs)
);
}
);
width = 1278;
}
);
tags = (
overshot
);
unicode = 51;
},
{
glyphname = four;
kernLeft = four;
kernRight = four;
layers = (
{
background = {
shapes = (
{
closed = 1;
nodes = (
(970,0,l),
(970,1440,l),
(821,1440,l),
(62,544,l),
(62,372,l),
(1138,372,l),
(1138,526,l),
(142,526,l),
(202,474,l),
(840,1232,l),
(796,1328,l),
(796,476,l),
(794,476,l),
(794,0,l)
);
}
);
};
layerId = m01;
shapes = (
{
closed = 1;
nodes = (
(970,0,l),
(970,1440,l),
(821,1440,l),
(62,544,l),
(62,372,l),
(1138,372,l),
(1138,526,l),
(142,526,l),
(202,474,l),
(840,1232,l),
(796,1328,l),
(796,476,l),
(794,476,l),
(794,0,l)
);
}
);
width = 1197;
},
{
background = {
shapes = (
{
closed = 1;
nodes = (
(1126,0,l),
(1126,1440,l),
(719,1440,l),
(34,583,l),
(34,291,l),
(1320,291,l),
(1320,607,l),
(267,607,l),
(308,472,l),
(852,1171,l),
(751,1169,l),
(751,476,l),
(721,422,l),
(721,0,l)
);
}
);
};
layerId = m002;
shapes = (
{
closed = 1;
nodes = (
(1126,0,l),
(1126,1440,l),
(719,1440,l),
(34,583,l),
(34,291,l),
(1320,291,l),
(1320,607,l),
(267,607,l),
(308,472,l),
(852,1171,l),
(751,1169,l),
(751,476,l),
(721,422,l),
(721,0,l)
);
}
);
width = 1355;
}
);
unicode = 52;
userData = {
KernOnName = four;
};
},
{
glyphname = five;
kernLeft = five;
kernRight = five;
layers = (
{
background = {
shapes = (
{
closed = 1;
nodes = (
(870,-24,o),
(1106,176,o),
(1106,489,cs),
(1106,770,o),
(906,964,o),
(642,964,cs),
(458,964,o),
(330,869,o),
(258,746,c),
(307,742,l),
(345,1286,l),
(1020,1286,l),
(1020,1440,l),
(196,1440,l),
(138,638,l),
(312,620,l),
(354,720,o),
(441,816,o),
(602,816,cs),
(784,816,o),
(924,698,o),
(924,483,cs),
(924,270,o),
(789,120,o),
(596,120,cs),
(386,120,o),
(280,276,o),
(265,479,c),
(83,422,l),
(108,133,o),
(352,-24,o),
(602,-24,cs)
);
}
);
};
layerId = m01;
shapes = (
{
closed = 1;
nodes = (
(870,-24,o),
(1106,176,o),
(1106,489,cs),
(1106,770,o),
(906,964,o),
(642,964,cs),
(458,964,o),
(330,869,o),
(258,746,c),
(307,742,l),
(345,1286,l),
(1020,1286,l),
(1020,1440,l),
(196,1440,l),
(138,638,l),
(312,620,l),
(354,720,o),
(441,816,o),
(602,816,cs),
(784,816,o),
(924,698,o),
(924,483,cs),
(924,270,o),
(789,120,o),
(596,120,cs),
(386,120,o),
(280,276,o),
(265,479,c),
(83,422,l),
(108,133,o),
(352,-24,o),
(602,-24,cs)
);
}
);
width = 1188;
},
{
background = {
shapes = (
{
closed = 1;
nodes = (
(981,-28,o),
(1271,149,o),
(1271,513,cs),
(1271,772,o),
(1130,981,o),
(794,981,cs),
(635,981,o),
(500,935,o),
(417,810,c),
(456,770,l),
(489,1124,l),
(1184,1124,l),
(1184,1440,l),
(161,1440,l),
(84,636,l),
(510,607,l),
(550,673,o),
(599,698,o),
(668,698,cs),
(797,698,o),
(852,613,o),
(852,504,cs),
(852,384,o),
(794,289,o),
(666,289,cs),
(547,289,o),
(480,370,o),
(480,512,c),
(56,439,l),
(84,135,o),
(347,-28,o),
(657,-28,cs)
);
}
);
};
layerId = m002;
shapes = (
{
closed = 1;
nodes = (
(981,-28,o),
(1271,149,o),
(1271,513,cs),
(1271,772,o),
(1130,981,o),
(794,981,cs),
(635,981,o),
(500,935,o),
(417,810,c),
(456,770,l),
(489,1124,l),
(1184,1124,l),
(1184,1440,l),
(161,1440,l),
(84,636,l),
(510,607,l),
(550,673,o),
(599,698,o),
(668,698,cs),
(797,698,o),
(852,613,o),
(852,504,cs),
(852,384,o),
(794,289,o),
(666,289,cs),
(547,289,o),
(480,370,o),
(480,512,c),
(56,439,l),
(84,135,o),
(347,-28,o),
(657,-28,cs)
);
}
);
width = 1320;
}
);
tags = (
overshot
);
unicode = 53;
},
{
glyphname = six;
kernLeft = zero;
kernRight = six;
layers = (
{
background = {
shapes = (
{
closed = 1;
nodes = (
(924,-24,o),
(1120,165,o),
(1120,462,cs),
(1120,774,o),
(905,948,o),
(653,948,cs),
(444,948,o),
(315,828,o),
(259,698,c),
(275,682,l),
(275,905,o),
(308,1320,o),
(645,1320,cs),
(823,1320,o),
(932,1205,o),
(940,1033,c),
(1123,1080,l),
(1103,1261,o),
(926,1464,o),
(642,1464,cs),
(274,1464,o),
(99,1123,o),
(99,691,cs),
(99,249,o),
(282,-24,o),
(632,-24,cs)
);
},
{
closed = 1;
nodes = (
(437,120,o),
(313,251,o),
(313,459,cs),
(313,672,o),
(443,804,o),
(638,804,cs),
(827,804,o),
(940,679,o),
(940,465,cs),
(940,252,o),
(828,120,o),
(632,120,cs)
);
}
);
};
layerId = m01;
shapes = (
{
closed = 1;
nodes = (
(924,-24,o),
(1120,165,o),
(1120,462,cs),
(1120,774,o),
(905,948,o),
(653,948,cs),
(444,948,o),
(315,828,o),
(259,698,c),
(275,682,l),
(275,905,o),
(308,1320,o),
(645,1320,cs),
(823,1320,o),
(932,1205,o),
(940,1033,c),
(1123,1080,l),
(1103,1261,o),
(926,1464,o),
(642,1464,cs),
(274,1464,o),
(99,1123,o),
(99,691,cs),
(99,249,o),
(282,-24,o),
(632,-24,cs)
);
},
{
closed = 1;
nodes = (
(437,120,o),
(313,251,o),
(313,459,cs),
(313,672,o),
(443,804,o),
(638,804,cs),
(827,804,o),
(940,679,o),
(940,465,cs),
(940,252,o),
(828,120,o),
(632,120,cs)
);
}
);
width = 1218;
},
{
background = {
shapes = (
{
closed = 1;
nodes = (
(1010,-28,o),
(1244,168,o),
(1244,476,cs),
(1244,716,o),
(1102,931,o),
(776,931,cs),
(584,931,o),
(475,856,o),
(400,737,c),
(457,716,l),
(457,876,o),
(461,1171,o),
(680,1171,cs),
(786,1171,o),
(851,1101,o),
(858,994,c),
(1229,1092,l),
(1188,1287,o),
(993,1468,o),
(677,1468,cs),
(197,1468,o),
(57,1048,o),
(57,681,cs),
(57,227,o),
(276,-28,o),
(667,-28,cs)
);
},
{
closed = 1;
nodes = (
(558,269,o),
(492,341,o),
(492,455,cs),
(492,566,o),
(555,641,o),
(664,641,cs),
(770,641,o),
(835,571,o),
(835,457,cs),
(835,348,o),
(775,269,o),
(664,269,cs)
);
}
);
};
layerId = m002;
name = "900";
shapes = (
{
closed = 1;
nodes = (
(1010,-28,o),
(1244,168,o),
(1244,476,cs),
(1244,716,o),
(1102,931,o),
(776,931,cs),
(584,931,o),
(475,856,o),
(400,737,c),
(457,716,l),
(457,876,o),
(461,1171,o),
(680,1171,cs),
(786,1171,o),
(851,1101,o),
(858,994,c),
(1229,1092,l),
(1188,1287,o),
(993,1468,o),
(677,1468,cs),
(197,1468,o),
(57,1048,o),
(57,681,cs),
(57,227,o),
(276,-28,o),
(667,-28,cs)
);
},
{
closed = 1;
nodes = (
(558,269,o),
(492,341,o),
(492,455,cs),
(492,566,o),
(555,641,o),
(664,641,cs),
(770,641,o),
(835,571,o),
(835,457,cs),
(835,348,o),
(775,269,o),
(664,269,cs)
);
}
);
width = 1294;
}
);
tags = (
overshot
);
unicode = 54;
},
{
glyphname = seven;
kernLeft = seven;
kernRight = seven;
layers = (
{
background = {
shapes = (
{
closed = 1;
nodes = (
(462,0,l),
(541,493,o),
(759,897,o),
(1032,1305,c),
(1032,1440,l),
(54,1440,l),
(54,1286,l),
(854,1286,l),
(556,898,o),
(355,496,o),
(250,0,c)
);
}
);
};
layerId = m01;
shapes = (
{
closed = 1;
nodes = (
(462,0,l),
(541,493,o),
(759,897,o),
(1032,1305,c),
(1032,1440,l),
(54,1440,l),
(54,1286,l),
(854,1286,l),
(556,898,o),
(355,496,o),
(250,0,c)
);
}
);
width = 1087;
},
{
background = {
shapes = (
{
closed = 1;
nodes = (
(641,0,l),
(737,497,o),
(867,762,o),
(1196,1173,c),
(1196,1440,l),
(29,1440,l),
(29,1124,l),
(829,1124,l),
(542,887,o),
(314,496,o),
(221,0,c)
);
}
);
};
layerId = m002;
shapes = (
{
closed = 1;
nodes = (
(641,0,l),
(737,497,o),
(867,762,o),
(1196,1173,c),
(1196,1440,l),
(29,1440,l),
(29,1124,l),
(829,1124,l),
(542,887,o),
(314,496,o),
(221,0,c)
);
}
);
width = 1223;
}
);
unicode = 55;
userData = {
KernOnName = seven;
};
},
{
glyphname = eight;
kernLeft = eight;
kernRight = three;
layers = (
{
background = {
shapes = (
{
closed = 1;
nodes = (
(890,-24,o),
(1100,152,o),
(1100,409,cs),
(1100,592,o),
(989,753,o),
(778,792,c),
(944,831,o),
(1050,946,o),
(1050,1100,cs),
(1050,1310,o),
(864,1464,o),
(593,1464,cs),
(322,1464,o),
(134,1310,o),
(134,1100,cs),
(134,946,o),
(241,831,o),
(408,792,c),
(197,753,o),
(86,592,o),
(86,409,cs),
(86,152,o),
(295,-24,o),
(592,-24,cs)
);
},
{
closed = 1;
nodes = (
(395,134,o),
(270,242,o),
(270,422,cs),
(270,597,o),
(395,710,o),
(593,710,cs),
(791,710,o),
(914,596,o),
(914,422,cs),
(914,243,o),
(791,134,o),
(593,134,cs)
);
},
{
closed = 1;
nodes = (
(421,858,o),
(314,941,o),
(314,1081,cs),
(314,1226,o),
(421,1319,o),
(593,1319,cs),
(765,1319,o),
(870,1226,o),
(870,1081,cs),
(870,941,o),
(765,858,o),
(593,858,cs)
);
}
);
};
layerId = m01;
shapes = (
{
closed = 1;
nodes = (
(890,-24,o),
(1100,152,o),
(1100,409,cs),
(1100,592,o),
(989,753,o),
(778,792,c),
(944,831,o),
(1050,946,o),
(1050,1100,cs),
(1050,1310,o),
(864,1464,o),
(593,1464,cs),
(322,1464,o),
(134,1310,o),
(134,1100,cs),
(134,946,o),
(241,831,o),
(408,792,c),
(197,753,o),
(86,592,o),
(86,409,cs),
(86,152,o),
(295,-24,o),
(592,-24,cs)
);
},
{
closed = 1;
nodes = (
(395,134,o),
(270,242,o),
(270,422,cs),
(270,597,o),
(395,710,o),
(593,710,cs),
(791,710,o),
(914,596,o),
(914,422,cs),
(914,243,o),
(791,134,o),
(593,134,cs)
);
},
{
closed = 1;
nodes = (
(421,858,o),
(314,941,o),
(314,1081,cs),
(314,1226,o),
(421,1319,o),
(593,1319,cs),
(765,1319,o),
(870,1226,o),
(870,1081,cs),
(870,941,o),
(765,858,o),
(593,858,cs)
);
}
);
width = 1186;
},
{
background = {
shapes = (
{
closed = 1;
nodes = (
(982,-28,o),
(1259,129,o),
(1259,418,cs),
(1259,610,o),
(1129,733,o),
(898,762,c),
(1121,778,o),
(1222,933,o),
(1222,1094,cs),
(1222,1331,o),
(987,1468,o),
(654,1468,cs),
(321,1468,o),
(86,1331,o),
(86,1094,cs),
(86,933,o),
(187,778,o),
(410,762,c),
(171,732,o),
(49,605,o),
(49,418,cs),
(49,128,o),
(327,-28,o),
(654,-28,cs)
);
},
{
closed = 1;
nodes = (
(538,278,o),
(470,344,o),
(470,455,cs),
(470,566,o),
(538,631,o),
(654,631,cs),
(770,631,o),
(838,565,o),
(838,454,cs),
(838,343,o),
(770,278,o),
(654,278,cs)
);
},
{
closed = 1;
nodes = (
(551,875,o),
(490,937,o),
(490,1042,cs),
(490,1146,o),
(551,1208,o),
(654,1208,cs),
(757,1208,o),
(818,1146,o),
(818,1041,cs),
(818,937,o),
(757,875,o),
(654,875,cs)
);
}
);
};
layerId = m002;
shapes = (
{
closed = 1;
nodes = (
(982,-28,o),
(1259,129,o),
(1259,418,cs),
(1259,610,o),
(1129,733,o),
(898,762,c),
(1121,778,o),
(1222,933,o),
(1222,1094,cs),
(1222,1331,o),
(987,1468,o),
(654,1468,cs),
(321,1468,o),
(86,1331,o),
(86,1094,cs),
(86,933,o),
(187,778,o),
(410,762,c),
(171,732,o),
(49,605,o),
(49,418,cs),
(49,128,o),
(327,-28,o),
(654,-28,cs)
);
},
{
closed = 1;
nodes = (
(538,278,o),
(470,344,o),
(470,455,cs),
(470,566,o),
(538,631,o),
(654,631,cs),
(770,631,o),
(838,565,o),
(838,454,cs),
(838,343,o),
(770,278,o),
(654,278,cs)
);
},
{
closed = 1;
nodes = (
(551,875,o),
(490,937,o),
(490,1042,cs),
(490,1146,o),
(551,1208,o),
(654,1208,cs),
(757,1208,o),
(818,1146,o),
(818,1041,cs),
(818,937,o),
(757,875,o),
(654,875,cs)
);
}
);
width = 1308;
}
);
tags = (
overshot
);
unicode = 56;
},
{
glyphname = nine;
kernLeft = nine;
kernRight = zero;
layers = (
{
background = {
shapes = (
{
closed = 1;
nodes = (
(971,-24,o),
(1115,336,o),
(1115,733,cs),
(1115,1130,o),
(986,1464,o),
(594,1464,cs),
(299,1464,o),
(94,1274,o),
(94,972,cs),
(94,662,o),
(309,480,o),
(563,480,cs),
(769,480,o),
(899,600,o),
(955,730,c),
(939,758,l),
(934,535,o),
(917,120,o),
(589,120,cs),
(390,120,o),
(296,232,o),
(288,407,c),
(105,359,l),
(125,179,o),
(294,-24,o),
(588,-24,cs)
);
},
{
closed = 1;
nodes = (
(395,624,o),
(282,756,o),
(282,970,cs),
(282,1187,o),
(398,1320,o),
(596,1320,cs),
(791,1320,o),
(909,1191,o),
(909,982,cs),
(909,761,o),
(779,624,o),
(585,624,cs)
);
}
);
};
layerId = m01;
shapes = (
{
closed = 1;
nodes = (
(971,-24,o),
(1115,336,o),
(1115,733,cs),
(1115,1130,o),
(986,1464,o),
(594,1464,cs),
(299,1464,o),
(94,1274,o),
(94,972,cs),
(94,662,o),
(309,480,o),
(563,480,cs),
(769,480,o),
(899,600,o),
(955,730,c),
(939,758,l),
(934,535,o),
(917,120,o),
(589,120,cs),
(390,120,o),
(296,232,o),
(288,407,c),
(105,359,l),
(125,179,o),
(294,-24,o),
(588,-24,cs)
);
},
{
closed = 1;
nodes = (
(395,624,o),
(282,756,o),
(282,970,cs),
(282,1187,o),
(398,1320,o),
(596,1320,cs),
(791,1320,o),
(909,1191,o),
(909,982,cs),
(909,761,o),
(779,624,o),
(585,624,cs)
);
}
);
width = 1216;
},
{
background = {
shapes = (
{
closed = 1;
nodes = (
(1106,-28,o),
(1243,398,o),
(1243,761,cs),
(1243,1219,o),
(1024,1468,o),
(635,1468,cs),
(290,1468,o),
(56,1273,o),
(56,964,cs),
(56,707,o),
(218,489,o),
(529,489,cs),
(724,489,o),
(850,575,o),
(940,747,c),
(843,724,l),
(843,552,o),
(839,269,o),
(612,269,cs),
(500,269,o),
(428,338,o),
(422,426,c),
(51,328,l),
(90,149,o),
(296,-28,o),
(613,-28,cs)
);
},
{
closed = 1;
nodes = (
(540,779,o),
(475,853,o),
(475,973,cs),
(475,1088,o),
(535,1171,o),
(646,1171,cs),
(752,1171,o),
(818,1095,o),
(818,975,cs),
(818,858,o),
(755,779,o),
(646,779,cs)
);
}
);
};
layerId = m002;
shapes = (
{
closed = 1;
nodes = (
(1106,-28,o),
(1243,398,o),
(1243,761,cs),
(1243,1219,o),
(1024,1468,o),
(635,1468,cs),
(290,1468,o),
(56,1273,o),
(56,964,cs),
(56,707,o),
(218,489,o),
(529,489,cs),
(724,489,o),
(850,575,o),
(940,747,c),
(843,724,l),
(843,552,o),
(839,269,o),
(612,269,cs),
(500,269,o),
(428,338,o),
(422,426,c),
(51,328,l),
(90,149,o),
(296,-28,o),
(613,-28,cs)
);
},
{
closed = 1;
nodes = (
(540,779,o),
(475,853,o),
(475,973,cs),
(475,1088,o),
(535,1171,o),
(646,1171,cs),
(752,1171,o),
(818,1095,o),
(818,975,cs),
(818,858,o),
(755,779,o),
(646,779,cs)
);
}
);
width = 1300;
}
);
tags = (
overshot
);
unicode = 57;
userData = {
KernOnName = nine;
};
},
{
glyphname = zero.tf;
layers = (
{
background = {
shapes = (
{
closed = 1;
nodes = (
(985,-24,o),
(1178,248,o),
(1178,720,cs),
(1178,1192,o),
(985,1464,o),
(651,1464,cs),
(316,1464,o),
(123,1192,o),
(123,720,cs),
(123,248,o),
(316,-24,o),
(651,-24,cs)
);
},
{
closed = 1;
nodes = (
(429,120,o),
(313,327,o),
(313,720,cs),
(313,1113,o),
(429,1320,o),
(651,1320,cs),
(872,1320,o),
(988,1113,o),
(988,720,cs),
(988,327,o),
(872,120,o),
(651,120,cs)
);
}
);
};
layerId = m01;
shapes = (
{
closed = 1;
nodes = (
(985,-24,o),
(1178,248,o),
(1178,720,cs),
(1178,1192,o),
(985,1464,o),
(651,1464,cs),
(316,1464,o),
(123,1192,o),
(123,720,cs),
(123,248,o),
(316,-24,o),
(651,-24,cs)
);
},
{
closed = 1;
nodes = (
(429,120,o),
(313,327,o),
(313,720,cs),
(313,1113,o),
(429,1320,o),
(651,1320,cs),
(872,1320,o),
(988,1113,o),
(988,720,cs),
(988,327,o),
(872,120,o),
(651,120,cs)
);
}
);
userData = {
RMXScaler = {
monoWidth = 1300;
};
};
width = 1300;
},
{
background = {
shapes = (
{
closed = 1;
nodes = (
(1041,-28,o),
(1257,241,o),
(1257,720,cs),
(1257,1198,o),
(1041,1468,o),
(651,1468,cs),
(260,1468,o),
(43,1198,o),
(43,720,cs),
(43,241,o),
(260,-28,o),
(651,-28,cs)
);
},
{
closed = 1;
nodes = (
(524,288,o),
(463,432,o),
(463,720,cs),
(463,1007,o),
(524,1151,o),
(651,1151,cs),
(775,1151,o),
(837,1007,o),
(837,720,cs),
(837,432,o),
(775,288,o),
(651,288,cs)
);
}
);
};
layerId = m002;
shapes = (
{
closed = 1;
nodes = (
(1041,-28,o),
(1257,241,o),
(1257,720,cs),
(1257,1198,o),
(1041,1468,o),
(651,1468,cs),
(260,1468,o),
(43,1198,o),
(43,720,cs),
(43,241,o),
(260,-28,o),
(651,-28,cs)
);
},
{
closed = 1;
nodes = (
(524,288,o),
(463,432,o),
(463,720,cs),
(463,1007,o),
(524,1151,o),
(651,1151,cs),
(775,1151,o),
(837,1007,o),
(837,720,cs),
(837,432,o),
(775,288,o),
(651,288,cs)
);
}
);
userData = {
RMXScaler = {
monoWidth = 1300;
};
};
width = 1300;
}
);
metricWidth = "=plus";
userData = {
KernOnSpecialSpacing = {
L = NoKerning;
R = NoKerning;
};
RMXScaler = {
source = zero;
};
};
},
{
glyphname = one.tf;
layers = (
{
background = {
shapes = (
{
closed = 1;
nodes = (
(1099,0,l),
(1099,154,l),
(784,154,l),
(784,1440,l),
(655,1440,l),
(473,1198,o),
(373,1153,o),
(279,1111,c),
(279,946,l),
(409,989,o),
(496,1050,o),
(608,1147,c),
(608,154,l),
(210,154,l),
(210,0,l)
);
}
);
};
layerId = m01;
shapes = (
{
closed = 1;
nodes = (
(1099,0,l),
(1099,154,l),
(784,154,l),
(784,1440,l),
(655,1440,l),
(473,1198,o),
(373,1153,o),
(279,1111,c),
(279,946,l),
(409,989,o),
(496,1050,o),
(608,1147,c),
(608,154,l),
(210,154,l),
(210,0,l)
);
}
);
userData = {
RMXScaler = {
monoWidth = 1300;
useSpacing = 30;
};
};
width = 1300;
},
{
background = {
shapes = (
{
closed = 1;
nodes = (
(1193,0,l),
(1193,316,l),
(917,316,l),
(917,1440,l),
(609,1440,l),
(463,1244,o),
(305,1166,o),
(160,1114,c),
(160,704,l),
(292,748,o),
(390,811,o),
(512,937,c),
(512,316,l),
(151,316,l),
(151,0,l)
);
}
);
};
layerId = m002;
shapes = (
{
closed = 1;
nodes = (
(1193,0,l),
(1193,316,l),
(917,316,l),
(917,1440,l),
(609,1440,l),
(463,1244,o),
(305,1166,o),
(160,1114,c),
(160,704,l),
(292,748,o),
(390,811,o),
(512,937,c),
(512,316,l),
(151,316,l),
(151,0,l)
);
}
);
userData = {
RMXScaler = {
keepStroke = 80;
monoWidth = 1300;
useSpacing = 20;
};
};
width = 1300;
}
);
metricWidth = "=plus";
userData = {
KernOnSpecialSpacing = {
L = NoKerning;
R = NoKerning;
};
RMXScaler = {
source = one;
};
};
},
{
glyphname = two.tf;
layers = (
{
background = {
shapes = (
{
closed = 1;
nodes = (
(1189,0,l),
(1189,154,l),
(217,154,l),
(360,130,l),
(782,448,ls),
(1028,634,o),
(1156,802,o),
(1156,1022,cs),
(1156,1343,o),
(879,1464,o),
(642,1464,cs),
(326,1464,o),
(118,1251,o),
(108,1060,c),
(301,1001,l),
(315,1180,o),
(407,1320,o),
(644,1320,cs),
(850,1320,o),
(966,1216,o),
(966,1018,cs),
(966,837,o),
(868,726,o),
(642,547,cs),
(100,118,l),
(100,0,l)
);
}
);
};
layerId = m01;
shapes = (
{
closed = 1;
nodes = (
(1189,0,l),
(1189,154,l),
(217,154,l),
(360,130,l),
(782,448,ls),
(1028,634,o),
(1156,802,o),
(1156,1022,cs),
(1156,1343,o),
(879,1464,o),
(642,1464,cs),
(326,1464,o),
(118,1251,o),
(108,1060,c),
(301,1001,l),
(315,1180,o),
(407,1320,o),
(644,1320,cs),
(850,1320,o),
(966,1216,o),
(966,1018,cs),
(966,837,o),
(868,726,o),
(642,547,cs),
(100,118,l),
(100,0,l)
);
}
);
userData = {
RMXScaler = {
monoWidth = 1300;
useSpacing = 30;
};
};
width = 1300;
},
{
background = {
shapes = (
{
closed = 1;
nodes = (
(1226,0,l),
(1226,316,l),
(398,316,l),
(426,236,l),
(780,433,ls),
(1083,602,o),
(1246,796,o),
(1246,1016,cs),
(1246,1337,o),
(913,1468,o),
(642,1468,cs),
(311,1468,o),
(66,1275,o),
(26,1038,c),
(436,931,l),
(443,1017,o),
(468,1150,o),
(641,1150,cs),
(734,1150,o),
(820,1117,o),
(820,966,cs),
(820,847,o),
(765,759,o),
(610,644,cs),
(64,239,l),
(64,0,l)
);
}
);
};
layerId = m002;
shapes = (
{
closed = 1;
nodes = (
(1226,0,l),
(1226,316,l),
(398,316,l),
(426,236,l),
(780,433,ls),
(1083,602,o),
(1246,796,o),
(1246,1016,cs),
(1246,1337,o),
(913,1468,o),
(642,1468,cs),
(311,1468,o),
(66,1275,o),
(26,1038,c),
(436,931,l),
(443,1017,o),
(468,1150,o),
(641,1150,cs),
(734,1150,o),
(820,1117,o),
(820,966,cs),
(820,847,o),
(765,759,o),
(610,644,cs),
(64,239,l),
(64,0,l)
);
}
);
userData = {
RMXScaler = {
keepStroke = 80;
monoWidth = 1300;
useSpacing = 20;
};
};
width = 1300;
}
);
metricWidth = "=plus";
userData = {
KernOnSpecialSpacing = {
L = NoKerning;
R = NoKerning;
};
RMXScaler = {
source = two;
};
};
},
{
glyphname = three.tf;
layers = (
{
background = {
shapes = (
{
closed = 1;
nodes = (
(914,-24,o),
(1176,108,o),
(1176,429,cs),
(1176,602,o),
(1049,755,o),
(834,792,c),
(1024,833,o),
(1118,949,o),
(1118,1092,cs),
(1118,1309,o),
(914,1464,o),
(658,1464,cs),
(345,1464,o),
(145,1243,o),
(133,1037,c),
(316,980,l),
(332,1193,o),
(427,1320,o),
(653,1320,cs),
(833,1320,o),
(938,1211,o),
(938,1078,cs),
(938,964,o),
(839,858,o),
(660,858,cs),
(466,858,l),
(466,706,l),
(679,706,ls),
(923,706,o),
(986,541,o),
(986,425,cs),
(986,228,o),
(843,120,o),
(652,120,cs),
(439,120,o),
(311,265,o),
(296,480,c),
(113,423,l),
(140,135,o),
(376,-24,o),
(654,-24,cs)
);
}
);
};
layerId = m01;
shapes = (
{
closed = 1;
nodes = (
(914,-24,o),
(1176,108,o),
(1176,429,cs),
(1176,602,o),
(1049,755,o),
(834,792,c),
(1024,833,o),
(1118,949,o),
(1118,1092,cs),
(1118,1309,o),
(914,1464,o),
(658,1464,cs),
(345,1464,o),
(145,1243,o),
(133,1037,c),
(316,980,l),
(332,1193,o),
(427,1320,o),
(653,1320,cs),
(833,1320,o),
(938,1211,o),
(938,1078,cs),
(938,964,o),
(839,858,o),
(660,858,cs),
(466,858,l),
(466,706,l),
(679,706,ls),
(923,706,o),
(986,541,o),
(986,425,cs),
(986,228,o),
(843,120,o),
(652,120,cs),
(439,120,o),
(311,265,o),
(296,480,c),
(113,423,l),
(140,135,o),
(376,-24,o),
(654,-24,cs)
);
}
);
userData = {
RMXScaler = {
monoWidth = 1300;
useSpacing = 30;
};
};
width = 1300;
},
{
background = {
shapes = (
{
closed = 1;
nodes = (
(960,-28,o),
(1251,114,o),
(1251,414,cs),
(1251,601,o),
(1137,731,o),
(905,764,c),
(1136,782,o),
(1207,934,o),
(1207,1076,cs),
(1207,1342,o),
(965,1468,o),
(673,1468,cs),
(311,1468,o),
(96,1274,o),
(79,1081,c),
(463,984,l),
(472,1116,o),
(537,1153,o),
(637,1153,cs),
(750,1153,o),
(798,1093,o),
(798,1022,cs),
(798,940,o),
(735,883,o),
(627,883,cs),
(512,883,l),
(512,626,l),
(582,626,ls),
(774,626,o),
(834,546,o),
(834,453,cs),
(834,343,o),
(750,288,o),
(639,288,cs),
(497,288,o),
(422,380,o),
(422,562,c),
(27,449,l),
(41,146,o),
(310,-28,o),
(651,-28,cs)
);
}
);
};
layerId = m002;
shapes = (
{
closed = 1;
nodes = (
(960,-28,o),
(1251,114,o),
(1251,414,cs),
(1251,601,o),
(1137,731,o),
(905,764,c),
(1136,782,o),
(1207,934,o),
(1207,1076,cs),
(1207,1342,o),
(965,1468,o),
(673,1468,cs),
(311,1468,o),
(96,1274,o),
(79,1081,c),
(463,984,l),
(472,1116,o),
(537,1153,o),
(637,1153,cs),
(750,1153,o),
(798,1093,o),
(798,1022,cs),
(798,940,o),
(735,883,o),
(627,883,cs),
(512,883,l),
(512,626,l),
(582,626,ls),
(774,626,o),
(834,546,o),
(834,453,cs),
(834,343,o),
(750,288,o),
(639,288,cs),
(497,288,o),
(422,380,o),
(422,562,c),
(27,449,l),
(41,146,o),
(310,-28,o),
(651,-28,cs)
);
}
);
userData = {
RMXScaler = {
keepStroke = 80;
monoWidth = 1300;
useSpacing = 20;
};
};
width = 1300;
}
);
metricWidth = "=plus";
userData = {
KernOnSpecialSpacing = {
L = NoKerning;
R = NoKerning;
};
RMXScaler = {
source = three;
};
};
},
{
glyphname = four.tf;
layers = (
{
background = {
shapes = (
{
closed = 1;
nodes = (
(1044,0,l),
(1044,1440,l),
(899,1440,l),
(82,544,l),
(82,372,l),
(1222,372,l),
(1222,526,l),
(159,526,l),
(224,474,l),
(913,1232,l),
(870,1328,l),
(870,476,l),
(868,476,l),
(868,0,l)
);
}
);
};
layerId = m01;
shapes = (
{
closed = 1;
nodes = (
(1044,0,l),
(1044,1440,l),
(899,1440,l),
(82,544,l),
(82,372,l),
(1222,372,l),
(1222,526,l),
(159,526,l),
(224,474,l),
(913,1232,l),
(870,1328,l),
(870,476,l),
(868,476,l),
(868,0,l)
);
}
);
userData = {
RMXScaler = {
monoWidth = 1300;
useSpacing = 30;
};
};
width = 1300;
},
{
background = {
shapes = (
{
closed = 1;
nodes = (
(1097,0,l),
(1097,1440,l),
(690,1440,l),
(10,583,l),
(10,291,l),
(1290,291,l),
(1290,607,l),
(243,607,l),
(284,472,l),
(823,1171,l),
(722,1169,l),
(722,476,l),
(692,422,l),
(692,0,l)
);
}
);
};
layerId = m002;
shapes = (
{
closed = 1;
nodes = (
(1097,0,l),
(1097,1440,l),
(690,1440,l),
(10,583,l),
(10,291,l),
(1290,291,l),
(1290,607,l),
(243,607,l),
(284,472,l),
(823,1171,l),
(722,1169,l),
(722,476,l),
(692,422,l),
(692,0,l)
);
}
);
userData = {
RMXScaler = {
keepStroke = 80;
monoWidth = 1300;
useSpacing = 20;
};
};
width = 1300;
}
);
metricWidth = "=plus";
userData = {
KernOnSpecialSpacing = {
L = NoKerning;
R = NoKerning;
};
RMXScaler = {
source = four;
};
};
},
{
glyphname = five.tf;
layers = (
{
background = {
shapes = (
{
closed = 1;
nodes = (
(940,-24,o),
(1188,176,o),
(1188,489,cs),
(1188,770,o),
(973,964,o),
(696,964,cs),
(500,964,o),
(364,869,o),
(289,746,c),
(334,742,l),
(384,1286,l),
(1097,1286,l),
(1097,1440,l),
(232,1440,l),
(172,638,l),
(344,620,l),
(389,720,o),
(483,816,o),
(658,816,cs),
(853,816,o),
(1006,698,o),
(1006,483,cs),
(1006,270,o),
(859,120,o),
(652,120,cs),
(425,120,o),
(310,276,o),
(293,479,c),
(112,422,l),
(138,133,o),
(397,-24,o),
(659,-24,cs)
);
}
);
};
layerId = m01;
shapes = (
{
closed = 1;
nodes = (
(940,-24,o),
(1188,176,o),
(1188,489,cs),
(1188,770,o),
(973,964,o),
(696,964,cs),
(500,964,o),
(364,869,o),
(289,746,c),
(334,742,l),
(384,1286,l),
(1097,1286,l),
(1097,1440,l),
(232,1440,l),
(172,638,l),
(344,620,l),
(389,720,o),
(483,816,o),
(658,816,cs),
(853,816,o),
(1006,698,o),
(1006,483,cs),
(1006,270,o),
(859,120,o),
(652,120,cs),
(425,120,o),
(310,276,o),
(293,479,c),
(112,422,l),
(138,133,o),
(397,-24,o),
(659,-24,cs)
);
}
);
userData = {
RMXScaler = {
monoWidth = 1300;
useSpacing = 30;
};
};
width = 1300;
},
{
background = {
shapes = (
{
closed = 1;
nodes = (
(972,-28,o),
(1263,149,o),
(1263,513,cs),
(1263,772,o),
(1121,981,o),
(785,981,cs),
(627,981,o),
(490,935,o),
(407,810,c),
(446,770,l),
(479,1124,l),
(1176,1124,l),
(1176,1440,l),
(151,1440,l),
(74,636,l),
(500,607,l),
(540,673,o),
(591,698,o),
(659,698,cs),
(788,698,o),
(844,613,o),
(844,504,cs),
(844,384,o),
(785,289,o),
(657,289,cs),
(538,289,o),
(470,370,o),
(470,512,c),
(46,439,l),
(74,135,o),
(338,-28,o),
(648,-28,cs)
);
}
);
};
layerId = m002;
shapes = (
{
closed = 1;
nodes = (
(972,-28,o),
(1263,149,o),
(1263,513,cs),
(1263,772,o),
(1121,981,o),
(785,981,cs),
(627,981,o),
(490,935,o),
(407,810,c),
(446,770,l),
(479,1124,l),
(1176,1124,l),
(1176,1440,l),
(151,1440,l),
(74,636,l),
(500,607,l),
(540,673,o),
(591,698,o),
(659,698,cs),
(788,698,o),
(844,613,o),
(844,504,cs),
(844,384,o),
(785,289,o),
(657,289,cs),
(538,289,o),
(470,370,o),
(470,512,c),
(46,439,l),
(74,135,o),
(338,-28,o),
(648,-28,cs)
);
}
);
userData = {
RMXScaler = {
keepStroke = 80;
monoWidth = 1300;
useSpacing = 20;
};
};
width = 1300;
}
);
metricWidth = "=plus";
userData = {
KernOnSpecialSpacing = {
L = NoKerning;
R = NoKerning;
};
RMXScaler = {
source = five;
};
};
},
{
glyphname = six.tf;
layers = (
{
background = {
shapes = (
{
closed = 1;
nodes = (
(980,-24,o),
(1186,165,o),
(1186,462,cs),
(1186,774,o),
(955,948,o),
(693,948,cs),
(472,948,o),
(334,828,o),
(276,698,c),
(291,682,l),
(291,905,o),
(328,1320,o),
(688,1320,cs),
(879,1320,o),
(997,1205,o),
(1005,1033,c),
(1190,1081,l),
(1170,1261,o),
(983,1464,o),
(685,1464,cs),
(302,1464,o),
(115,1123,o),
(115,691,cs),
(115,249,o),
(307,-24,o),
(675,-24,cs)
);
},
{
closed = 1;
nodes = (
(457,120,o),
(323,251,o),
(323,459,cs),
(323,672,o),
(463,804,o),
(673,804,cs),
(876,804,o),
(998,679,o),
(998,465,cs),
(998,252,o),
(877,120,o),
(666,120,cs)
);
}
);
};
layerId = m01;
shapes = (
{
closed = 1;
nodes = (
(980,-24,o),
(1186,165,o),
(1186,462,cs),
(1186,774,o),
(955,948,o),
(693,948,cs),
(472,948,o),
(334,828,o),
(276,698,c),
(291,682,l),
(291,905,o),
(328,1320,o),
(688,1320,cs),
(879,1320,o),
(997,1205,o),
(1005,1033,c),
(1190,1081,l),
(1170,1261,o),
(983,1464,o),
(685,1464,cs),
(302,1464,o),
(115,1123,o),
(115,691,cs),
(115,249,o),
(307,-24,o),
(675,-24,cs)
);
},
{
closed = 1;
nodes = (
(457,120,o),
(323,251,o),
(323,459,cs),
(323,672,o),
(463,804,o),
(673,804,cs),
(876,804,o),
(998,679,o),
(998,465,cs),
(998,252,o),
(877,120,o),
(666,120,cs)
);
}
);
userData = {
RMXScaler = {
monoWidth = 1300;
useSpacing = 30;
};
};
width = 1300;
},
{
background = {
shapes = (
{
closed = 1;
nodes = (
(1023,-28,o),
(1265,168,o),
(1265,476,cs),
(1265,716,o),
(1113,931,o),
(778,931,cs),
(578,931,o),
(463,856,o),
(386,737,c),
(443,716,l),
(443,876,o),
(449,1171,o),
(684,1171,cs),
(798,1171,o),
(868,1101,o),
(875,994,c),
(1250,1092,l),
(1209,1287,o),
(1007,1468,o),
(680,1468,cs),
(188,1468,o),
(40,1048,o),
(40,681,cs),
(40,227,o),
(266,-28,o),
(670,-28,cs)
);
},
{
closed = 1;
nodes = (
(542,269,o),
(469,341,o),
(469,455,cs),
(469,566,o),
(539,641,o),
(657,641,cs),
(772,641,o),
(843,571,o),
(843,457,cs),
(843,348,o),
(777,269,o),
(657,269,cs)
);
}
);
};
layerId = m002;
shapes = (
{
closed = 1;
nodes = (
(1023,-28,o),
(1265,168,o),
(1265,476,cs),
(1265,716,o),
(1113,931,o),
(778,931,cs),
(578,931,o),
(463,856,o),
(386,737,c),
(443,716,l),
(443,876,o),
(449,1171,o),
(684,1171,cs),
(798,1171,o),
(868,1101,o),
(875,994,c),
(1250,1092,l),
(1209,1287,o),
(1007,1468,o),
(680,1468,cs),
(188,1468,o),
(40,1048,o),
(40,681,cs),
(40,227,o),
(266,-28,o),
(670,-28,cs)
);
},
{
closed = 1;
nodes = (
(542,269,o),
(469,341,o),
(469,455,cs),
(469,566,o),
(539,641,o),
(657,641,cs),
(772,641,o),
(843,571,o),
(843,457,cs),
(843,348,o),
(777,269,o),
(657,269,cs)
);
}
);
userData = {
RMXScaler = {
keepStroke = 80;
monoWidth = 1300;
useSpacing = 20;
};
};
width = 1300;
}
);
metricWidth = "=plus";
userData = {
KernOnSpecialSpacing = {
L = NoKerning;
R = NoKerning;
};
RMXScaler = {
source = six;
};
};
},
{
glyphname = seven.tf;
layers = (
{
background = {
shapes = (
{
closed = 1;
nodes = (
(542,0,l),
(632,494,o),
(897,897,o),
(1207,1305,c),
(1207,1440,l),
(94,1440,l),
(94,1286,l),
(1024,1286,l),
(670,891,o),
(444,487,o),
(322,0,c)
);
}
);
};
layerId = m01;
shapes = (
{
closed = 1;
nodes = (
(542,0,l),
(632,494,o),
(897,897,o),
(1207,1305,c),
(1207,1440,l),
(94,1440,l),
(94,1286,l),
(1024,1286,l),
(670,891,o),
(444,487,o),
(322,0,c)
);
}
);
userData = {
RMXScaler = {
monoWidth = 1300;
useSpacing = 30;
};
};
width = 1300;
},
{
background = {
shapes = (
{
closed = 1;
nodes = (
(667,0,l),
(770,498,o),
(923,762,o),
(1276,1173,c),
(1276,1440,l),
(26,1440,l),
(26,1124,l),
(900,1124,l),
(585,887,o),
(340,497,o),
(236,0,c)
);
}
);
};
layerId = m002;
shapes = (
{
closed = 1;
nodes = (
(667,0,l),
(770,498,o),
(923,762,o),
(1276,1173,c),
(1276,1440,l),
(26,1440,l),
(26,1124,l),
(900,1124,l),
(585,887,o),
(340,497,o),
(236,0,c)
);
}
);
userData = {
RMXScaler = {
keepStroke = 80;
monoWidth = 1300;
useSpacing = 20;
};
};
width = 1300;
}
);
metricWidth = "=plus";
userData = {
KernOnSpecialSpacing = {
L = NoKerning;
R = NoKerning;
};
RMXScaler = {
source = seven;
};
};
},
